SplineFontDB: 3.0
FontName: Exo-DemiBold
FullName: Exo DemiBold
FamilyName: Exo
Weight: Demi
Copyright: Copyright (c) 2011 Natanael Gama (exo@ndiscovered.com), with Reserved Font Name "Exo"
Version: 1.00
ItalicAngle: 0
UnderlinePosition: -50
UnderlineWidth: 50
Ascent: 800
Descent: 200
sfntRevision: 0x00010000
LayerCount: 2
Layer: 0 1 "Back"  1
Layer: 1 1 "Fore"  0
XUID: [1021 560 1565516853 11552221]
FSType: 0
OS2Version: 4
OS2_WeightWidthSlopeOnly: 0
OS2_UseTypoMetrics: 1
CreationTime: 1317847219
ModificationTime: 1328305022
PfmFamily: 17
TTFWeight: 600
TTFWidth: 5
LineGap: 0
VLineGap: 0
Panose: 2 0 7 3 0 0 0 0 0 0
OS2TypoAscent: 202
OS2TypoAOffset: 1
OS2TypoDescent: -127
OS2TypoDOffset: 1
OS2TypoLinegap: 0
OS2WinAscent: 0
OS2WinAOffset: 1
OS2WinDescent: 54
OS2WinDOffset: 1
HheadAscent: 0
HheadAOffset: 1
HheadDescent: -54
HheadDOffset: 1
OS2SubXSize: 650
OS2SubYSize: 700
OS2SubXOff: 0
OS2SubYOff: 140
OS2SupXSize: 650
OS2SupYSize: 700
OS2SupXOff: 0
OS2SupYOff: 480
OS2StrikeYSize: 49
OS2StrikeYPos: 258
OS2Vendor: 'PfEd'
OS2CodePages: 20000093.00000000
OS2UnicodeRanges: a00000ef.4000204b.00000000.00000000
Lookup: 4 0 0 "'ordn' Ordinals lookup 0"  {"'ordn' Ordinals lookup 0 subtable"  } ['ordn' ('DFLT' <'dflt' > 'grek' <'dflt' > 'latn' <'dflt' > ) ]
Lookup: 1 0 0 "'smcp' Lowercase to Small Capitals lookup 1"  {"'smcp' Lowercase to Small Capitals lookup 1 subtable"  } ['smcp' ('DFLT' <'dflt' > 'grek' <'dflt' > 'latn' <'FRA ' 'dflt' > ) ]
Lookup: 1 0 0 "'c2sc' Capitals to Small Capitals in Latin lookup 2"  {"'c2sc' Capitals to Small Capitals in Latin lookup 2 subtable"  } ['c2sc' ('latn' <'dflt' > ) ]
Lookup: 4 0 0 "'dlig' Discretionary Ligatures lookup 3"  {"'dlig' Discretionary Ligatures lookup 3 subtable"  } ['dlig' ('DFLT' <'dflt' > 'grek' <'dflt' > 'latn' <'dflt' > ) ]
Lookup: 4 0 1 "'liga' Standard Ligatures lookup 4"  {"'liga' Standard Ligatures lookup 4 subtable"  } ['liga' ('DFLT' <'dflt' > 'grek' <'dflt' > 'latn' <'FRA ' 'dflt' > ) ]

StartChar: .notdef
Encoding: 0 -1 0
AltUni2: 000000.ffffffff.0
Width: 727
Flags: W
LayerCount: 2
Fore
SplineSet
629 506 m 1,0,-1
 377 266 l 1,1,-1
 629 25 l 1,2,-1
 629 506 l 1,0,-1
112 13 m 1,3,-1
 619 13 l 1,4,-1
 366 256 l 1,5,-1
 112 13 l 1,3,-1
99 22 m 1,6,-1
 355 266 l 1,7,-1
 99 507 l 1,8,-1
 99 22 l 1,6,-1
620 518 m 1,9,-1
 109 518 l 1,10,-1
 366 276 l 1,11,-1
 620 518 l 1,9,-1
85 0 m 1,12,-1
 85 531 l 1,13,-1
 643 531 l 1,14,-1
 643 0 l 1,15,-1
 85 0 l 1,12,-1
EndSplineSet
EndChar

StartChar: exclam
Encoding: 33 33 4
Width: 271
GlyphClass: 2
Flags: W
LayerCount: 2
Fore
SplineSet
72 23 m 2,0,-1
 72 101 l 2,1,2
 72 126 72 126 96 126 c 2,3,-1
 172 126 l 2,4,5
 183 126 183 126 189 119 c 128,-1,6
 195 112 195 112 195 101 c 2,7,-1
 195 23 l 2,8,9
 195 0 195 0 172 0 c 2,10,-1
 96 0 l 2,11,12
 86 0 86 0 79 6.5 c 128,-1,13
 72 13 72 13 72 23 c 2,0,-1
73 731 m 1,14,-1
 196 731 l 1,15,-1
 184 196 l 1,16,-1
 84 196 l 1,17,-1
 73 731 l 1,14,-1
EndSplineSet
Substitution2: "'smcp' Lowercase to Small Capitals lookup 1 subtable" exclam.smcp
EndChar

StartChar: quotedbl
Encoding: 34 34 5
Width: 420
GlyphClass: 2
Flags: W
LayerCount: 2
Fore
SplineSet
185 732 m 1,0,-1
 185 665 l 1,1,-1
 175 531 l 1,2,-1
 83 531 l 1,3,-1
 72 665 l 1,4,-1
 72 732 l 1,5,-1
 185 732 l 1,0,-1
236 732 m 1,6,-1
 349 732 l 1,7,-1
 349 665 l 1,8,-1
 339 531 l 1,9,-1
 247 531 l 1,10,-1
 236 665 l 1,11,-1
 236 732 l 1,6,-1
EndSplineSet
Substitution2: "'smcp' Lowercase to Small Capitals lookup 1 subtable" quotedbl.smcp
EndChar

StartChar: numbersign
Encoding: 35 35 6
Width: 708
GlyphClass: 2
Flags: W
LayerCount: 2
Fore
SplineSet
17 218 m 1,0,-1
 29 298 l 1,1,-1
 184 298 l 1,2,-1
 206 435 l 1,3,-1
 51 435 l 1,4,-1
 64 515 l 1,5,-1
 221 515 l 1,6,-1
 258 732 l 1,7,-1
 338 732 l 1,8,-1
 301 515 l 1,9,-1
 439 515 l 1,10,-1
 475 732 l 1,11,-1
 555 732 l 1,12,-1
 519 515 l 1,13,-1
 693 515 l 1,14,-1
 680 435 l 1,15,-1
 506 435 l 1,16,-1
 484 297 l 1,17,-1
 658 297 l 1,18,-1
 646 217 l 1,19,-1
 468 217 l 1,20,-1
 431 0 l 1,21,-1
 351 0 l 1,22,-1
 388 217 l 1,23,-1
 249 218 l 1,24,-1
 212 0 l 1,25,-1
 132 0 l 1,26,-1
 169 218 l 1,27,-1
 17 218 l 1,0,-1
264 298 m 1,28,-1
 404 297 l 1,29,-1
 426 435 l 1,30,-1
 286 435 l 1,31,-1
 264 298 l 1,28,-1
EndSplineSet
Substitution2: "'smcp' Lowercase to Small Capitals lookup 1 subtable" numbersign.smcp
EndChar

StartChar: dollar
Encoding: 36 36 7
Width: 571
GlyphClass: 2
Flags: W
LayerCount: 2
Fore
SplineSet
240 824 m 1,0,-1
 316 824 l 1,1,-1
 316 736 l 1,2,3
 405 730 405 730 499 711 c 1,4,-1
 499 620 l 1,5,6
 286 630 286 630 249 630 c 128,-1,7
 212 630 212 630 187.5 614.5 c 128,-1,8
 163 599 163 599 163 546 c 2,9,-1
 163 499 l 2,10,11
 163 455 163 455 186 437 c 128,-1,12
 209 419 209 419 251 419 c 2,13,-1
 358 419 l 2,14,15
 526 419 526 419 526 233 c 2,16,-1
 526 177 l 2,17,18
 526 67 526 67 459 26 c 0,19,20
 404 -8 404 -8 328 -8 c 0,21,22
 322 -8 322 -8 316 -8 c 1,23,-1
 316 -90 l 1,24,-1
 240 -90 l 1,25,-1
 240 -5 l 1,26,27
 143 2 143 2 70 20 c 1,28,-1
 70 109 l 1,29,30
 79 108 79 108 100 107 c 128,-1,31
 121 106 121 106 143.5 105 c 128,-1,32
 166 104 166 104 193 103 c 0,33,34
 254 101 254 101 305 101 c 0,35,36
 410 101 410 101 410 174 c 2,37,-1
 410 224 l 2,38,39
 410 275 410 275 381 292 c 1,40,41
 365 303 365 303 337 303 c 2,42,-1
 232 303 l 2,43,44
 185 303 185 303 150 316 c 128,-1,45
 115 329 115 329 96 348.5 c 128,-1,46
 77 368 77 368 65 394 c 1,47,48
 47 437 47 437 47 489 c 2,49,-1
 47 553 l 1,50,51
 48 656 48 656 104 698 c 0,52,53
 154 736 154 736 240 738 c 1,54,-1
 240 824 l 1,0,-1
EndSplineSet
Substitution2: "'smcp' Lowercase to Small Capitals lookup 1 subtable" dollar.smcp
EndChar

StartChar: percent
Encoding: 37 37 8
Width: 959
GlyphClass: 2
Flags: W
LayerCount: 2
Fore
SplineSet
36 478 m 2,0,-1
 36 604 l 2,1,2
 36 670 36 670 65.5 701 c 128,-1,3
 95 732 95 732 168 732 c 2,4,-1
 269 732 l 2,5,6
 341 732 341 732 370.5 701 c 128,-1,7
 400 670 400 670 400 604 c 2,8,-1
 400 478 l 2,9,10
 400 378 400 378 330 357 c 0,11,12
 305 349 305 349 267 349 c 2,13,-1
 166 349 l 2,14,15
 95 349 95 349 65.5 380 c 128,-1,16
 36 411 36 411 36 478 c 2,0,-1
122 488 m 2,17,18
 122 458 122 458 133 446.5 c 128,-1,19
 144 435 144 435 175 435 c 2,20,-1
 258 435 l 2,21,22
 294 435 294 435 304 446.5 c 128,-1,23
 314 458 314 458 314 488 c 2,24,-1
 314 593 l 2,25,26
 314 625 314 625 302.5 635.5 c 128,-1,27
 291 646 291 646 260 646 c 2,28,-1
 177 646 l 2,29,30
 135 646 135 646 126 625 c 0,31,32
 122 614 122 614 122 593 c 2,33,-1
 122 488 l 2,17,18
215 0 m 1,34,-1
 658 732 l 1,35,-1
 748 732 l 1,36,-1
 307 0 l 1,37,-1
 215 0 l 1,34,-1
560 131 m 2,38,-1
 560 257 l 2,39,40
 560 323 560 323 589.5 354 c 128,-1,41
 619 385 619 385 692 385 c 2,42,-1
 794 385 l 2,43,44
 887 385 887 385 912 328 c 0,45,46
 924 301 924 301 924 257 c 2,47,-1
 924 131 l 2,48,49
 924 64 924 64 894.5 33 c 128,-1,50
 865 2 865 2 792 2 c 2,51,-1
 690 2 l 2,52,53
 619 2 619 2 589.5 33.5 c 128,-1,54
 560 65 560 65 560 131 c 2,38,-1
646 141 m 2,55,56
 646 111 646 111 657 99.5 c 128,-1,57
 668 88 668 88 699 88 c 2,58,-1
 783 88 l 2,59,60
 818 88 818 88 828 99.5 c 128,-1,61
 838 111 838 111 838 141 c 2,62,-1
 838 246 l 2,63,64
 838 278 838 278 826.5 288.5 c 128,-1,65
 815 299 815 299 785 299 c 2,66,-1
 701 299 l 2,67,68
 659 299 659 299 651 279 c 0,69,70
 646 268 646 268 646 246 c 2,71,-1
 646 141 l 2,55,56
EndSplineSet
Substitution2: "'smcp' Lowercase to Small Capitals lookup 1 subtable" percent.smcp
EndChar

StartChar: ampersand
Encoding: 38 38 9
Width: 664
GlyphClass: 2
Flags: W
LayerCount: 2
Fore
SplineSet
302 627 m 2,0,1
 227 627 227 627 227 591 c 0,2,3
 227 566 227 566 259 521 c 2,4,-1
 452 258 l 1,5,-1
 571 374 l 1,6,-1
 610 327 l 1,7,-1
 554 220 l 1,8,-1
 515 176 l 1,9,-1
 644 0 l 1,10,-1
 508 0 l 1,11,-1
 433 102 l 1,12,-1
 365 40 l 2,13,14
 315 -5 315 -5 240 -5 c 0,15,16
 201 -5 201 -5 162 10 c 0,17,18
 105 31 105 31 66.5 86.5 c 128,-1,19
 28 142 28 142 28 203 c 0,20,21
 28 296 28 296 111 368 c 2,22,-1
 187 433 l 1,23,-1
 131 511 l 1,24,25
 98 559 98 559 98 601 c 0,26,27
 98 654 98 654 132.5 689.5 c 128,-1,28
 167 725 167 725 208 730 c 0,29,30
 253 736 253 736 312 736 c 128,-1,31
 371 736 371 736 480 710 c 1,32,-1
 480 627 l 1,33,-1
 302 627 l 2,0,1
185 295 m 2,34,35
 139 256 139 256 139 218.5 c 128,-1,36
 139 181 139 181 160.5 153.5 c 128,-1,37
 182 126 182 126 203.5 115 c 128,-1,38
 225 104 225 104 238.5 104 c 128,-1,39
 252 104 252 104 256 105 c 0,40,41
 284 107 284 107 306 128 c 2,42,-1
 367 186 l 1,43,-1
 246 347 l 1,44,-1
 185 295 l 2,34,35
EndSplineSet
AlternateSubs2: "'salt' Stylistic Alternatives in Latin lookup 16 subtable" ampersand.salt
Substitution2: "'smcp' Lowercase to Small Capitals lookup 1 subtable" ampersand.smcp
EndChar

StartChar: quotesingle
Encoding: 39 39 10
Width: 209
GlyphClass: 2
Flags: W
LayerCount: 2
Fore
SplineSet
47 732 m 1,0,-1
 164 732 l 1,1,-1
 164 665 l 1,2,-1
 154 531 l 1,3,-1
 58 531 l 1,4,-1
 47 665 l 1,5,-1
 47 732 l 1,0,-1
EndSplineSet
Substitution2: "'smcp' Lowercase to Small Capitals lookup 1 subtable" quotesingle.smcp
EndChar

StartChar: parenleft
Encoding: 40 40 11
Width: 362
GlyphClass: 2
Flags: W
LayerCount: 2
Fore
SplineSet
81.5 138 m 128,-1,1
 63 230 63 230 63 321 c 128,-1,2
 63 412 63 412 80.5 498.5 c 128,-1,3
 98 585 98 585 123 647 c 0,4,5
 175 776 175 776 215 835 c 1,6,-1
 233 860 l 1,7,-1
 345 860 l 1,8,9
 322 825 322 825 290.5 759.5 c 128,-1,10
 259 694 259 694 237 634 c 128,-1,11
 215 574 215 574 197 489 c 128,-1,12
 179 404 179 404 179 334 c 128,-1,13
 179 264 179 264 188.5 200.5 c 128,-1,14
 198 137 198 137 212.5 86 c 128,-1,15
 227 35 227 35 244.5 -12.5 c 128,-1,16
 262 -60 262 -60 280 -96 c 0,17,18
 317 -168 317 -168 336 -197 c 2,19,-1
 345 -210 l 1,20,-1
 233 -210 l 1,21,22
 210 -183 210 -183 177.5 -126 c 128,-1,23
 145 -69 145 -69 122.5 -11.5 c 128,-1,0
 100 46 100 46 81.5 138 c 128,-1,1
EndSplineSet
Substitution2: "'case' Case-Sensitive Forms lookup 18 subtable" parenleft.alt
Substitution2: "'c2sc' Capitals to Small Capitals in Latin lookup 2 subtable" parenleft.smcp
Substitution2: "'smcp' Lowercase to Small Capitals lookup 1 subtable" parenleft.smcp
EndChar

StartChar: parenright
Encoding: 41 41 12
Width: 362
GlyphClass: 2
Flags: W
LayerCount: 2
Fore
SplineSet
165 152.5 m 128,-1,1
 183 240 183 240 183 322 c 128,-1,2
 183 404 183 404 166 487.5 c 128,-1,3
 149 571 149 571 124 635 c 0,4,5
 74 767 74 767 34 832 c 2,6,-1
 17 860 l 1,7,-1
 129 860 l 1,8,9
 153 828 153 828 185.5 766.5 c 128,-1,10
 218 705 218 705 240 646 c 128,-1,11
 262 587 262 587 280.5 499.5 c 128,-1,12
 299 412 299 412 299 321 c 128,-1,13
 299 230 299 230 281.5 139 c 128,-1,14
 264 48 264 48 239 -12 c 0,15,16
 188 -137 188 -137 147 -188 c 2,17,-1
 129 -210 l 1,18,-1
 17 -210 l 1,19,20
 40 -178 40 -178 71.5 -115.5 c 128,-1,21
 103 -53 103 -53 125 6 c 128,-1,0
 147 65 147 65 165 152.5 c 128,-1,1
EndSplineSet
Substitution2: "'case' Case-Sensitive Forms lookup 18 subtable" parenright.alt
Substitution2: "'c2sc' Capitals to Small Capitals in Latin lookup 2 subtable" parenright.smcp
Substitution2: "'smcp' Lowercase to Small Capitals lookup 1 subtable" parenright.smcp
EndChar

StartChar: asterisk
Encoding: 42 42 13
Width: 432
GlyphClass: 2
Flags: W
LayerCount: 2
Fore
SplineSet
42 566 m 1,0,-1
 42 616 l 1,1,-1
 181 642 l 1,2,-1
 186 561 l 1,3,-1
 42 566 l 1,0,-1
103 415 m 1,4,-1
 128 551 l 1,5,-1
 206 532 l 1,6,-1
 151 400 l 1,7,-1
 103 415 l 1,4,-1
169 719 m 1,8,-1
 218 737 l 1,9,-1
 288 616 l 1,10,-1
 213 584 l 1,11,-1
 169 719 l 1,8,-1
197 470 m 1,12,-1
 241 538 l 1,13,-1
 353 448 l 1,14,-1
 324 407 l 1,15,-1
 197 470 l 1,12,-1
244 571 m 1,16,-1
 363 649 l 1,17,-1
 390 606 l 1,18,-1
 295 509 l 1,19,-1
 244 571 l 1,16,-1
EndSplineSet
Substitution2: "'smcp' Lowercase to Small Capitals lookup 1 subtable" asterisk.smcp
EndChar

StartChar: plus
Encoding: 43 43 14
Width: 495
GlyphClass: 2
Flags: W
LayerCount: 2
Fore
SplineSet
40 305 m 1,0,-1
 40 407 l 1,1,-1
 196 407 l 1,2,-1
 196 564 l 1,3,-1
 298 564 l 1,4,-1
 298 407 l 1,5,-1
 456 407 l 1,6,-1
 456 305 l 1,7,-1
 298 305 l 1,8,-1
 298 148 l 1,9,-1
 196 148 l 1,10,-1
 196 305 l 1,11,-1
 40 305 l 1,0,-1
EndSplineSet
EndChar

StartChar: comma
Encoding: 44 44 15
Width: 264
GlyphClass: 2
Flags: W
LayerCount: 2
Fore
SplineSet
193 -11 m 2,0,1
 193 -92 193 -92 105 -92 c 0,2,3
 96 -92 96 -92 89 -90 c 2,4,-1
 77 -88 l 1,5,-1
 77 -46 l 1,6,7
 91 -46 91 -46 98 -41 c 0,8,9
 108 -34 108 -34 108 -18 c 2,10,-1
 108 0 l 1,11,-1
 97 0 l 2,12,13
 86 0 86 0 79 6.5 c 128,-1,14
 72 13 72 13 72 25 c 2,15,-1
 72 100 l 2,16,17
 72 127 72 127 97 127 c 2,18,-1
 169 127 l 2,19,20
 193 127 193 127 193 100 c 2,21,-1
 193 -11 l 2,0,1
EndSplineSet
EndChar

StartChar: hyphen
Encoding: 45 45 16
Width: 354
GlyphClass: 2
Flags: W
LayerCount: 2
Fore
SplineSet
20 239 m 1,0,-1
 20 341 l 1,1,-1
 334 341 l 1,2,-1
 334 239 l 1,3,-1
 20 239 l 1,0,-1
EndSplineSet
Substitution2: "'case' Case-Sensitive Forms lookup 18 subtable" hyphen.alt
Substitution2: "'c2sc' Capitals to Small Capitals in Latin lookup 2 subtable" hyphen.smcp
Substitution2: "'smcp' Lowercase to Small Capitals lookup 1 subtable" hyphen.smcp
EndChar

StartChar: period
Encoding: 46 46 17
Width: 266
GlyphClass: 2
Flags: W
LayerCount: 2
Fore
SplineSet
72 23 m 2,0,-1
 72 101 l 2,1,2
 72 126 72 126 96 126 c 2,3,-1
 170 126 l 2,4,5
 195 126 195 126 195 101 c 2,6,-1
 195 23 l 2,7,8
 195 0 195 0 170 0 c 2,9,-1
 96 0 l 2,10,11
 85 0 85 0 78.5 6.5 c 128,-1,12
 72 13 72 13 72 23 c 2,0,-1
EndSplineSet
EndChar

StartChar: slash
Encoding: 47 47 18
Width: 435
GlyphClass: 2
Flags: W
LayerCount: 2
Fore
SplineSet
17 -72 m 1,0,-1
 298 770 l 1,1,-1
 419 770 l 1,2,-1
 138 -72 l 1,3,-1
 17 -72 l 1,0,-1
EndSplineSet
Substitution2: "'numr' Numerators in Latin lookup 13 subtable" fraction
Substitution2: "'frac' Diagonal Fractions lookup 6 subtable" fraction
EndChar

StartChar: zero
Encoding: 48 48 19
Width: 635
GlyphClass: 2
Flags: W
LayerCount: 2
Fore
SplineSet
59 172 m 2,0,-1
 59 556 l 2,1,2
 59 641 59 641 108 686.5 c 128,-1,3
 157 732 157 732 239 732 c 2,4,-1
 403 732 l 2,5,6
 494 732 494 732 535 684 c 128,-1,7
 576 636 576 636 576 560 c 2,8,-1
 576 172 l 2,9,10
 576 86 576 86 530.5 43 c 128,-1,11
 485 0 485 0 403 0 c 2,12,-1
 239 0 l 2,13,14
 156 0 156 0 107.5 43 c 128,-1,15
 59 86 59 86 59 172 c 2,0,-1
175 187 m 2,16,17
 175 144 175 144 199.5 126.5 c 128,-1,18
 224 109 224 109 259 109 c 2,19,-1
 380 109 l 2,20,21
 460 109 460 109 460 186 c 2,22,-1
 460 546 l 2,23,24
 460 623 460 623 383 623 c 2,25,-1
 256 623 l 2,26,27
 213 623 213 623 194 600 c 128,-1,28
 175 577 175 577 175 546 c 2,29,-1
 175 187 l 2,16,17
EndSplineSet
Substitution2: "'dnom' Denominators in Latin lookup 19 subtable" zero.denominator
Substitution2: "'sups' Superscript lookup 17 subtable" zerosuperior
Substitution2: "'onum' Oldstyle Figures in Latin lookup 15 subtable" zero.oldstyle
Substitution2: "'tnum' Tabular Numbers in Latin lookup 14 subtable" zero.tnum
Substitution2: "'numr' Numerators in Latin lookup 13 subtable" zero.numerator
Substitution2: "'zero' Slashed Zero lookup 12 subtable" uni0338
Substitution2: "'sinf' Scientific Inferiors lookup 11 subtable" zeroinferior
Substitution2: "'frac' Diagonal Fractions lookup 5 subtable" zero.numerator
Substitution2: "'smcp' Lowercase to Small Capitals lookup 1 subtable" zero.smcp
EndChar

StartChar: one
Encoding: 49 49 20
Width: 367
GlyphClass: 2
Flags: W
LayerCount: 2
Fore
SplineSet
300 732 m 1,0,-1
 300 0 l 1,1,-1
 184 0 l 1,2,-1
 184 613 l 1,3,-1
 34 571 l 1,4,-1
 34 648 l 1,5,-1
 185 732 l 1,6,-1
 300 732 l 1,0,-1
EndSplineSet
Substitution2: "'dnom' Denominators in Latin lookup 19 subtable" one.denominator
Substitution2: "'sups' Superscript lookup 17 subtable" onesuperior
Substitution2: "'onum' Oldstyle Figures in Latin lookup 15 subtable" one.oldstyle
Substitution2: "'tnum' Tabular Numbers in Latin lookup 14 subtable" one.tnum
Substitution2: "'numr' Numerators in Latin lookup 13 subtable" one.numerator
Substitution2: "'sinf' Scientific Inferiors lookup 11 subtable" oneinferior
Substitution2: "'frac' Diagonal Fractions lookup 5 subtable" one.numerator
Substitution2: "'smcp' Lowercase to Small Capitals lookup 1 subtable" one.smcp
EndChar

StartChar: two
Encoding: 50 50 21
Width: 591
GlyphClass: 2
Flags: W
LayerCount: 2
Fore
SplineSet
34 632 m 1,0,-1
 34 718 l 1,1,2
 185 742 185 742 338 742 c 0,3,4
 446 742 446 742 500 675 c 1,5,6
 549 612 549 612 549 522 c 0,7,8
 549 457 549 457 511 390 c 0,9,10
 470 319 470 319 432.5 279 c 128,-1,11
 395 239 395 239 371 216 c 128,-1,12
 347 193 347 193 320 170 c 0,13,14
 276 133 276 133 244 109 c 1,15,-1
 549 109 l 1,16,-1
 549 0 l 1,17,-1
 41 0 l 1,18,-1
 41 103 l 1,19,20
 101 143 101 143 167 195.5 c 128,-1,21
 233 248 233 248 274.5 287.5 c 128,-1,22
 316 327 316 327 353 368 c 0,23,24
 433 457 433 457 433 522 c 0,25,26
 433 632 433 632 309 632 c 2,27,-1
 34 632 l 1,0,-1
EndSplineSet
Substitution2: "'dnom' Denominators in Latin lookup 19 subtable" two.denominator
Substitution2: "'sups' Superscript lookup 17 subtable" twosuperior
Substitution2: "'onum' Oldstyle Figures in Latin lookup 15 subtable" two.oldstyle
Substitution2: "'tnum' Tabular Numbers in Latin lookup 14 subtable" two.tnum
Substitution2: "'numr' Numerators in Latin lookup 13 subtable" two.numerator
Substitution2: "'sinf' Scientific Inferiors lookup 11 subtable" twoinferior
Substitution2: "'frac' Diagonal Fractions lookup 5 subtable" two.numerator
Substitution2: "'smcp' Lowercase to Small Capitals lookup 1 subtable" two.smcp
EndChar

StartChar: three
Encoding: 51 51 22
Width: 587
GlyphClass: 2
Flags: W
LayerCount: 2
Fore
SplineSet
340 -7 m 2,0,-1
 282 -7 l 2,1,2
 269 -7 269 -7 263 -7 c 128,-1,3
 257 -7 257 -7 230 -6.5 c 128,-1,4
 203 -6 203 -6 192.5 -5.5 c 128,-1,5
 182 -5 182 -5 159.5 -3.5 c 128,-1,6
 137 -2 137 -2 124.5 0 c 128,-1,7
 112 2 112 2 94 5 c 0,8,9
 64 10 64 10 31 21 c 1,10,-1
 32 103 l 1,11,-1
 302 103 l 2,12,13
 357 103 357 103 382 117 c 128,-1,14
 407 131 407 131 407 180 c 2,15,-1
 407 222 l 2,16,17
 407 254 407 254 393.5 273.5 c 128,-1,18
 380 293 380 293 360 300 c 128,-1,19
 340 307 340 307 308 308 c 2,20,-1
 93 316 l 1,21,-1
 93 408 l 1,22,-1
 308 418 l 2,23,24
 361 421 361 421 385 440 c 128,-1,25
 409 459 409 459 409 500 c 2,26,-1
 409 548 l 2,27,28
 409 625 409 625 308 625 c 2,29,-1
 25 625 l 1,30,-1
 25 706 l 1,31,32
 106 735 106 735 241 735 c 0,33,34
 291 735 291 735 347 734 c 0,35,36
 429 733 429 733 476.5 686 c 128,-1,37
 524 639 524 639 524 562 c 2,38,-1
 524 504 l 2,39,40
 524 392 524 392 452 364 c 1,41,42
 524 329 524 329 524 217 c 2,43,-1
 524 168 l 2,44,45
 524 83 524 83 477.5 38 c 128,-1,46
 431 -7 431 -7 340 -7 c 2,0,-1
EndSplineSet
Substitution2: "'dnom' Denominators in Latin lookup 19 subtable" three.denominator
Substitution2: "'sups' Superscript lookup 17 subtable" threesuperior
Substitution2: "'onum' Oldstyle Figures in Latin lookup 15 subtable" three.oldstyle
Substitution2: "'tnum' Tabular Numbers in Latin lookup 14 subtable" three.tnum
Substitution2: "'numr' Numerators in Latin lookup 13 subtable" three.numerator
Substitution2: "'sinf' Scientific Inferiors lookup 11 subtable" threeinferior
Substitution2: "'frac' Diagonal Fractions lookup 5 subtable" three.numerator
Substitution2: "'smcp' Lowercase to Small Capitals lookup 1 subtable" three.smcp
EndChar

StartChar: four
Encoding: 52 52 23
Width: 614
GlyphClass: 2
Flags: W
LayerCount: 2
Fore
SplineSet
402 282 m 1,0,-1
 402 464 l 1,1,-1
 435 540 l 1,2,-1
 518 540 l 1,3,-1
 518 282 l 1,4,-1
 597 282 l 1,5,-1
 597 192 l 1,6,-1
 518 170 l 1,7,-1
 518 2 l 1,8,-1
 402 2 l 1,9,-1
 402 170 l 1,10,-1
 51 170 l 1,11,-1
 17 224 l 1,12,-1
 299 732 l 1,13,-1
 429 732 l 1,14,-1
 183 282 l 1,15,-1
 402 282 l 1,0,-1
EndSplineSet
Substitution2: "'dnom' Denominators in Latin lookup 19 subtable" four.denominator
Substitution2: "'sups' Superscript lookup 17 subtable" foursuperior
Substitution2: "'onum' Oldstyle Figures in Latin lookup 15 subtable" four.oldstyle
Substitution2: "'tnum' Tabular Numbers in Latin lookup 14 subtable" four.tnum
Substitution2: "'numr' Numerators in Latin lookup 13 subtable" four.numerator
Substitution2: "'sinf' Scientific Inferiors lookup 11 subtable" fourinferior
Substitution2: "'frac' Diagonal Fractions lookup 5 subtable" four.numerator
Substitution2: "'smcp' Lowercase to Small Capitals lookup 1 subtable" four.smcp
EndChar

StartChar: five
Encoding: 53 53 24
Width: 599
GlyphClass: 2
Flags: W
LayerCount: 2
Fore
SplineSet
189 430 m 1,0,1
 221 459 221 459 307 459 c 0,2,3
 329 459 329 459 354.5 458 c 128,-1,4
 380 457 380 457 384 456 c 0,5,6
 441 455 441 455 479 431 c 0,7,8
 550 387 550 387 550 280 c 2,9,-1
 550 173 l 2,10,11
 550 64 550 64 467 19 c 0,12,13
 424 -4 424 -4 372 -4 c 0,14,15
 270 -4 270 -4 214.5 0 c 128,-1,16
 159 4 159 4 64 20 c 1,17,-1
 64 110 l 1,18,-1
 354 110 l 2,19,20
 434 110 434 110 434 189 c 2,21,-1
 434 271 l 2,22,23
 434 301 434 301 428.5 312 c 128,-1,24
 423 323 423 323 417.5 330 c 128,-1,25
 412 337 412 337 404 341 c 0,26,27
 387 351 387 351 358 351 c 2,28,-1
 243 351 l 2,29,30
 213 351 213 351 193.5 335 c 128,-1,31
 174 319 174 319 174 286 c 1,32,-1
 66 286 l 1,33,-1
 88 732 l 1,34,-1
 524 732 l 1,35,-1
 524 623 l 1,36,-1
 198 623 l 1,37,-1
 189 430 l 1,0,1
EndSplineSet
Substitution2: "'dnom' Denominators in Latin lookup 19 subtable" five.denominator
Substitution2: "'sups' Superscript lookup 17 subtable" fivesuperior
Substitution2: "'onum' Oldstyle Figures in Latin lookup 15 subtable" five.oldstyle
Substitution2: "'tnum' Tabular Numbers in Latin lookup 14 subtable" five.tnum
Substitution2: "'numr' Numerators in Latin lookup 13 subtable" five.numerator
Substitution2: "'sinf' Scientific Inferiors lookup 11 subtable" fiveinferior
Substitution2: "'frac' Diagonal Fractions lookup 5 subtable" five.numerator
Substitution2: "'smcp' Lowercase to Small Capitals lookup 1 subtable" five.smcp
EndChar

StartChar: six
Encoding: 54 54 25
Width: 613
GlyphClass: 2
Flags: W
LayerCount: 2
Fore
SplineSet
64.5 223.5 m 128,-1,1
 55 292 55 292 55 385.5 c 128,-1,2
 55 479 55 479 69.5 549.5 c 128,-1,3
 84 620 84 620 110 658 c 1,4,5
 158 732 158 732 227 736 c 0,6,7
 259 738 259 738 293 738 c 0,8,9
 409 738 409 738 540 717 c 1,10,-1
 540 629 l 1,11,-1
 275 629 l 2,12,13
 175 629 175 629 171 418 c 1,14,15
 280 438 280 438 396 438 c 0,16,17
 540 438 540 438 560 327 c 0,18,19
 564 304 564 304 564 276 c 2,20,-1
 564 158 l 2,21,22
 564 -1 564 -1 392 -1 c 2,23,-1
 247 -1 l 2,24,25
 211 -1 211 -1 183.5 9 c 128,-1,26
 156 19 156 19 131 44.5 c 128,-1,27
 106 70 106 70 90 112.5 c 128,-1,0
 74 155 74 155 64.5 223.5 c 128,-1,1
171 333 m 1,28,29
 171 249 171 249 178.5 217 c 128,-1,30
 186 185 186 185 193.5 166 c 128,-1,31
 201 147 201 147 212 135 c 0,32,33
 236 108 236 108 273 108 c 2,34,-1
 376 108 l 2,35,36
 413 108 413 108 430.5 121.5 c 128,-1,37
 448 135 448 135 448 177 c 2,38,-1
 448 265 l 2,39,40
 448 304 448 304 430.5 318.5 c 128,-1,41
 413 333 413 333 378 333 c 2,42,-1
 171 333 l 1,28,29
EndSplineSet
Substitution2: "'dnom' Denominators in Latin lookup 19 subtable" six.denominator
Substitution2: "'sups' Superscript lookup 17 subtable" sixsuperior
Substitution2: "'onum' Oldstyle Figures in Latin lookup 15 subtable" six.oldstyle
Substitution2: "'tnum' Tabular Numbers in Latin lookup 14 subtable" six.tnum
Substitution2: "'numr' Numerators in Latin lookup 13 subtable" six.numerator
Substitution2: "'sinf' Scientific Inferiors lookup 11 subtable" sixinferior
Substitution2: "'frac' Diagonal Fractions lookup 5 subtable" six.numerator
Substitution2: "'smcp' Lowercase to Small Capitals lookup 1 subtable" six.smcp
EndChar

StartChar: seven
Encoding: 55 55 26
Width: 551
GlyphClass: 2
Flags: W
LayerCount: 2
Fore
SplineSet
25 623 m 1,0,-1
 25 732 l 1,1,-1
 492 732 l 1,2,-1
 526 674 l 1,3,-1
 274 0 l 1,4,-1
 144 0 l 1,5,-1
 381 623 l 1,6,-1
 25 623 l 1,0,-1
EndSplineSet
Substitution2: "'dnom' Denominators in Latin lookup 19 subtable" seven.denominator
Substitution2: "'sups' Superscript lookup 17 subtable" sevensuperior
Substitution2: "'onum' Oldstyle Figures in Latin lookup 15 subtable" seven.oldstyle
Substitution2: "'tnum' Tabular Numbers in Latin lookup 14 subtable" seven.tnum
Substitution2: "'numr' Numerators in Latin lookup 13 subtable" seven.numerator
Substitution2: "'sinf' Scientific Inferiors lookup 11 subtable" seveninferior
Substitution2: "'frac' Diagonal Fractions lookup 5 subtable" seven.numerator
Substitution2: "'smcp' Lowercase to Small Capitals lookup 1 subtable" seven.smcp
EndChar

StartChar: eight
Encoding: 56 56 27
Width: 628
GlyphClass: 2
Flags: W
LayerCount: 2
Fore
SplineSet
63 163 m 2,0,-1
 63 245 l 2,1,2
 63 335 63 335 145 355 c 1,3,4
 63 388 63 388 63 499 c 2,5,-1
 63 564 l 2,6,7
 63 663 63 663 117 702 c 0,8,9
 165 737 165 737 246 737 c 2,10,-1
 396 737 l 2,11,12
 481 737 481 737 523 696 c 128,-1,13
 565 655 565 655 565 564 c 2,14,-1
 565 506 l 1,15,16
 567 437 567 437 524 405 c 0,17,18
 510 394 510 394 490 390 c 1,19,20
 517 385 517 385 535 359 c 0,21,22
 566 316 566 316 565 255 c 1,23,-1
 565 165 l 2,24,25
 565 0 565 0 395 0 c 2,26,-1
 246 0 l 2,27,28
 92 0 92 0 69 109 c 0,29,30
 63 134 63 134 63 163 c 2,0,-1
179 172 m 2,31,32
 179 138 179 138 198.5 121.5 c 128,-1,33
 218 105 218 105 262 105 c 2,34,-1
 375 105 l 2,35,36
 408 105 408 105 428.5 122 c 128,-1,37
 449 139 449 139 449 172 c 2,38,-1
 449 254 l 2,39,40
 449 288 449 288 429.5 305.5 c 128,-1,41
 410 323 410 323 377 323 c 2,42,-1
 255 323 l 2,43,44
 179 323 179 323 179 254 c 2,45,-1
 179 172 l 2,31,32
179 494 m 2,46,47
 179 455 179 455 201.5 439.5 c 128,-1,48
 224 424 224 424 255 424 c 2,49,-1
 377 424 l 2,50,51
 436 424 436 424 446 468 c 0,52,53
 449 479 449 479 449 494 c 2,54,-1
 449 549 l 2,55,56
 449 609 449 609 415 625 c 0,57,58
 400 631 400 631 375 631 c 2,59,-1
 262 631 l 2,60,61
 218 631 218 631 198.5 616 c 128,-1,62
 179 601 179 601 179 549 c 2,63,-1
 179 494 l 2,46,47
EndSplineSet
Substitution2: "'dnom' Denominators in Latin lookup 19 subtable" eight.denominator
Substitution2: "'sups' Superscript lookup 17 subtable" eightsuperior
Substitution2: "'onum' Oldstyle Figures in Latin lookup 15 subtable" eight.oldstyle
Substitution2: "'tnum' Tabular Numbers in Latin lookup 14 subtable" eight.tnum
Substitution2: "'numr' Numerators in Latin lookup 13 subtable" eight.numerator
Substitution2: "'sinf' Scientific Inferiors lookup 11 subtable" eightinferior
Substitution2: "'frac' Diagonal Fractions lookup 5 subtable" eight.numerator
Substitution2: "'smcp' Lowercase to Small Capitals lookup 1 subtable" eight.smcp
EndChar

StartChar: nine
Encoding: 57 57 28
Width: 613
GlyphClass: 2
Flags: W
LayerCount: 2
Fore
SplineSet
51 460 m 2,0,-1
 51 577 l 2,1,2
 51 736 51 736 222 736 c 2,3,-1
 368 736 l 2,4,5
 404 736 404 736 431.5 726.5 c 128,-1,6
 459 717 459 717 484 691 c 128,-1,7
 509 665 509 665 525 623 c 0,8,9
 559 531 559 531 559 351 c 0,10,11
 559 89 559 89 451 20 c 0,12,13
 422 1 422 1 383.5 -1 c 128,-1,14
 345 -3 345 -3 304 -3 c 0,15,16
 180 -3 180 -3 75 19 c 1,17,-1
 75 106 l 1,18,-1
 339 106 l 2,19,20
 440 106 440 106 443 318 c 1,21,22
 334 297 334 297 219 297 c 0,23,24
 118 297 118 297 82 345 c 1,25,26
 51 388 51 388 51 460 c 2,0,-1
166 470 m 2,27,28
 166 432 166 432 184 417 c 128,-1,29
 202 402 202 402 237 402 c 2,30,-1
 443 402 l 1,31,32
 443 507 443 507 428 552 c 0,33,34
 410 603 410 603 382 618 c 0,35,36
 364 627 364 627 341 627 c 2,37,-1
 238 627 l 2,38,39
 201 627 201 627 183.5 613.5 c 128,-1,40
 166 600 166 600 166 558 c 2,41,-1
 166 470 l 2,27,28
EndSplineSet
Substitution2: "'dnom' Denominators in Latin lookup 19 subtable" nine.denominator
Substitution2: "'sups' Superscript lookup 17 subtable" ninesuperior
Substitution2: "'onum' Oldstyle Figures in Latin lookup 15 subtable" nine.oldstyle
Substitution2: "'tnum' Tabular Numbers in Latin lookup 14 subtable" nine.tnum
Substitution2: "'numr' Numerators in Latin lookup 13 subtable" nine.numerator
Substitution2: "'sinf' Scientific Inferiors lookup 11 subtable" nineinferior
Substitution2: "'frac' Diagonal Fractions lookup 5 subtable" nine.numerator
Substitution2: "'smcp' Lowercase to Small Capitals lookup 1 subtable" nine.smcp
EndChar

StartChar: colon
Encoding: 58 58 29
Width: 266
GlyphClass: 2
Flags: W
LayerCount: 2
Fore
SplineSet
72 23 m 2,0,-1
 72 101 l 2,1,2
 72 126 72 126 96 126 c 2,3,-1
 170 126 l 2,4,5
 195 126 195 126 195 101 c 2,6,-1
 195 23 l 2,7,8
 195 0 195 0 170 0 c 2,9,-1
 96 0 l 2,10,11
 85 0 85 0 78.5 6.5 c 128,-1,12
 72 13 72 13 72 23 c 2,0,-1
72 429 m 2,13,-1
 72 507 l 2,14,15
 72 532 72 532 96 532 c 2,16,-1
 170 532 l 2,17,18
 195 532 195 532 195 507 c 2,19,-1
 195 429 l 2,20,21
 195 406 195 406 170 406 c 2,22,-1
 96 406 l 2,23,24
 81 406 81 406 76.5 414 c 128,-1,25
 72 422 72 422 72 429 c 2,13,-1
EndSplineSet
EndChar

StartChar: semicolon
Encoding: 59 59 30
Width: 268
GlyphClass: 2
Flags: W
LayerCount: 2
Fore
SplineSet
193 -11 m 2,0,1
 193 -92 193 -92 105 -92 c 0,2,3
 96 -92 96 -92 89 -90 c 2,4,-1
 77 -88 l 1,5,-1
 77 -46 l 1,6,7
 91 -46 91 -46 98 -41 c 0,8,9
 108 -34 108 -34 108 -18 c 2,10,-1
 108 0 l 1,11,-1
 97 0 l 2,12,13
 87 0 87 0 79.5 7.5 c 128,-1,14
 72 15 72 15 72 25 c 2,15,-1
 72 100 l 2,16,17
 72 112 72 112 79 119.5 c 128,-1,18
 86 127 86 127 97 127 c 2,19,-1
 169 127 l 2,20,21
 193 127 193 127 193 100 c 2,22,-1
 193 -11 l 2,0,1
73 429 m 2,23,-1
 73 507 l 2,24,25
 73 532 73 532 97 532 c 2,26,-1
 171 532 l 2,27,28
 196 532 196 532 196 507 c 2,29,-1
 196 429 l 2,30,31
 196 406 196 406 171 406 c 2,32,-1
 97 406 l 2,33,34
 83 406 83 406 78 414 c 128,-1,35
 73 422 73 422 73 429 c 2,23,-1
EndSplineSet
EndChar

StartChar: less
Encoding: 60 60 31
Width: 459
GlyphClass: 2
Flags: W
LayerCount: 2
Fore
SplineSet
42 297 m 1,0,-1
 42 409 l 1,1,-1
 417 559 l 1,2,-1
 417 448 l 1,3,-1
 173 354 l 1,4,-1
 417 249 l 1,5,-1
 417 136 l 1,6,-1
 42 297 l 1,0,-1
EndSplineSet
EndChar

StartChar: equal
Encoding: 61 61 32
Width: 467
GlyphClass: 2
Flags: W
LayerCount: 2
Fore
SplineSet
20 194 m 1,0,-1
 20 296 l 1,1,-1
 447 296 l 1,2,-1
 447 194 l 1,3,-1
 20 194 l 1,0,-1
20 407 m 1,4,-1
 20 509 l 1,5,-1
 447 509 l 1,6,-1
 447 407 l 1,7,-1
 20 407 l 1,4,-1
EndSplineSet
EndChar

StartChar: greater
Encoding: 62 62 33
Width: 459
GlyphClass: 2
Flags: W
LayerCount: 2
Fore
SplineSet
42 136 m 1,0,-1
 42 249 l 1,1,-1
 286 354 l 1,2,-1
 42 448 l 1,3,-1
 42 560 l 1,4,-1
 417 409 l 1,5,-1
 417 297 l 1,6,-1
 42 136 l 1,0,-1
EndSplineSet
EndChar

StartChar: question
Encoding: 63 63 34
Width: 542
GlyphClass: 2
Flags: W
LayerCount: 2
Fore
SplineSet
17 629 m 1,0,-1
 17 716 l 1,1,2
 160 740 160 740 252 740 c 0,3,4
 275 740 275 740 299 739 c 1,5,6
 454 739 454 739 497 619 c 1,7,8
 508 585 508 585 508 547 c 2,9,-1
 508 464 l 2,10,11
 508 364 508 364 448 320 c 0,12,13
 400 286 400 286 322 286 c 0,14,15
 300 286 300 286 276 289 c 1,16,-1
 276 195 l 1,17,-1
 176 195 l 1,18,-1
 176 378 l 1,19,-1
 301 378 l 1,20,21
 342 380 342 380 367.5 400.5 c 128,-1,22
 393 421 393 421 393 465 c 2,23,-1
 393 536 l 2,24,25
 393 585 393 585 364.5 607 c 128,-1,26
 336 629 336 629 274 629 c 2,27,-1
 17 629 l 1,0,-1
165 23 m 2,28,-1
 165 101 l 2,29,30
 165 126 165 126 189 126 c 2,31,-1
 264 126 l 2,32,33
 288 126 288 126 288 101 c 2,34,-1
 288 23 l 2,35,36
 288 0 288 0 264 0 c 2,37,-1
 189 0 l 2,38,39
 178 0 178 0 171.5 6.5 c 128,-1,40
 165 13 165 13 165 23 c 2,28,-1
EndSplineSet
Substitution2: "'smcp' Lowercase to Small Capitals lookup 1 subtable" question.smcp
EndChar

StartChar: at
Encoding: 64 64 35
Width: 859
GlyphClass: 2
Flags: W
LayerCount: 2
Fore
SplineSet
248 512 m 2,0,-1
 448 512 l 2,1,2
 615 512 615 512 615 362 c 2,3,-1
 615 0 l 1,4,-1
 537 0 l 1,5,-1
 520 60 l 1,6,7
 520 60 520 60 511.5 53 c 128,-1,8
 503 46 503 46 487.5 36 c 128,-1,9
 472 26 472 26 453 16 c 0,10,11
 407 -9 407 -9 352 -9 c 128,-1,12
 297 -9 297 -9 262.5 28 c 128,-1,13
 228 65 228 65 228 118 c 2,14,-1
 228 164 l 2,15,16
 228 252 228 252 292 285 c 0,17,18
 324 301 324 301 368 301 c 2,19,-1
 518 301 l 1,20,21
 518 328 518 328 518 342 c 128,-1,22
 518 356 518 356 518 356 c 2,23,24
 518 390 518 390 501.5 402 c 128,-1,25
 485 414 485 414 448 414 c 2,26,-1
 248 414 l 2,27,28
 178 414 178 414 161 371 c 0,29,30
 154 352 154 352 154 324 c 2,31,-1
 154 14 l 2,32,33
 154 -70 154 -70 216 -88 c 0,34,35
 231 -92 231 -92 248 -92 c 2,36,-1
 586 -92 l 2,37,38
 645 -92 645 -92 667 -66 c 128,-1,39
 689 -40 689 -40 689 14 c 2,40,-1
 689 491 l 2,41,42
 689 547 689 547 661 577 c 128,-1,43
 633 607 633 607 586 607 c 2,44,-1
 182 607 l 1,45,-1
 182 678 l 1,46,47
 230 688 230 688 310.5 696.5 c 128,-1,48
 391 705 391 705 433 705 c 128,-1,49
 475 705 475 705 481 705 c 2,50,-1
 586 705 l 1,51,52
 675 704 675 704 731.5 651.5 c 128,-1,53
 788 599 788 599 788 491 c 2,54,-1
 788 14 l 2,55,56
 788 -192 788 -192 590 -192 c 2,57,-1
 248 -192 l 2,58,59
 161 -192 161 -192 108 -142.5 c 128,-1,60
 55 -93 55 -93 55 7 c 2,61,-1
 55 327 l 2,62,63
 55 418 55 418 106 467 c 0,64,65
 126 486 126 486 162.5 499 c 128,-1,66
 199 512 199 512 248 512 c 2,0,-1
381 89 m 0,67,68
 382 89 382 89 383 89 c 128,-1,69
 384 89 384 89 385 89 c 0,70,71
 451 89 451 89 518 136 c 1,72,-1
 518 232 l 1,73,-1
 380 219 l 2,74,75
 329 214 329 214 330 165 c 1,76,77
 330 165 330 165 330 149 c 128,-1,78
 330 133 330 133 330 132 c 0,79,80
 330 115 330 115 345 102 c 128,-1,81
 360 89 360 89 381 89 c 0,67,68
EndSplineSet
Substitution2: "'case' Case-Sensitive Forms lookup 18 subtable" at.alt
Substitution2: "'smcp' Lowercase to Small Capitals lookup 1 subtable" at.smcp
EndChar

StartChar: A
Encoding: 65 65 36
Width: 684
GlyphClass: 2
Flags: W
LayerCount: 2
Fore
SplineSet
38 0 m 1,0,-1
 293 732 l 1,1,-1
 421 732 l 1,2,-1
 666 0 l 1,3,-1
 539 0 l 1,4,-1
 483 177 l 1,5,-1
 224 177 l 1,6,-1
 167 0 l 1,7,-1
 38 0 l 1,0,-1
257 283 m 1,8,-1
 453 283 l 1,9,-1
 357 574 l 1,10,-1
 257 283 l 1,8,-1
EndSplineSet
Substitution2: "'c2sc' Capitals to Small Capitals in Latin lookup 2 subtable" a.smcp
EndChar

StartChar: B
Encoding: 66 66 37
Width: 601
GlyphClass: 2
Flags: W
LayerCount: 2
Fore
SplineSet
362 732 m 2,0,1
 513 732 513 732 552 610 c 0,2,3
 563 577 563 577 563 528.5 c 128,-1,4
 563 480 563 480 539.5 435.5 c 128,-1,5
 516 391 516 391 466 380 c 1,6,7
 510 371 510 371 541 326.5 c 128,-1,8
 572 282 572 282 572 211 c 0,9,10
 572 0 572 0 364 0 c 2,11,-1
 68 0 l 1,12,-1
 68 732 l 1,13,-1
 362 732 l 2,0,1
184 106 m 1,14,-1
 361 106 l 2,15,16
 456 106 456 106 456 216 c 0,17,18
 456 266 456 266 432.5 299 c 128,-1,19
 409 332 409 332 361 332 c 2,20,-1
 184 332 l 1,21,-1
 184 106 l 1,14,-1
184 434 m 1,22,-1
 357 434 l 2,23,24
 402 434 402 434 425 459 c 128,-1,25
 448 484 448 484 448 534 c 128,-1,26
 448 584 448 584 421.5 605 c 128,-1,27
 395 626 395 626 357 626 c 2,28,-1
 184 626 l 1,29,-1
 184 434 l 1,22,-1
EndSplineSet
Substitution2: "'c2sc' Capitals to Small Capitals in Latin lookup 2 subtable" b.smcp
EndChar

StartChar: C
Encoding: 67 67 38
Width: 574
GlyphClass: 2
Flags: W
LayerCount: 2
Fore
SplineSet
54.5 242 m 128,-1,1
 47 298 47 298 47 370 c 128,-1,2
 47 442 47 442 53.5 497 c 128,-1,3
 60 552 60 552 76.5 599.5 c 128,-1,4
 93 647 93 647 121 677 c 0,5,6
 179 740 179 740 303.5 740 c 128,-1,7
 428 740 428 740 545 710 c 1,8,-1
 545 619 l 1,9,10
 545 619 545 619 537 619.5 c 128,-1,11
 529 620 529 620 515.5 621 c 128,-1,12
 502 622 502 622 484 623.5 c 128,-1,13
 466 625 466 625 445 626 c 128,-1,14
 424 627 424 627 402 629 c 1,15,16
 354 631 354 631 316.5 631 c 128,-1,17
 279 631 279 631 256 625.5 c 128,-1,18
 233 620 233 620 213.5 604 c 128,-1,19
 194 588 194 588 184 558 c 0,20,21
 163 496 163 496 163 364.5 c 128,-1,22
 163 233 163 233 196 168 c 128,-1,23
 229 103 229 103 315 103 c 0,24,25
 408 103 408 103 511 109 c 2,26,-1
 545 111 l 1,27,-1
 545 20 l 1,28,29
 447 -6 447 -6 312 -6 c 0,30,31
 240 -6 240 -6 197.5 11.5 c 128,-1,32
 155 29 155 29 126.5 60.5 c 128,-1,33
 98 92 98 92 80 139 c 128,-1,0
 62 186 62 186 54.5 242 c 128,-1,1
EndSplineSet
Substitution2: "'c2sc' Capitals to Small Capitals in Latin lookup 2 subtable" c.smcp
EndChar

StartChar: D
Encoding: 68 68 39
Width: 660
GlyphClass: 2
Flags: W
LayerCount: 2
Fore
SplineSet
68 0 m 1,0,-1
 68 732 l 1,1,-1
 365 732 l 2,2,3
 621 732 621 732 621 363 c 0,4,5
 621 208 621 208 562 108 c 0,6,7
 532 57 532 57 481.5 28.5 c 128,-1,8
 431 0 431 0 365 0 c 2,9,-1
 68 0 l 1,0,-1
184 107 m 1,10,-1
 358 107 l 2,11,12
 409 107 409 107 442 141 c 0,13,14
 505 204 505 204 505 364 c 0,15,16
 505 554 505 554 437 604 c 0,17,18
 406 626 406 626 358 626 c 2,19,-1
 184 626 l 1,20,-1
 184 107 l 1,10,-1
EndSplineSet
Substitution2: "'c2sc' Capitals to Small Capitals in Latin lookup 2 subtable" d.smcp
EndChar

StartChar: E
Encoding: 69 69 40
Width: 567
GlyphClass: 2
Flags: W
LayerCount: 2
Fore
SplineSet
132 716 m 0,0,1
 152 726 152 726 170 729 c 128,-1,2
 188 732 188 732 199 732 c 128,-1,3
 210 732 210 732 351 727 c 128,-1,4
 492 722 492 722 533 716 c 1,5,-1
 533 621 l 1,6,-1
 234 621 l 2,7,8
 197 621 197 621 188 603 c 0,9,10
 182 589 182 589 182 565 c 2,11,-1
 182 420 l 1,12,-1
 489 410 l 1,13,-1
 489 315 l 1,14,-1
 182 305 l 1,15,-1
 182 160 l 1,16,17
 183 118 183 118 210 111 c 0,18,19
 223 108 223 108 244 108 c 2,20,-1
 533 108 l 1,21,-1
 533 14 l 1,22,23
 501 10 501 10 292 0 c 2,24,-1
 223 -3 l 2,25,26
 215 -3 215 -3 204.5 -3 c 128,-1,27
 194 -3 194 -3 178 -1.5 c 128,-1,28
 162 0 162 0 140 8.5 c 128,-1,29
 118 17 118 17 102 31 c 0,30,31
 66 65 66 65 66 136 c 2,32,-1
 66 588 l 2,33,34
 66 682 66 682 132 716 c 0,0,1
EndSplineSet
Substitution2: "'c2sc' Capitals to Small Capitals in Latin lookup 2 subtable" e.smcp
EndChar

StartChar: F
Encoding: 70 70 41
Width: 567
GlyphClass: 2
Flags: W
LayerCount: 2
Fore
SplineSet
206 732 m 0,0,1
 210 732 210 732 351 727 c 128,-1,2
 492 722 492 722 533 716 c 1,3,-1
 533 621 l 1,4,-1
 234 621 l 2,5,6
 197 621 197 621 188 603 c 0,7,8
 182 589 182 589 182 565 c 2,9,-1
 182 420 l 1,10,-1
 489 410 l 1,11,-1
 489 315 l 1,12,-1
 182 305 l 1,13,-1
 182 0 l 1,14,-1
 66 0 l 1,15,-1
 66 587 l 2,16,17
 66 664 66 664 107.5 698 c 128,-1,18
 149 732 149 732 206 732 c 0,0,1
EndSplineSet
Substitution2: "'c2sc' Capitals to Small Capitals in Latin lookup 2 subtable" f.smcp
EndChar

StartChar: G
Encoding: 71 71 42
Width: 614
GlyphClass: 2
Flags: W
LayerCount: 2
Fore
SplineSet
454 49 m 1,0,1
 384 -5 384 -5 275 -5 c 0,2,3
 157 -5 157 -5 104 74 c 1,4,5
 57 146 57 146 49 283 c 0,6,7
 47 321 47 321 47 379 c 128,-1,8
 47 437 47 437 52 488.5 c 128,-1,9
 57 540 57 540 72.5 589.5 c 128,-1,10
 88 639 88 639 114 670 c 0,11,12
 171 740 171 740 284 740 c 0,13,14
 423 740 423 740 555 709 c 1,15,-1
 555 619 l 1,16,17
 554 619 554 619 537.5 620.5 c 128,-1,18
 521 622 521 622 495 624.5 c 128,-1,19
 469 627 469 627 439 629 c 0,20,21
 365 634 365 634 305 634 c 0,22,23
 219 634 219 634 191 575 c 128,-1,24
 163 516 163 516 163 365.5 c 128,-1,25
 163 215 163 215 191 161 c 0,26,27
 220 105 220 105 304 105 c 0,28,29
 335 105 335 105 372 116 c 128,-1,30
 409 127 409 127 430 139 c 2,31,-1
 452 151 l 1,32,-1
 452 307 l 1,33,-1
 326 307 l 1,34,-1
 326 381 l 1,35,36
 393 406 393 406 500 406 c 0,37,38
 532 406 532 406 568 403 c 1,39,-1
 568 0 l 1,40,-1
 484 0 l 1,41,-1
 454 49 l 1,0,1
EndSplineSet
Substitution2: "'c2sc' Capitals to Small Capitals in Latin lookup 2 subtable" g.smcp
EndChar

StartChar: H
Encoding: 72 72 43
Width: 637
GlyphClass: 2
Flags: W
LayerCount: 2
Fore
SplineSet
68 0 m 1,0,-1
 68 732 l 1,1,-1
 184 732 l 1,2,-1
 184 408 l 1,3,-1
 471 408 l 1,4,-1
 471 732 l 1,5,-1
 587 732 l 1,6,-1
 587 0 l 1,7,-1
 471 0 l 1,8,-1
 471 300 l 1,9,-1
 184 300 l 1,10,-1
 184 0 l 1,11,-1
 68 0 l 1,0,-1
EndSplineSet
Substitution2: "'c2sc' Capitals to Small Capitals in Latin lookup 2 subtable" h.smcp
EndChar

StartChar: I
Encoding: 73 73 44
Width: 234
GlyphClass: 2
Flags: W
LayerCount: 2
Fore
SplineSet
68 0 m 1,0,-1
 68 732 l 1,1,-1
 184 732 l 1,2,-1
 184 0 l 1,3,-1
 68 0 l 1,0,-1
EndSplineSet
Substitution2: "'c2sc' Capitals to Small Capitals in Latin lookup 2 subtable" i.smcp
EndChar

StartChar: J
Encoding: 74 74 45
Width: 357
GlyphClass: 2
Flags: W
LayerCount: 2
Fore
SplineSet
254 18 m 0,0,1
 217 -5 217 -5 144.5 -5 c 128,-1,2
 72 -5 72 -5 30 22 c 1,3,-1
 32 111 l 1,4,5
 34 111 34 111 46.5 109.5 c 128,-1,6
 59 108 59 108 69 106.5 c 128,-1,7
 79 105 79 105 96.5 104 c 128,-1,8
 114 103 114 103 123 105 c 128,-1,9
 132 107 132 107 145 110 c 128,-1,10
 158 113 158 113 164.5 121 c 128,-1,11
 171 129 171 129 178 139 c 0,12,13
 191 159 191 159 191 204 c 2,14,-1
 191 732 l 1,15,-1
 307 732 l 1,16,-1
 307 165 l 2,17,18
 307 134 307 134 304.5 112 c 128,-1,19
 302 90 302 90 289.5 61.5 c 128,-1,20
 277 33 277 33 254 18 c 0,0,1
EndSplineSet
Substitution2: "'c2sc' Capitals to Small Capitals in Latin lookup 2 subtable" j.smcp
EndChar

StartChar: K
Encoding: 75 75 46
Width: 615
GlyphClass: 2
Flags: W
LayerCount: 2
Fore
SplineSet
68 0 m 1,0,-1
 68 732 l 1,1,-1
 180 732 l 1,2,-1
 180 418 l 1,3,-1
 248 418 l 1,4,-1
 449 732 l 1,5,-1
 586 732 l 1,6,-1
 352 366 l 1,7,-1
 586 0 l 1,8,-1
 449 0 l 1,9,-1
 248 312 l 1,10,-1
 181 312 l 1,11,-1
 181 0 l 1,12,-1
 68 0 l 1,0,-1
EndSplineSet
Substitution2: "'c2sc' Capitals to Small Capitals in Latin lookup 2 subtable" k.smcp
EndChar

StartChar: L
Encoding: 76 76 47
Width: 546
GlyphClass: 2
Flags: W
LayerCount: 2
Fore
SplineSet
68 136 m 2,0,-1
 68 732 l 1,1,-1
 184 732 l 1,2,-1
 184 161 l 2,3,4
 184 123 184 123 205 115 c 0,5,6
 220 109 220 109 246 109 c 2,7,-1
 517 109 l 1,8,-1
 517 0 l 1,9,-1
 214 0 l 2,10,11
 108 0 108 0 80 68 c 0,12,13
 68 96 68 96 68 136 c 2,0,-1
EndSplineSet
Substitution2: "'c2sc' Capitals to Small Capitals in Latin lookup 2 subtable" l.smcp
EndChar

StartChar: M
Encoding: 77 77 48
Width: 830
GlyphClass: 2
Flags: W
LayerCount: 2
Fore
SplineSet
47 0 m 1,0,-1
 105 732 l 1,1,-1
 266 732 l 1,2,-1
 414 192 l 1,3,-1
 560 732 l 1,4,-1
 720 732 l 1,5,-1
 784 0 l 1,6,-1
 670 0 l 1,7,-1
 623 528 l 1,8,-1
 479 0 l 1,9,-1
 352 0 l 1,10,-1
 204 528 l 1,11,-1
 162 0 l 1,12,-1
 47 0 l 1,0,-1
EndSplineSet
AlternateSubs2: "'salt' Stylistic Alternatives in Latin lookup 16 subtable" M.salt
Substitution2: "'c2sc' Capitals to Small Capitals in Latin lookup 2 subtable" m.smcp
EndChar

StartChar: N
Encoding: 78 78 49
Width: 678
GlyphClass: 2
Flags: W
LayerCount: 2
Fore
SplineSet
68 0 m 1,0,-1
 68 732 l 1,1,-1
 186 732 l 1,2,-1
 512 215 l 1,3,-1
 512 732 l 1,4,-1
 628 732 l 1,5,-1
 628 0 l 1,6,-1
 512 0 l 1,7,-1
 185 514 l 1,8,-1
 185 0 l 1,9,-1
 68 0 l 1,0,-1
EndSplineSet
AlternateSubs2: "'salt' Stylistic Alternatives in Latin lookup 16 subtable" N.salt
Substitution2: "'c2sc' Capitals to Small Capitals in Latin lookup 2 subtable" n.smcp
EndChar

StartChar: O
Encoding: 79 79 50
Width: 672
GlyphClass: 2
Flags: W
LayerCount: 2
Fore
SplineSet
60 249.5 m 128,-1,1
 55 299 55 299 55 366 c 128,-1,2
 55 433 55 433 62.5 489.5 c 128,-1,3
 70 546 70 546 83 585.5 c 128,-1,4
 96 625 96 625 117 653 c 128,-1,5
 138 681 138 681 160.5 697 c 128,-1,6
 183 713 183 713 215 722 c 0,7,8
 267 737 267 737 327 737 c 128,-1,9
 387 737 387 737 416.5 734 c 128,-1,10
 446 731 446 731 478.5 722 c 128,-1,11
 511 713 511 713 533 697 c 128,-1,12
 555 681 555 681 575.5 653 c 128,-1,13
 596 625 596 625 608 586 c 0,14,15
 635 499 635 499 635 361 c 0,16,17
 635 160 635 160 578 82 c 0,18,19
 539 29 539 29 482 12 c 0,20,21
 404 -11 404 -11 281 -2 c 0,22,23
 211 3 211 3 182.5 19 c 128,-1,24
 154 35 154 35 133.5 53.5 c 128,-1,25
 113 72 113 72 99.5 99.5 c 128,-1,26
 86 127 86 127 75.5 163.5 c 128,-1,0
 65 200 65 200 60 249.5 c 128,-1,1
173.5 438 m 128,-1,28
 171 404 171 404 171 358.5 c 128,-1,29
 171 313 171 313 173.5 277.5 c 128,-1,30
 176 242 176 242 181.5 214 c 128,-1,31
 187 186 187 186 197 167.5 c 128,-1,32
 207 149 207 149 219.5 136.5 c 128,-1,33
 232 124 232 124 251 117 c 0,34,35
 287 105 287 105 342.5 105 c 128,-1,36
 398 105 398 105 429 114.5 c 128,-1,37
 460 124 460 124 481.5 152 c 128,-1,38
 503 180 503 180 511 229.5 c 128,-1,39
 519 279 519 279 519 344 c 128,-1,40
 519 409 519 409 517 445.5 c 128,-1,41
 515 482 515 482 509 509.5 c 128,-1,42
 503 537 503 537 496.5 557 c 128,-1,43
 490 577 490 577 477.5 590 c 128,-1,44
 465 603 465 603 453.5 610.5 c 128,-1,45
 442 618 442 618 423 622 c 0,46,47
 394 628 394 628 358.5 628 c 128,-1,48
 323 628 323 628 309 627.5 c 128,-1,49
 295 627 295 627 277 624 c 128,-1,50
 259 621 259 621 248.5 616 c 128,-1,51
 238 611 238 611 225 601.5 c 128,-1,52
 212 592 212 592 205 578 c 128,-1,53
 198 564 198 564 190.5 544.5 c 128,-1,54
 183 525 183 525 179.5 498.5 c 128,-1,27
 176 472 176 472 173.5 438 c 128,-1,28
EndSplineSet
Substitution2: "'c2sc' Capitals to Small Capitals in Latin lookup 2 subtable" o.smcp
EndChar

StartChar: P
Encoding: 80 80 51
Width: 594
GlyphClass: 2
Flags: W
LayerCount: 2
Fore
SplineSet
54 0 m 1,0,-1
 54 732 l 1,1,-1
 364 732 l 2,2,3
 467 732 467 732 515 671 c 0,4,5
 557 618 557 618 557 511 c 0,6,7
 557 449 557 449 544 403.5 c 128,-1,8
 531 358 531 358 512.5 334.5 c 128,-1,9
 494 311 494 311 466 298 c 128,-1,10
 438 285 438 285 418.5 282.5 c 128,-1,11
 399 280 399 280 385 280 c 128,-1,12
 371 280 371 280 358 280.5 c 128,-1,13
 345 281 345 281 299 285 c 0,14,15
 177 297 177 297 170 300 c 1,16,-1
 170 0 l 1,17,-1
 54 0 l 1,0,-1
357 625 m 2,18,-1
 170 625 l 1,19,-1
 170 386 l 1,20,-1
 357 386 l 2,21,22
 397 386 397 386 418.5 412 c 128,-1,23
 440 438 440 438 440 510 c 0,24,25
 439 591 439 591 401 614 c 0,26,27
 383 625 383 625 357 625 c 2,18,-1
EndSplineSet
Substitution2: "'c2sc' Capitals to Small Capitals in Latin lookup 2 subtable" p.smcp
EndChar

StartChar: Q
Encoding: 81 81 52
Width: 672
GlyphClass: 2
Flags: W
LayerCount: 2
Fore
SplineSet
60 249.5 m 128,-1,1
 55 299 55 299 55 366 c 128,-1,2
 55 433 55 433 62.5 489.5 c 128,-1,3
 70 546 70 546 82.5 585.5 c 128,-1,4
 95 625 95 625 116 653 c 128,-1,5
 137 681 137 681 159 697 c 128,-1,6
 181 713 181 713 213 722 c 0,7,8
 265 737 265 737 325.5 737 c 128,-1,9
 386 737 386 737 415.5 734 c 128,-1,10
 445 731 445 731 477.5 722 c 128,-1,11
 510 713 510 713 532 697 c 128,-1,12
 554 681 554 681 575 653 c 128,-1,13
 596 625 596 625 608 586 c 0,14,15
 635 499 635 499 635 361 c 0,16,17
 635 160 635 160 577 82 c 0,18,19
 538 29 538 29 481 12 c 0,20,21
 402 -11 402 -11 280 -2 c 0,22,23
 210 3 210 3 181.5 19 c 128,-1,24
 153 35 153 35 132.5 53.5 c 128,-1,25
 112 72 112 72 99 99.5 c 128,-1,26
 86 127 86 127 75.5 163.5 c 128,-1,0
 65 200 65 200 60 249.5 c 128,-1,1
173.5 446 m 128,-1,28
 171 409 171 409 171 351 c 128,-1,29
 171 293 171 293 176.5 249.5 c 128,-1,30
 182 206 182 206 192.5 176 c 128,-1,31
 203 146 203 146 225 131 c 0,32,33
 263 105 263 105 330 105 c 128,-1,34
 397 105 397 105 428 114.5 c 128,-1,35
 459 124 459 124 481 152 c 128,-1,36
 503 180 503 180 511 229.5 c 128,-1,37
 519 279 519 279 519 341 c 128,-1,38
 519 403 519 403 517 437 c 128,-1,39
 515 471 515 471 511.5 497 c 128,-1,40
 508 523 508 523 500.5 543 c 128,-1,41
 493 563 493 563 486 577 c 128,-1,42
 479 591 479 591 466.5 600.5 c 128,-1,43
 454 610 454 610 443 615.5 c 128,-1,44
 432 621 432 621 415 624 c 0,45,46
 387 628 387 628 353 628 c 128,-1,47
 319 628 319 628 303.5 627 c 128,-1,48
 288 626 288 626 268.5 622.5 c 128,-1,49
 249 619 249 619 238 611.5 c 128,-1,50
 227 604 227 604 214.5 591 c 128,-1,51
 202 578 202 578 195 558.5 c 128,-1,52
 188 539 188 539 182 511 c 128,-1,27
 176 483 176 483 173.5 446 c 128,-1,28
540 -159 m 1,53,54
 512 -167 512 -167 481.5 -167 c 128,-1,55
 451 -167 451 -167 421.5 -159 c 128,-1,56
 392 -151 392 -151 367 -135 c 0,57,58
 312 -101 312 -101 306 -33 c 1,59,-1
 376 -33 l 1,60,61
 408 -71 408 -71 465 -71 c 0,62,63
 499 -71 499 -71 540 -58 c 1,64,-1
 540 -159 l 1,53,54
EndSplineSet
Substitution2: "'c2sc' Capitals to Small Capitals in Latin lookup 2 subtable" q.smcp
EndChar

StartChar: R
Encoding: 82 82 53
Width: 602
GlyphClass: 2
Flags: W
LayerCount: 2
Fore
SplineSet
372 732 m 2,0,1
 560 732 560 732 560 507 c 0,2,3
 560 365 560 365 497 320 c 0,4,5
 476 305 476 305 466.5 301.5 c 128,-1,6
 457 298 457 298 440 293 c 1,7,-1
 584 0 l 1,8,-1
 454 0 l 1,9,-1
 321 285 l 1,10,-1
 170 299 l 1,11,-1
 170 0 l 1,12,-1
 54 0 l 1,13,-1
 54 732 l 1,14,-1
 372 732 l 2,0,1
171 393 m 1,15,-1
 363 393 l 2,16,17
 384 393 384 393 396 396.5 c 128,-1,18
 408 400 408 400 420 410 c 0,19,20
 443 431 443 431 443 503.5 c 128,-1,21
 443 576 443 576 422 601 c 128,-1,22
 401 626 401 626 363 626 c 2,23,-1
 171 626 l 1,24,-1
 171 393 l 1,15,-1
EndSplineSet
Substitution2: "'c2sc' Capitals to Small Capitals in Latin lookup 2 subtable" r.smcp
EndChar

StartChar: S
Encoding: 83 83 54
Width: 588
GlyphClass: 2
Flags: W
LayerCount: 2
Fore
SplineSet
175 729 m 128,-1,1
 209 738 209 738 234 738 c 128,-1,2
 259 738 259 738 291 738 c 128,-1,3
 323 738 323 738 403 729.5 c 128,-1,4
 483 721 483 721 524 711 c 1,5,-1
 524 619 l 1,6,7
 482 622 482 622 391 626 c 1,8,9
 297 629 297 629 258 629 c 128,-1,10
 219 629 219 629 195 615 c 128,-1,11
 171 601 171 601 171 546 c 2,12,-1
 171 499 l 2,13,14
 171 450 171 450 191 434.5 c 128,-1,15
 211 419 211 419 258 419 c 2,16,-1
 384 419 l 2,17,18
 512 419 512 419 542 305 c 0,19,20
 551 272 551 272 551 233 c 2,21,-1
 551 177 l 2,22,23
 551 50 551 50 462 12 c 0,24,25
 416 -8 416 -8 348 -8 c 0,26,27
 184 -8 184 -8 78 20 c 1,28,-1
 78 112 l 1,29,30
 188 101 188 101 269 101 c 128,-1,31
 350 101 350 101 365 103 c 128,-1,32
 380 105 380 105 398 112 c 0,33,34
 435 126 435 126 435 174 c 2,35,-1
 435 224 l 2,36,37
 435 262 435 262 419 282.5 c 128,-1,38
 403 303 403 303 363 303 c 2,39,-1
 240 303 l 2,40,41
 191 303 191 303 155.5 316 c 128,-1,42
 120 329 120 329 101 347.5 c 128,-1,43
 82 366 82 366 71 393 c 0,44,45
 55 434 55 434 55 489 c 2,46,-1
 55 553 l 2,47,48
 55 658 55 658 113 700 c 0,49,0
 141 720 141 720 175 729 c 128,-1,1
EndSplineSet
Substitution2: "'c2sc' Capitals to Small Capitals in Latin lookup 2 subtable" s.smcp
EndChar

StartChar: T
Encoding: 84 84 55
Width: 588
GlyphClass: 2
Flags: W
LayerCount: 2
Fore
SplineSet
36 623 m 1,0,-1
 36 732 l 1,1,-1
 565 732 l 1,2,-1
 565 623 l 1,3,-1
 356 623 l 1,4,-1
 356 0 l 1,5,-1
 240 0 l 1,6,-1
 240 623 l 1,7,-1
 36 623 l 1,0,-1
EndSplineSet
Substitution2: "'c2sc' Capitals to Small Capitals in Latin lookup 2 subtable" t.smcp
EndChar

StartChar: U
Encoding: 85 85 56
Width: 669
GlyphClass: 2
Flags: W
LayerCount: 2
Fore
SplineSet
346 -5 m 2,0,-1
 332 -5 l 2,1,2
 213 -5 213 -5 174 20 c 0,3,4
 156 32 156 32 132.5 55.5 c 128,-1,5
 109 79 109 79 97 113 c 0,6,7
 68 197 68 197 68 320 c 2,8,-1
 68 732 l 1,9,-1
 184 732 l 1,10,-1
 184 320 l 2,11,12
 184 218 184 218 202 175 c 0,13,14
 212 151 212 151 223.5 137 c 128,-1,15
 235 123 235 123 256 116 c 0,16,17
 288 104 288 104 333 104 c 128,-1,18
 378 104 378 104 399 108 c 128,-1,19
 420 112 420 112 441.5 124.5 c 128,-1,20
 463 137 463 137 475 160 c 0,21,22
 502 212 502 212 502 320 c 2,23,-1
 502 732 l 1,24,-1
 619 732 l 1,25,-1
 619 320 l 2,26,27
 619 196 619 196 593 133 c 0,28,29
 579 100 579 100 565 75.5 c 128,-1,30
 551 51 551 51 527.5 36.5 c 128,-1,31
 504 22 504 22 486 13 c 128,-1,32
 468 4 468 4 439 0 c 0,33,34
 396 -5 396 -5 346 -5 c 2,0,-1
EndSplineSet
Substitution2: "'c2sc' Capitals to Small Capitals in Latin lookup 2 subtable" u.smcp
EndChar

StartChar: V
Encoding: 86 86 57
Width: 680
GlyphClass: 2
Flags: W
LayerCount: 2
Fore
SplineSet
38 732 m 1,0,-1
 162 732 l 1,1,-1
 344 160 l 1,2,-1
 535 732 l 1,3,-1
 659 732 l 1,4,-1
 408 0 l 1,5,-1
 278 0 l 1,6,-1
 38 732 l 1,0,-1
EndSplineSet
Substitution2: "'c2sc' Capitals to Small Capitals in Latin lookup 2 subtable" v.smcp
EndChar

StartChar: W
Encoding: 87 87 58
Width: 981
GlyphClass: 2
Flags: W
LayerCount: 2
Fore
SplineSet
38 732 m 1,0,-1
 162 732 l 1,1,-1
 343 167 l 1,2,-1
 492 732 l 1,3,-1
 618 732 l 1,4,-1
 561 527 l 1,5,-1
 683 163 l 1,6,-1
 837 732 l 1,7,-1
 961 732 l 1,8,-1
 749 0 l 1,9,-1
 619 0 l 1,10,-1
 507 327 l 1,11,-1
 408 0 l 1,12,-1
 278 0 l 1,13,-1
 38 732 l 1,0,-1
EndSplineSet
Substitution2: "'c2sc' Capitals to Small Capitals in Latin lookup 2 subtable" w.smcp
EndChar

StartChar: X
Encoding: 88 88 59
Width: 625
GlyphClass: 2
Flags: W
LayerCount: 2
Fore
SplineSet
38 732 m 1,0,-1
 166 732 l 1,1,-1
 320 461 l 1,2,-1
 476 732 l 1,3,-1
 604 732 l 1,4,-1
 385 368 l 1,5,-1
 599 0 l 1,6,-1
 471 0 l 1,7,-1
 320 269 l 1,8,-1
 169 0 l 1,9,-1
 41 0 l 1,10,-1
 254 368 l 1,11,-1
 38 732 l 1,0,-1
EndSplineSet
AlternateSubs2: "'salt' Stylistic Alternatives in Latin lookup 16 subtable" X.salt
Substitution2: "'c2sc' Capitals to Small Capitals in Latin lookup 2 subtable" x.smcp
EndChar

StartChar: Y
Encoding: 89 89 60
Width: 647
GlyphClass: 2
Flags: W
LayerCount: 2
Fore
SplineSet
381 0 m 1,0,-1
 265 0 l 1,1,-1
 265 239 l 1,2,-1
 38 732 l 1,3,-1
 164 732 l 1,4,-1
 324 369 l 1,5,-1
 500 732 l 1,6,-1
 626 732 l 1,7,-1
 381 239 l 1,8,-1
 381 0 l 1,0,-1
EndSplineSet
Substitution2: "'c2sc' Capitals to Small Capitals in Latin lookup 2 subtable" y.smcp
EndChar

StartChar: Z
Encoding: 90 90 61
Width: 559
GlyphClass: 2
Flags: W
LayerCount: 2
Fore
SplineSet
30 0 m 1,0,-1
 30 109 l 1,1,-1
 387 623 l 1,2,-1
 30 623 l 1,3,-1
 30 732 l 1,4,-1
 530 732 l 1,5,-1
 530 623 l 1,6,-1
 183 109 l 1,7,-1
 530 109 l 1,8,-1
 530 0 l 1,9,-1
 30 0 l 1,0,-1
EndSplineSet
Substitution2: "'c2sc' Capitals to Small Capitals in Latin lookup 2 subtable" z.smcp
EndChar

StartChar: bracketleft
Encoding: 91 91 62
Width: 329
GlyphClass: 2
Flags: W
LayerCount: 2
Fore
SplineSet
72 -20 m 2,0,-1
 72 660 l 2,1,2
 72 731 72 731 102 782 c 0,3,4
 138 842 138 842 229 842 c 2,5,-1
 313 842 l 1,6,-1
 313 740 l 1,7,-1
 250 740 l 2,8,9
 221 740 221 740 204.5 716.5 c 128,-1,10
 188 693 188 693 188 649 c 2,11,-1
 188 -17 l 2,12,13
 188 -61 188 -61 204.5 -84.5 c 128,-1,14
 221 -108 221 -108 250 -108 c 2,15,-1
 313 -108 l 1,16,-1
 313 -210 l 1,17,-1
 229 -210 l 2,18,19
 162 -210 162 -210 127 -177 c 128,-1,20
 92 -144 92 -144 82 -102 c 0,21,22
 72 -61 72 -61 72 -20 c 2,0,-1
EndSplineSet
EndChar

StartChar: backslash
Encoding: 92 92 63
Width: 435
GlyphClass: 2
Flags: W
LayerCount: 2
Fore
SplineSet
17 770 m 1,0,-1
 138 770 l 1,1,-1
 419 -72 l 1,2,-1
 298 -72 l 1,3,-1
 17 770 l 1,0,-1
EndSplineSet
EndChar

StartChar: bracketright
Encoding: 93 93 64
Width: 329
GlyphClass: 2
Flags: W
LayerCount: 2
Fore
SplineSet
17 -108 m 1,0,-1
 79 -108 l 2,1,2
 108 -108 108 -108 124.5 -84.5 c 128,-1,3
 141 -61 141 -61 141 -17 c 2,4,-1
 141 649 l 2,5,6
 141 693 141 693 124.5 716.5 c 128,-1,7
 108 740 108 740 79 740 c 2,8,-1
 17 740 l 1,9,-1
 17 842 l 1,10,-1
 100 842 l 2,11,12
 192 842 192 842 227 782 c 0,13,14
 257 731 257 731 257 660 c 2,15,-1
 257 -20 l 2,16,17
 257 -115 257 -115 215 -165 c 0,18,19
 199 -184 199 -184 169.5 -197 c 128,-1,20
 140 -210 140 -210 100 -210 c 2,21,-1
 17 -210 l 1,22,-1
 17 -108 l 1,0,-1
EndSplineSet
EndChar

StartChar: asciicircum
Encoding: 94 94 65
Width: 387
GlyphClass: 2
Flags: W
LayerCount: 2
Fore
SplineSet
42 531 m 1,0,-1
 153 664 l 1,1,-1
 245 664 l 1,2,-1
 345 531 l 1,3,-1
 260 531 l 1,4,-1
 197 595 l 1,5,-1
 128 531 l 1,6,-1
 42 531 l 1,0,-1
EndSplineSet
EndChar

StartChar: underscore
Encoding: 95 95 66
Width: 674
GlyphClass: 2
Flags: W
LayerCount: 2
Fore
SplineSet
20 -1 m 1,0,-1
 20 101 l 1,1,-1
 654 101 l 1,2,-1
 654 -1 l 1,3,-1
 20 -1 l 1,0,-1
EndSplineSet
EndChar

StartChar: grave
Encoding: 96 96 67
Width: 242
GlyphClass: 2
Flags: W
LayerCount: 2
Fore
SplineSet
17 668 m 1,0,-1
 129 668 l 1,1,-1
 226 531 l 1,2,-1
 143 531 l 1,3,-1
 17 668 l 1,0,-1
EndSplineSet
Substitution2: "'smcp' Lowercase to Small Capitals lookup 1 subtable" grave.smcp
EndChar

StartChar: a
Encoding: 97 97 68
Width: 519
GlyphClass: 2
Flags: W
LayerCount: 2
Fore
SplineSet
51 508 m 1,0,1
 147 541 147 541 302 541 c 0,2,3
 477 541 477 541 477 377 c 2,4,-1
 477 0 l 1,5,-1
 387 0 l 1,6,-1
 361 61 l 1,7,8
 358 55 358 55 331.5 40 c 128,-1,9
 305 25 305 25 261 9.5 c 128,-1,10
 217 -6 217 -6 180 -6 c 0,11,12
 112 -6 112 -6 73 34 c 128,-1,13
 34 74 34 74 34 132 c 2,14,-1
 34 186 l 2,15,16
 34 248 34 248 71 287.5 c 128,-1,17
 108 327 108 327 189.5 327 c 128,-1,18
 271 327 271 327 316 327 c 128,-1,19
 361 327 361 327 361 327 c 1,20,21
 362 350 362 350 362 361.5 c 128,-1,22
 362 373 362 373 361 373 c 1,23,24
 361 414 361 414 342.5 429 c 128,-1,25
 324 444 324 444 286 444 c 0,26,27
 212 444 212 444 51 433 c 1,28,-1
 51 508 l 1,0,1
150 146 m 2,29,30
 150 115 150 115 164 104 c 128,-1,31
 178 93 178 93 205 93 c 128,-1,32
 232 93 232 93 271.5 104 c 128,-1,33
 311 115 311 115 336 126 c 2,34,-1
 361 137 l 1,35,-1
 361 251 l 1,36,-1
 199 239 l 1,37,38
 150 234 150 234 150 181 c 2,39,-1
 150 146 l 2,29,30
EndSplineSet
AlternateSubs2: "'salt' Stylistic Alternatives in Latin lookup 16 subtable" a.salt
Substitution2: "'smcp' Lowercase to Small Capitals lookup 1 subtable" a.smcp
EndChar

StartChar: b
Encoding: 98 98 69
Width: 555
GlyphClass: 2
Flags: W
LayerCount: 2
Fore
SplineSet
166 785 m 1,0,-1
 166 502 l 1,1,2
 218 525 218 525 267.5 532 c 128,-1,3
 317 539 317 539 346.5 539 c 128,-1,4
 376 539 376 539 404 529.5 c 128,-1,5
 432 520 432 520 451 501.5 c 128,-1,6
 470 483 470 483 482.5 459.5 c 128,-1,7
 495 436 495 436 502 403 c 0,8,9
 514 344 514 344 514 263 c 0,10,11
 514 -6 514 -6 340 -6 c 0,12,13
 296 -6 296 -6 245 14 c 128,-1,14
 194 34 194 34 167 56 c 1,15,-1
 143 0 l 1,16,-1
 51 0 l 1,17,-1
 51 785 l 1,18,-1
 166 785 l 1,0,-1
317 97 m 0,19,20
 357 97 357 97 377.5 137 c 128,-1,21
 398 177 398 177 398 257 c 128,-1,22
 398 337 398 337 388 376.5 c 128,-1,23
 378 416 378 416 361.5 429 c 128,-1,24
 345 442 345 442 317 442 c 0,25,26
 235 442 235 442 167 420 c 1,27,-1
 167 135 l 1,28,29
 238 97 238 97 317 97 c 0,19,20
EndSplineSet
AlternateSubs2: "'salt' Stylistic Alternatives in Latin lookup 16 subtable" b.salt
Substitution2: "'smcp' Lowercase to Small Capitals lookup 1 subtable" b.smcp
EndChar

StartChar: c
Encoding: 99 99 70
Width: 496
GlyphClass: 2
Flags: W
LayerCount: 2
Fore
SplineSet
51 151.5 m 128,-1,1
 42 200 42 200 42 273.5 c 128,-1,2
 42 347 42 347 54.5 402 c 128,-1,3
 67 457 67 457 92 485.5 c 128,-1,4
 117 514 117 514 146.5 525 c 128,-1,5
 176 536 176 536 217 536 c 0,6,7
 351 536 351 536 456 506 c 1,8,-1
 456 432 l 1,9,10
 344 438 344 438 292 438 c 128,-1,11
 240 438 240 438 230.5 437 c 128,-1,12
 221 436 221 436 209 432.5 c 128,-1,13
 197 429 197 429 190.5 422 c 128,-1,14
 184 415 184 415 177 402.5 c 128,-1,15
 170 390 170 390 166 371 c 0,16,17
 158 328 158 328 158 260 c 128,-1,18
 158 192 158 192 168 155.5 c 128,-1,19
 178 119 178 119 197.5 106.5 c 128,-1,20
 217 94 217 94 257 94 c 0,21,22
 337 94 337 94 431 101 c 1,23,-1
 463 103 l 1,24,-1
 463 27 l 1,25,26
 411 5 411 5 355 0 c 0,27,28
 337 -1 337 -1 328 -2 c 128,-1,29
 319 -3 319 -3 299.5 -3.5 c 128,-1,30
 280 -4 280 -4 273 -4.5 c 128,-1,31
 266 -5 266 -5 244.5 -5 c 128,-1,32
 223 -5 223 -5 204 -5 c 128,-1,33
 185 -5 185 -5 160.5 1.5 c 128,-1,34
 136 8 136 8 113 26 c 128,-1,35
 90 44 90 44 75 73.5 c 128,-1,0
 60 103 60 103 51 151.5 c 128,-1,1
EndSplineSet
Substitution2: "'smcp' Lowercase to Small Capitals lookup 1 subtable" c.smcp
EndChar

StartChar: d
Encoding: 100 100 71
Width: 555
GlyphClass: 2
Flags: W
LayerCount: 2
Fore
SplineSet
42 263 m 0,0,1
 42 428 42 428 91 488 c 0,2,3
 132 539 132 539 216 539 c 0,4,5
 252 539 252 539 301.5 529 c 128,-1,6
 351 519 351 519 390 502 c 1,7,-1
 390 785 l 1,8,-1
 505 785 l 1,9,-1
 505 0 l 1,10,-1
 413 0 l 1,11,-1
 389 56 l 1,12,13
 362 34 362 34 311.5 14 c 128,-1,14
 261 -6 261 -6 216 -6 c 0,15,16
 42 -6 42 -6 42 263 c 0,0,1
158 257 m 0,17,18
 158 97 158 97 239 97 c 0,19,20
 318 97 318 97 389 135 c 1,21,-1
 389 420 l 1,22,23
 321 442 321 442 239 442 c 0,24,25
 212 442 212 442 195 429 c 0,26,27
 158 400 158 400 158 257 c 0,17,18
EndSplineSet
AlternateSubs2: "'salt' Stylistic Alternatives in Latin lookup 16 subtable" d.salt
Substitution2: "'smcp' Lowercase to Small Capitals lookup 1 subtable" d.smcp
EndChar

StartChar: e
Encoding: 101 101 72
Width: 525
GlyphClass: 2
Flags: W
LayerCount: 2
Fore
SplineSet
81 470 m 0,0,1
 111 510 111 510 156 523 c 0,2,3
 201 535 201 535 257.5 535 c 128,-1,4
 314 535 314 535 340.5 533 c 128,-1,5
 367 531 367 531 394 524.5 c 128,-1,6
 421 518 421 518 437 505 c 128,-1,7
 453 492 453 492 466 471 c 0,8,9
 491 433 491 433 491 344 c 0,10,11
 491 215 491 215 347 215 c 2,12,-1
 158 215 l 1,13,14
 158 137 158 137 184 114 c 0,15,16
 198 101 198 101 216.5 97 c 128,-1,17
 235 93 235 93 323 93 c 128,-1,18
 411 93 411 93 481 104 c 1,19,-1
 481 23 l 1,20,21
 399 -5 399 -5 217 -5 c 0,22,23
 117 -5 117 -5 79.5 55.5 c 128,-1,24
 42 116 42 116 42 266.5 c 128,-1,25
 42 417 42 417 81 470 c 0,0,1
375 348 m 0,26,27
 375 408 375 408 358.5 424 c 128,-1,28
 342 440 342 440 280 440 c 0,29,30
 201 440 201 440 185 422 c 0,31,32
 164 399 164 399 161 368.5 c 128,-1,33
 158 338 158 338 158 305 c 1,34,-1
 324 305 l 2,35,36
 375 305 375 305 375 348 c 0,26,27
EndSplineSet
Substitution2: "'smcp' Lowercase to Small Capitals lookup 1 subtable" e.smcp
EndChar

StartChar: f
Encoding: 102 102 73
Width: 402
GlyphClass: 2
Flags: W
LayerCount: 2
Fore
SplineSet
17 436 m 1,0,-1
 17 514 l 1,1,-1
 105 531 l 1,2,-1
 105 630 l 2,3,4
 105 786 105 786 249 786 c 0,5,6
 320 786 320 786 386 762 c 1,7,-1
 386 691 l 1,8,-1
 280 692 l 2,9,10
 249 693 249 693 234 679 c 0,11,12
 223 670 223 670 222 649.5 c 128,-1,13
 221 629 221 629 221 609 c 2,14,-1
 221 531 l 1,15,-1
 352 531 l 1,16,-1
 352 436 l 1,17,-1
 221 436 l 1,18,-1
 221 0 l 1,19,-1
 105 0 l 1,20,-1
 105 436 l 1,21,-1
 17 436 l 1,0,-1
EndSplineSet
AlternateSubs2: "'salt' Stylistic Alternatives in Latin lookup 16 subtable" f.salt
Substitution2: "'smcp' Lowercase to Small Capitals lookup 1 subtable" f.smcp
EndChar

StartChar: g
Encoding: 103 103 74
Width: 558
GlyphClass: 2
Flags: W
LayerCount: 2
Fore
SplineSet
52.5 50.5 m 128,-1,1
 40 76 40 76 40 107 c 128,-1,2
 40 138 40 138 55.5 163.5 c 128,-1,3
 71 189 71 189 101 197 c 1,4,5
 70 217 70 217 56 257.5 c 128,-1,6
 42 298 42 298 42 344 c 0,7,8
 42 438 42 438 88.5 485.5 c 128,-1,9
 135 533 135 533 222 533 c 2,10,-1
 541 533 l 1,11,-1
 541 460 l 1,12,-1
 474 442 l 1,13,14
 475 440 475 440 479.5 431 c 128,-1,15
 484 422 484 422 485.5 418.5 c 128,-1,16
 487 415 487 415 490 405 c 128,-1,17
 493 395 493 395 495 386 c 0,18,19
 498 361 498 361 498 335.5 c 128,-1,20
 498 310 498 310 494 287 c 128,-1,21
 490 264 490 264 478.5 238 c 128,-1,22
 467 212 467 212 448 193 c 0,23,24
 405 149 405 149 323 149 c 2,25,-1
 188 149 l 2,26,27
 147 149 147 149 147 123 c 0,28,29
 147 94 147 94 188 94 c 2,30,-1
 369 94 l 2,31,32
 438 94 438 94 477 55 c 128,-1,33
 516 16 516 16 516 -56 c 2,34,-1
 516 -116 l 2,35,36
 516 -230 516 -230 422 -261 c 0,37,38
 393 -270 393 -270 355 -270 c 2,39,-1
 205 -270 l 2,40,41
 132 -270 132 -270 87 -231 c 128,-1,42
 42 -192 42 -192 42 -116 c 2,43,-1
 42 -42 l 1,44,-1
 86 12 l 1,45,0
 65 25 65 25 52.5 50.5 c 128,-1,1
201 -5 m 2,46,47
 180 -5 180 -5 158 0 c 1,48,-1
 158 -105 l 2,49,50
 158 -146 158 -146 177.5 -158.5 c 128,-1,51
 197 -171 197 -171 229 -171 c 2,52,-1
 337 -171 l 2,53,54
 374 -171 374 -171 387 -154.5 c 128,-1,55
 400 -138 400 -138 400 -107 c 2,56,-1
 400 -61 l 2,57,58
 400 -24 400 -24 378 -12 c 0,59,60
 365 -5 365 -5 342 -5 c 2,61,-1
 201 -5 l 2,46,47
158 344 m 0,62,63
 158 248 158 248 233 248 c 2,64,-1
 304 248 l 2,65,66
 348 248 348 248 365 274.5 c 128,-1,67
 382 301 382 301 382 345.5 c 128,-1,68
 382 390 382 390 364.5 412.5 c 128,-1,69
 347 435 347 435 303 435 c 2,70,-1
 236 435 l 2,71,72
 189 435 189 435 172 406 c 0,73,74
 158 381 158 381 158 344 c 0,62,63
EndSplineSet
AlternateSubs2: "'salt' Stylistic Alternatives in Latin lookup 16 subtable" g.salt
Substitution2: "'smcp' Lowercase to Small Capitals lookup 1 subtable" g.smcp
EndChar

StartChar: h
Encoding: 104 104 75
Width: 547
GlyphClass: 2
Flags: W
LayerCount: 2
Fore
SplineSet
167 783 m 1,0,-1
 167 472 l 1,1,2
 169 474 169 474 187.5 486.5 c 128,-1,3
 206 499 206 499 224.5 509 c 128,-1,4
 243 519 243 519 276.5 529.5 c 128,-1,5
 310 540 310 540 345 540 c 0,6,7
 428 540 428 540 467 489.5 c 128,-1,8
 506 439 506 439 506 360 c 2,9,-1
 506 0 l 1,10,-1
 390 0 l 1,11,-1
 390 361 l 2,12,13
 390 442 390 442 320 442 c 0,14,15
 274 442 274 442 243 430.5 c 128,-1,16
 212 419 212 419 167 392 c 1,17,-1
 167 0 l 1,18,-1
 51 0 l 1,19,-1
 51 783 l 1,20,-1
 167 783 l 1,0,-1
EndSplineSet
Substitution2: "'smcp' Lowercase to Small Capitals lookup 1 subtable" h.smcp
EndChar

StartChar: i
Encoding: 105 105 76
Width: 216
GlyphClass: 2
Flags: W
LayerCount: 2
Fore
SplineSet
151 714 m 2,0,1
 174 714 174 714 174 688 c 2,2,-1
 174 612 l 2,3,4
 174 589 174 589 151 589 c 2,5,-1
 66 589 l 2,6,7
 56 589 56 589 49 595.5 c 128,-1,8
 42 602 42 602 42 612 c 2,9,-1
 42 688 l 2,10,11
 42 714 42 714 66 714 c 2,12,-1
 151 714 l 2,0,1
49 0 m 1,13,-1
 49 531 l 1,14,-1
 165 531 l 1,15,-1
 165 0 l 1,16,-1
 49 0 l 1,13,-1
EndSplineSet
Substitution2: "'smcp' Lowercase to Small Capitals lookup 1 subtable" i.smcp
EndChar

StartChar: j
Encoding: 106 106 77
Width: 233
GlyphClass: 2
Flags: W
LayerCount: 2
Fore
SplineSet
51 612 m 2,0,-1
 51 688 l 2,1,2
 51 714 51 714 75 714 c 2,3,-1
 160 714 l 2,4,5
 171 714 171 714 177 706.5 c 128,-1,6
 183 699 183 699 183 688 c 2,7,-1
 183 612 l 2,8,9
 183 589 183 589 160 589 c 2,10,-1
 75 589 l 2,11,12
 64 589 64 589 57.5 595.5 c 128,-1,13
 51 602 51 602 51 612 c 2,0,-1
59 -270 m 1,14,-1
 59 531 l 1,15,-1
 175 531 l 1,16,-1
 175 -4 l 2,17,18
 175 -14 175 -14 175 -24 c 0,19,20
 175 -188 175 -188 142 -270 c 1,21,-1
 59 -270 l 1,14,-1
EndSplineSet
Substitution2: "'smcp' Lowercase to Small Capitals lookup 1 subtable" j.smcp
EndChar

StartChar: k
Encoding: 107 107 78
Width: 536
GlyphClass: 2
Flags: W
LayerCount: 2
Fore
SplineSet
51 0 m 1,0,-1
 51 782 l 1,1,-1
 167 782 l 1,2,-1
 167 349 l 1,3,-1
 200 349 l 1,4,-1
 370 531 l 1,5,-1
 520 531 l 1,6,-1
 307 302 l 1,7,-1
 520 0 l 1,8,-1
 381 0 l 1,9,-1
 200 254 l 1,10,-1
 167 254 l 1,11,-1
 167 0 l 1,12,-1
 51 0 l 1,0,-1
EndSplineSet
Substitution2: "'smcp' Lowercase to Small Capitals lookup 1 subtable" k.smcp
EndChar

StartChar: l
Encoding: 108 108 79
Width: 308
GlyphClass: 2
Flags: W
LayerCount: 2
Fore
SplineSet
51 189 m 2,0,-1
 51 783 l 1,1,-1
 167 783 l 1,2,-1
 167 203 l 2,3,4
 167 147 167 147 179 125 c 128,-1,5
 191 103 191 103 217 95 c 0,6,7
 285 74 285 74 292 74 c 1,8,-1
 292 0 l 1,9,-1
 186 0 l 2,10,11
 120 0 120 0 85.5 44 c 128,-1,12
 51 88 51 88 51 189 c 2,0,-1
EndSplineSet
Substitution2: "'smcp' Lowercase to Small Capitals lookup 1 subtable" l.smcp
EndChar

StartChar: m
Encoding: 109 109 80
Width: 883
GlyphClass: 2
Flags: W
LayerCount: 2
Fore
SplineSet
502 393 m 1,0,-1
 502 358 l 1,1,-1
 502 0 l 1,2,-1
 386 0 l 1,3,-1
 386 358 l 2,4,5
 386 397 386 397 366.5 418.5 c 128,-1,6
 347 440 347 440 309 440 c 128,-1,7
 271 440 271 440 241.5 429 c 128,-1,8
 212 418 212 418 167 390 c 1,9,-1
 167 0 l 1,10,-1
 51 0 l 1,11,-1
 51 531 l 1,12,-1
 141 531 l 1,13,-1
 167 471 l 1,14,15
 169 473 169 473 183.5 482.5 c 128,-1,16
 198 492 198 492 201 494 c 128,-1,17
 204 496 204 496 217 503.5 c 128,-1,18
 230 511 230 511 235 513.5 c 128,-1,19
 240 516 240 516 252 521.5 c 128,-1,20
 264 527 264 527 272 528.5 c 128,-1,21
 280 530 280 530 292 533 c 0,22,23
 311 538 311 538 351 538 c 128,-1,24
 391 538 391 538 428 519 c 128,-1,25
 465 500 465 500 482 466 c 1,26,27
 576 538 576 538 681 538 c 0,28,29
 760 538 760 538 801 488.5 c 128,-1,30
 842 439 842 439 842 357 c 2,31,-1
 842 0 l 1,32,-1
 726 0 l 1,33,-1
 726 358 l 2,34,35
 726 397 726 397 707 418.5 c 128,-1,36
 688 440 688 440 655.5 440 c 128,-1,37
 623 440 623 440 598 435 c 1,38,39
 547 427 547 427 502 393 c 1,0,-1
EndSplineSet
AlternateSubs2: "'salt' Stylistic Alternatives in Latin lookup 16 subtable" m.salt
Substitution2: "'smcp' Lowercase to Small Capitals lookup 1 subtable" m.smcp
EndChar

StartChar: n
Encoding: 110 110 81
Width: 547
GlyphClass: 2
Flags: W
LayerCount: 2
Fore
SplineSet
390 361 m 2,0,1
 390 442 390 442 320 442 c 0,2,3
 274 442 274 442 243 430.5 c 128,-1,4
 212 419 212 419 167 392 c 1,5,-1
 167 0 l 1,6,-1
 51 0 l 1,7,-1
 51 531 l 1,8,-1
 141 531 l 1,9,-1
 167 472 l 1,10,11
 170 474 170 474 188.5 486.5 c 128,-1,12
 207 499 207 499 225.5 509.5 c 128,-1,13
 244 520 244 520 277 530 c 128,-1,14
 310 540 310 540 345 540 c 0,15,16
 428 540 428 540 467 489.5 c 128,-1,17
 506 439 506 439 506 360 c 2,18,-1
 506 0 l 1,19,-1
 390 0 l 1,20,-1
 390 361 l 2,0,1
EndSplineSet
AlternateSubs2: "'salt' Stylistic Alternatives in Latin lookup 16 subtable" n.salt
Substitution2: "'smcp' Lowercase to Small Capitals lookup 1 subtable" n.smcp
EndChar

StartChar: o
Encoding: 111 111 82
Width: 563
GlyphClass: 2
Flags: W
LayerCount: 2
Fore
SplineSet
54 136.5 m 128,-1,1
 42 185 42 185 42 276 c 128,-1,2
 42 367 42 367 65.5 427 c 128,-1,3
 89 487 89 487 139.5 511.5 c 128,-1,4
 190 536 190 536 282 536 c 0,5,6
 418 536 418 536 469.5 476 c 128,-1,7
 521 416 521 416 521 262.5 c 128,-1,8
 521 109 521 109 469.5 52 c 128,-1,9
 418 -5 418 -5 282 -5 c 0,10,11
 213 -5 213 -5 167.5 9 c 128,-1,12
 122 23 122 23 94 55.5 c 128,-1,0
 66 88 66 88 54 136.5 c 128,-1,1
160.5 328.5 m 128,-1,14
 158 300 158 300 158 260 c 128,-1,15
 158 220 158 220 161 193 c 128,-1,16
 164 166 164 166 171.5 148 c 128,-1,17
 179 130 179 130 188 119 c 128,-1,18
 197 108 197 108 212 102 c 1,19,20
 237 94 237 94 274.5 94 c 128,-1,21
 312 94 312 94 329 96.5 c 128,-1,22
 346 99 346 99 363 107.5 c 128,-1,23
 380 116 380 116 388 134 c 0,24,25
 405 174 405 174 405 237 c 128,-1,26
 405 300 405 300 402.5 328.5 c 128,-1,27
 400 357 400 357 393.5 377.5 c 128,-1,28
 387 398 387 398 379 409.5 c 128,-1,29
 371 421 371 421 356 427 c 0,30,31
 332 437 332 437 294 437.5 c 128,-1,32
 256 438 256 438 240 436 c 128,-1,33
 224 434 224 434 208.5 427.5 c 128,-1,34
 193 421 193 421 184.5 409.5 c 128,-1,35
 176 398 176 398 169.5 377.5 c 128,-1,13
 163 357 163 357 160.5 328.5 c 128,-1,14
EndSplineSet
Substitution2: "'smcp' Lowercase to Small Capitals lookup 1 subtable" o.smcp
EndChar

StartChar: p
Encoding: 112 112 83
Width: 555
GlyphClass: 2
Flags: W
LayerCount: 2
Fore
SplineSet
340 537 m 0,0,1
 514 537 514 537 514 268 c 0,2,3
 514 109 514 109 465 46 c 0,4,5
 423 -8 423 -8 340 -8 c 0,6,7
 304 -8 304 -8 254 2 c 128,-1,8
 204 12 204 12 166 28 c 1,9,-1
 166 -270 l 1,10,-1
 51 -270 l 1,11,-1
 51 531 l 1,12,-1
 143 531 l 1,13,-1
 166 476 l 1,14,15
 193 497 193 497 244.5 517 c 128,-1,16
 296 537 296 537 340 537 c 0,0,1
317 89 m 0,17,18
 345 89 345 89 361 102 c 0,19,20
 398 131 398 131 398 264 c 0,21,22
 398 354 398 354 377.5 394 c 128,-1,23
 357 434 357 434 317 434 c 0,24,25
 238 434 238 434 166 396 c 1,26,-1
 166 111 l 1,27,28
 235 89 235 89 317 89 c 0,17,18
EndSplineSet
AlternateSubs2: "'salt' Stylistic Alternatives in Latin lookup 16 subtable" p.salt
Substitution2: "'smcp' Lowercase to Small Capitals lookup 1 subtable" p.smcp
EndChar

StartChar: q
Encoding: 113 113 84
Width: 555
GlyphClass: 2
Flags: W
LayerCount: 2
Fore
SplineSet
42 268 m 0,0,1
 42 537 42 537 233 537 c 0,2,3
 372 537 372 537 504 509 c 1,4,-1
 504 -270 l 1,5,-1
 388 -270 l 1,6,-1
 388 29 l 1,7,8
 317 -10 317 -10 233 -10 c 0,9,10
 121 -10 121 -10 80 66 c 0,11,12
 42 135 42 135 42 268 c 0,0,1
159 305 m 128,-1,14
 158 291 158 291 158 269.5 c 128,-1,15
 158 248 158 248 158 238.5 c 128,-1,16
 158 229 158 229 159 209 c 128,-1,17
 160 189 160 189 161.5 180 c 128,-1,18
 163 171 163 171 166 155 c 128,-1,19
 169 139 169 139 173.5 131.5 c 128,-1,20
 178 124 178 124 185 113.5 c 128,-1,21
 192 103 192 103 201 99 c 0,22,23
 224 87 224 87 257 87 c 0,24,25
 318 87 318 87 388 110 c 1,26,-1
 388 442 l 1,27,-1
 250 442 l 2,28,29
 206 442 206 442 187 411 c 0,30,31
 166 378 166 378 163 348.5 c 128,-1,13
 160 319 160 319 159 305 c 128,-1,14
EndSplineSet
Substitution2: "'smcp' Lowercase to Small Capitals lookup 1 subtable" q.smcp
EndChar

StartChar: r
Encoding: 114 114 85
Width: 420
GlyphClass: 2
Flags: W
LayerCount: 2
Fore
SplineSet
269 525 m 128,-1,1
 302 537 302 537 343 537 c 128,-1,2
 384 537 384 537 400 530 c 1,3,-1
 400 417 l 1,4,5
 374 421 374 421 324 421 c 128,-1,6
 274 421 274 421 239 408.5 c 128,-1,7
 204 396 204 396 167 362 c 1,8,-1
 167 0 l 1,9,-1
 51 0 l 1,10,-1
 51 531 l 1,11,-1
 145 531 l 1,12,-1
 167 464 l 1,13,14
 196 487 196 487 216 500 c 128,-1,0
 236 513 236 513 269 525 c 128,-1,1
EndSplineSet
AlternateSubs2: "'salt' Stylistic Alternatives in Latin lookup 16 subtable" r.salt
Substitution2: "'smcp' Lowercase to Small Capitals lookup 1 subtable" r.smcp
EndChar

StartChar: s
Encoding: 115 115 86
Width: 507
GlyphClass: 2
Flags: W
LayerCount: 2
Fore
SplineSet
172 536 m 0,0,1
 249 536 249 536 333 530 c 128,-1,2
 417 524 417 524 447 513 c 1,3,-1
 447 436 l 1,4,-1
 199 436 l 2,5,6
 167 436 167 436 158.5 426 c 128,-1,7
 150 416 150 416 150 391 c 2,8,-1
 150 359 l 2,9,10
 150 331 150 331 161.5 324 c 128,-1,11
 173 317 173 317 199 317 c 2,12,-1
 337 317 l 2,13,14
 406 317 406 317 440 280 c 128,-1,15
 474 243 474 243 474 183 c 2,16,-1
 474 130 l 2,17,18
 474 -5 474 -5 344 -5 c 0,19,20
 268 -5 268 -5 174.5 2 c 128,-1,21
 81 9 81 9 56 20 c 1,22,-1
 56 96 l 1,23,-1
 315 96 l 2,24,25
 358 96 358 96 358 137 c 2,26,-1
 358 171 l 2,27,28
 358 192 358 192 348.5 202.5 c 128,-1,29
 339 213 339 213 315 213 c 2,30,-1
 179 213 l 2,31,32
 105 213 105 213 69.5 244.5 c 128,-1,33
 34 276 34 276 34 351 c 2,34,-1
 34 397 l 2,35,36
 34 536 34 536 172 536 c 0,0,1
EndSplineSet
Substitution2: "'smcp' Lowercase to Small Capitals lookup 1 subtable" s.smcp
EndChar

StartChar: t
Encoding: 116 116 87
Width: 380
GlyphClass: 2
Flags: W
LayerCount: 2
Fore
SplineSet
223 680 m 1,0,-1
 223 532 l 1,1,-1
 355 532 l 1,2,-1
 355 437 l 1,3,-1
 223 437 l 1,4,-1
 223 204 l 2,5,6
 223 148 223 148 235.5 125.5 c 128,-1,7
 248 103 248 103 273 95 c 0,8,9
 341 74 341 74 348 74 c 1,10,-1
 348 0 l 1,11,-1
 238 0 l 2,12,13
 107 0 107 0 107 190 c 2,14,-1
 107 437 l 1,15,-1
 17 437 l 1,16,-1
 17 507 l 1,17,-1
 107 532 l 1,18,-1
 129 680 l 1,19,-1
 223 680 l 1,0,-1
EndSplineSet
AlternateSubs2: "'salt' Stylistic Alternatives in Latin lookup 16 subtable" t.salt
Substitution2: "'smcp' Lowercase to Small Capitals lookup 1 subtable" t.smcp
EndChar

StartChar: u
Encoding: 117 117 88
Width: 547
GlyphClass: 2
Flags: W
LayerCount: 2
Fore
SplineSet
42 172 m 2,0,-1
 42 531 l 1,1,-1
 158 531 l 1,2,-1
 158 170 l 2,3,4
 158 129 158 129 177 109.5 c 128,-1,5
 196 90 196 90 235 90 c 128,-1,6
 274 90 274 90 305 101 c 128,-1,7
 336 112 336 112 381 140 c 1,8,-1
 381 531 l 1,9,-1
 497 531 l 1,10,-1
 497 0 l 1,11,-1
 407 0 l 1,12,-1
 381 58 l 1,13,14
 373 54 373 54 355 42.5 c 128,-1,15
 337 31 337 31 328 26 c 128,-1,16
 319 21 319 21 302 13 c 128,-1,17
 285 5 285 5 272 1 c 0,18,19
 238 -9 238 -9 203 -9 c 0,20,21
 120 -9 120 -9 81 41.5 c 128,-1,22
 42 92 42 92 42 172 c 2,0,-1
EndSplineSet
AlternateSubs2: "'salt' Stylistic Alternatives in Latin lookup 16 subtable" u.salt
Substitution2: "'smcp' Lowercase to Small Capitals lookup 1 subtable" u.smcp
EndChar

StartChar: v
Encoding: 118 118 89
Width: 554
GlyphClass: 2
Flags: W
LayerCount: 2
Fore
SplineSet
17 531 m 1,0,-1
 142 531 l 1,1,-1
 276 144 l 1,2,-1
 413 531 l 1,3,-1
 537 531 l 1,4,-1
 337 0 l 1,5,-1
 211 0 l 1,6,-1
 17 531 l 1,0,-1
EndSplineSet
Substitution2: "'smcp' Lowercase to Small Capitals lookup 1 subtable" v.smcp
EndChar

StartChar: w
Encoding: 119 119 90
Width: 817
GlyphClass: 2
Flags: W
LayerCount: 2
Fore
SplineSet
17 531 m 1,0,-1
 142 531 l 1,1,-1
 266 144 l 1,2,-1
 377 531 l 1,3,-1
 495 531 l 1,4,-1
 452 378 l 1,5,-1
 550 144 l 1,6,-1
 676 531 l 1,7,-1
 801 531 l 1,8,-1
 618 0 l 1,9,-1
 491 0 l 1,10,-1
 398 217 l 1,11,-1
 328 0 l 1,12,-1
 197 0 l 1,13,-1
 17 531 l 1,0,-1
EndSplineSet
Substitution2: "'smcp' Lowercase to Small Capitals lookup 1 subtable" w.smcp
EndChar

StartChar: x
Encoding: 120 120 91
Width: 554
GlyphClass: 2
Flags: W
LayerCount: 2
Fore
SplineSet
20 0 m 1,0,-1
 207 266 l 1,1,-1
 21 531 l 1,2,-1
 162 531 l 1,3,-1
 276 356 l 1,4,-1
 393 531 l 1,5,-1
 534 531 l 1,6,-1
 346 263 l 1,7,-1
 526 0 l 1,8,-1
 393 0 l 1,9,-1
 277 174 l 1,10,-1
 162 0 l 1,11,-1
 20 0 l 1,0,-1
EndSplineSet
AlternateSubs2: "'salt' Stylistic Alternatives in Latin lookup 16 subtable" x.salt
Substitution2: "'smcp' Lowercase to Small Capitals lookup 1 subtable" x.smcp
EndChar

StartChar: y
Encoding: 121 121 92
Width: 569
GlyphClass: 2
Flags: W
LayerCount: 2
Fore
SplineSet
18 531 m 1,0,-1
 141 531 l 1,1,-1
 246 144 l 2,2,3
 252 122 252 122 262 115 c 128,-1,4
 272 108 272 108 278.5 106 c 128,-1,5
 285 104 285 104 289.5 104 c 128,-1,6
 294 104 294 104 299 104.5 c 128,-1,7
 304 105 304 105 304 105 c 1,8,-1
 427 531 l 1,9,-1
 550 531 l 1,10,-1
 348 -168 l 1,11,-1
 274 -270 l 1,12,-1
 194 -270 l 1,13,-1
 276 0 l 1,14,15
 167 0 167 0 131 126 c 2,16,-1
 18 531 l 1,0,-1
EndSplineSet
Substitution2: "'smcp' Lowercase to Small Capitals lookup 1 subtable" y.smcp
EndChar

StartChar: z
Encoding: 122 122 93
Width: 467
GlyphClass: 2
Flags: W
LayerCount: 2
Fore
SplineSet
25 429 m 1,0,-1
 25 531 l 1,1,-1
 442 531 l 1,2,-1
 442 429 l 1,3,-1
 194 103 l 1,4,-1
 442 103 l 1,5,-1
 442 1 l 1,6,-1
 40 1 l 1,7,-1
 40 102 l 1,8,-1
 297 429 l 1,9,-1
 25 429 l 1,0,-1
EndSplineSet
Substitution2: "'smcp' Lowercase to Small Capitals lookup 1 subtable" z.smcp
EndChar

StartChar: braceleft
Encoding: 123 123 94
Width: 320
GlyphClass: 2
Flags: W
LayerCount: 2
Fore
SplineSet
211 -14 m 2,0,1
 211 -112 211 -112 297 -112 c 0,2,3
 301 -112 301 -112 304 -112 c 1,4,-1
 304 -210 l 1,5,6
 193 -210 193 -210 144 -163 c 128,-1,7
 95 -116 95 -116 95 -38 c 2,8,-1
 95 235 l 2,9,10
 95 263 95 263 74 275.5 c 128,-1,11
 53 288 53 288 37.5 288 c 128,-1,12
 22 288 22 288 17 288 c 1,13,-1
 17 379 l 1,14,15
 64 384 64 384 75 391 c 1,16,17
 96 408 96 408 96 432 c 2,18,-1
 96 656 l 2,19,20
 96 739 96 739 148.5 790.5 c 128,-1,21
 201 842 201 842 304 842 c 1,22,-1
 304 740 l 1,23,24
 258 740 258 740 235 716 c 128,-1,25
 212 692 212 692 212 628 c 2,26,-1
 212 427 l 2,27,28
 212 386 212 386 187.5 363 c 128,-1,29
 163 340 163 340 120 334 c 1,30,31
 161 327 161 327 186 303 c 128,-1,32
 211 279 211 279 211 244 c 2,33,-1
 211 -14 l 2,0,1
EndSplineSet
EndChar

StartChar: bar
Encoding: 124 124 95
Width: 246
GlyphClass: 2
Flags: W
LayerCount: 2
Fore
SplineSet
73 -72 m 1,0,-1
 73 770 l 1,1,-1
 175 770 l 1,2,-1
 175 -72 l 1,3,-1
 73 -72 l 1,0,-1
EndSplineSet
EndChar

StartChar: braceright
Encoding: 125 125 96
Width: 320
GlyphClass: 2
Flags: W
LayerCount: 2
Fore
SplineSet
23 -112 m 0,0,1
 109 -112 109 -112 109 -13 c 2,2,-1
 109 244 l 2,3,4
 109 279 109 279 134 303 c 128,-1,5
 159 327 159 327 200 334 c 1,6,7
 158 340 158 340 133 363 c 128,-1,8
 108 386 108 386 108 427 c 2,9,-1
 108 628 l 2,10,11
 108 692 108 692 85.5 716 c 128,-1,12
 63 740 63 740 17 740 c 1,13,-1
 17 842 l 1,14,15
 120 842 120 842 172 790.5 c 128,-1,16
 224 739 224 739 224 656 c 2,17,-1
 224 432 l 2,18,19
 224 389 224 389 282 381 c 1,20,21
 290 381 290 381 304 379 c 1,22,-1
 304 288 l 1,23,24
 299 288 299 288 283.5 288 c 128,-1,25
 268 288 268 288 246.5 275.5 c 128,-1,26
 225 263 225 263 225 235 c 2,27,-1
 225 -38 l 2,28,29
 225 -116 225 -116 176.5 -163 c 128,-1,30
 128 -210 128 -210 17 -210 c 1,31,-1
 17 -112 l 1,32,33
 20 -112 20 -112 23 -112 c 0,0,1
EndSplineSet
EndChar

StartChar: asciitilde
Encoding: 126 126 97
Width: 426
GlyphClass: 2
Flags: W
LayerCount: 2
Fore
SplineSet
142 649 m 128,-1,1
 152 651 152 651 168 651 c 128,-1,2
 184 651 184 651 216 633.5 c 128,-1,3
 248 616 248 616 267 616 c 0,4,5
 268 616 268 616 277 616 c 128,-1,6
 286 616 286 616 305 623 c 0,7,8
 328 632 328 632 360 656 c 1,9,-1
 384 603 l 1,10,11
 382 601 382 601 371.5 589.5 c 128,-1,12
 361 578 361 578 349.5 567 c 128,-1,13
 338 556 338 556 315.5 543.5 c 128,-1,14
 293 531 293 531 270 531 c 128,-1,15
 247 531 247 531 212 548.5 c 128,-1,16
 177 566 177 566 161 566 c 128,-1,17
 145 566 145 566 131.5 562.5 c 128,-1,18
 118 559 118 559 110.5 555.5 c 128,-1,19
 103 552 103 552 88 543.5 c 128,-1,20
 73 535 73 535 65 531 c 1,21,-1
 42 581 l 1,22,23
 45 584 45 584 55 594 c 128,-1,24
 65 604 65 604 68.5 607 c 128,-1,25
 72 610 72 610 81 618 c 128,-1,26
 90 626 90 626 95 629 c 128,-1,27
 100 632 100 632 109 637.5 c 128,-1,28
 118 643 118 643 125 645 c 128,-1,0
 132 647 132 647 142 649 c 128,-1,1
EndSplineSet
EndChar

StartChar: exclamdown
Encoding: 161 161 98
Width: 273
GlyphClass: 2
Flags: W
LayerCount: 2
Fore
SplineSet
75 363 m 2,0,-1
 75 438 l 2,1,2
 75 459 75 459 99 461 c 1,3,-1
 170 461 l 1,4,5
 184 460 184 460 189 451 c 128,-1,6
 194 442 194 442 194 435 c 2,7,-1
 194 364 l 1,8,9
 193 337 193 337 172 337 c 2,10,-1
 99 337 l 2,11,12
 75 337 75 337 75 363 c 2,0,-1
74 -270 m 1,13,-1
 85 262 l 1,14,-1
 185 262 l 1,15,-1
 197 -270 l 1,16,-1
 74 -270 l 1,13,-1
EndSplineSet
Substitution2: "'case' Case-Sensitive Forms lookup 18 subtable" exclamdown.alt
Substitution2: "'smcp' Lowercase to Small Capitals lookup 1 subtable" exclamdown.smcp
EndChar

StartChar: cent
Encoding: 162 162 99
Width: 488
GlyphClass: 2
Flags: W
LayerCount: 2
Fore
SplineSet
43 150 m 128,-1,1
 34 199 34 199 34 274 c 128,-1,2
 34 349 34 349 47 405 c 0,3,4
 69 503 69 503 143 528 c 0,5,6
 171 537 171 537 193 537 c 128,-1,7
 215 537 215 537 219 537 c 1,8,-1
 219 634 l 1,9,-1
 296 634 l 1,10,-1
 296 533 l 1,11,12
 382 524 382 524 448 506 c 1,13,-1
 448 432 l 1,14,15
 336 439 336 439 280.5 439 c 128,-1,16
 225 439 225 439 212.5 437 c 128,-1,17
 200 435 200 435 186 425.5 c 128,-1,18
 172 416 172 416 165 397 c 0,19,20
 150 354 150 354 150 273 c 128,-1,21
 150 192 150 192 159.5 155 c 128,-1,22
 169 118 169 118 189 105 c 128,-1,23
 209 92 209 92 248 92 c 0,24,25
 329 92 329 92 423 100 c 1,26,-1
 454 102 l 1,27,-1
 454 26 l 1,28,29
 389 -1 389 -1 295 -5 c 1,30,-1
 295 -96 l 1,31,-1
 218 -96 l 1,32,-1
 218 -6 l 1,33,34
 217 -6 217 -6 199.5 -6 c 128,-1,35
 182 -6 182 -6 156.5 0 c 128,-1,36
 131 6 131 6 107 23.5 c 128,-1,37
 83 41 83 41 67.5 71 c 128,-1,0
 52 101 52 101 43 150 c 128,-1,1
EndSplineSet
EndChar

StartChar: sterling
Encoding: 163 163 100
Width: 587
GlyphClass: 2
Flags: W
LayerCount: 2
Fore
SplineSet
42 0 m 1,0,-1
 42 91 l 1,1,-1
 111 109 l 1,2,-1
 111 320 l 1,3,-1
 42 320 l 1,4,-1
 42 382 l 1,5,-1
 111 403 l 1,6,-1
 111 491 l 2,7,8
 111 626 111 626 161 678 c 0,9,10
 206 724 206 724 296 730 c 0,11,12
 321 732 321 732 351 732 c 0,13,14
 407 732 407 732 511 720 c 2,15,-1
 545 716 l 1,16,-1
 545 624 l 1,17,-1
 355 624 l 2,18,19
 270 624 270 624 253 607 c 0,20,21
 233 586 233 586 230 557.5 c 128,-1,22
 227 529 227 529 227 499 c 2,23,-1
 227 402 l 1,24,-1
 466 386 l 1,25,-1
 466 320 l 1,26,-1
 227 320 l 1,27,-1
 227 109 l 1,28,-1
 544 109 l 1,29,-1
 544 0 l 1,30,-1
 42 0 l 1,0,-1
EndSplineSet
Substitution2: "'smcp' Lowercase to Small Capitals lookup 1 subtable" sterling.smcp
EndChar

StartChar: currency
Encoding: 164 164 101
Width: 451
GlyphClass: 2
Flags: W
LayerCount: 2
Fore
SplineSet
132 442 m 1,0,1
 173 471 173 471 223.5 471 c 128,-1,2
 274 471 274 471 316 441 c 1,3,-1
 363 488 l 1,4,-1
 407 444 l 1,5,-1
 359 395 l 1,6,7
 382 357 382 357 382 308.5 c 128,-1,8
 382 260 382 260 353 219 c 1,9,-1
 403 169 l 1,10,-1
 358 124 l 1,11,-1
 306 174 l 1,12,13
 268 148 268 148 222 148 c 128,-1,14
 176 148 176 148 137 176 c 1,15,-1
 90 128 l 1,16,-1
 45 175 l 1,17,-1
 92 221 l 1,18,19
 65 263 65 263 65 311 c 128,-1,20
 65 359 65 359 89 397 c 1,21,-1
 43 442 l 1,22,-1
 89 486 l 1,23,-1
 132 442 l 1,0,1
135 313 m 0,24,25
 135 297 135 297 139 283 c 128,-1,26
 143 269 143 269 151 257.5 c 128,-1,27
 159 246 159 246 170 237 c 0,28,29
 193 219 193 219 220 219 c 128,-1,30
 247 219 247 219 268 232 c 0,31,32
 312 259 312 259 312 312 c 0,33,34
 312 349 312 349 286 374.5 c 128,-1,35
 260 400 260 400 223 400 c 256,36,37
 186 400 186 400 160.5 374 c 128,-1,38
 135 348 135 348 135 313 c 0,24,25
EndSplineSet
EndChar

StartChar: yen
Encoding: 165 165 102
Width: 621
GlyphClass: 2
Flags: W
LayerCount: 2
Fore
SplineSet
519 332 m 1,0,-1
 519 258 l 1,1,-1
 360 258 l 1,2,-1
 360 217 l 1,3,-1
 519 217 l 1,4,-1
 519 144 l 1,5,-1
 360 144 l 1,6,-1
 360 0 l 1,7,-1
 244 0 l 1,8,-1
 244 144 l 1,9,-1
 92 144 l 1,10,-1
 92 217 l 1,11,-1
 244 217 l 1,12,-1
 244 258 l 1,13,-1
 92 258 l 1,14,-1
 92 332 l 1,15,-1
 222 332 l 1,16,-1
 17 732 l 1,17,-1
 143 732 l 1,18,-1
 303 399 l 1,19,-1
 476 732 l 1,20,-1
 605 732 l 1,21,-1
 383 332 l 1,22,-1
 519 332 l 1,0,-1
EndSplineSet
Substitution2: "'smcp' Lowercase to Small Capitals lookup 1 subtable" yen.smcp
EndChar

StartChar: brokenbar
Encoding: 166 166 103
Width: 247
GlyphClass: 2
Flags: W
LayerCount: 2
Fore
SplineSet
73 -72 m 1,0,-1
 73 256 l 1,1,-1
 175 256 l 1,2,-1
 175 -72 l 1,3,-1
 73 -72 l 1,0,-1
73 429 m 1,4,-1
 73 770 l 1,5,-1
 175 770 l 1,6,-1
 175 429 l 1,7,-1
 73 429 l 1,4,-1
EndSplineSet
EndChar

StartChar: section
Encoding: 167 167 104
Width: 545
GlyphClass: 2
Flags: W
LayerCount: 2
Fore
SplineSet
47 590 m 2,0,-1
 47 646 l 2,1,2
 47 716 47 716 84 750 c 128,-1,3
 121 784 121 784 178 784 c 128,-1,4
 235 784 235 784 330.5 777.5 c 128,-1,5
 426 771 426 771 461 765 c 1,6,-1
 461 682 l 1,7,-1
 208 682 l 2,8,9
 185 682 185 682 174 673 c 128,-1,10
 163 664 163 664 163 641 c 2,11,-1
 163 593 l 2,12,13
 163 554 163 554 209 554 c 2,14,-1
 352 554 l 2,15,16
 433 554 433 554 466.5 522.5 c 128,-1,17
 500 491 500 491 499 428 c 1,18,-1
 499 383 l 2,19,20
 499 295 499 295 447 282 c 1,21,22
 498 274 498 274 498 190 c 2,23,-1
 498 128 l 2,24,25
 498 44 498 44 453 16 c 0,26,27
 414 -8 414 -8 359.5 -8 c 128,-1,28
 305 -8 305 -8 210.5 -1.5 c 128,-1,29
 116 5 116 5 84 11 c 1,30,-1
 84 94 l 1,31,-1
 331 94 l 2,32,33
 357 94 357 94 369.5 101 c 128,-1,34
 382 108 382 108 382 130 c 2,35,-1
 382 182 l 2,36,37
 382 211 382 211 362 217 c 0,38,39
 353 220 353 220 335 220 c 2,40,-1
 191 220 l 2,41,42
 119 220 119 220 83.5 246 c 128,-1,43
 48 272 48 272 48 342 c 2,44,-1
 48 387 l 2,45,46
 48 454 48 454 72 477 c 0,47,48
 84 488 84 488 102 494 c 1,49,50
 47 516 47 516 47 590 c 2,0,-1
163 361 m 2,51,52
 163 334 163 334 174 326 c 128,-1,53
 185 318 185 318 212 318 c 2,54,-1
 331 318 l 2,55,56
 365 318 365 318 373.5 328 c 128,-1,57
 382 338 382 338 382 362 c 2,58,-1
 382 409 l 2,59,60
 382 433 382 433 377 442 c 1,61,62
 367 456 367 456 331 456 c 2,63,-1
 212 456 l 2,64,65
 182 456 182 456 172.5 446 c 128,-1,66
 163 436 163 436 163 407 c 2,67,-1
 163 361 l 2,51,52
EndSplineSet
EndChar

StartChar: dieresis
Encoding: 168 168 105
Width: 451
GlyphClass: 2
Flags: W
LayerCount: 2
Fore
SplineSet
42 582 m 128,-1,1
 42 605 42 605 58.5 621 c 128,-1,2
 75 637 75 637 98.5 637 c 128,-1,3
 122 637 122 637 138 621 c 128,-1,4
 154 605 154 605 154 582 c 128,-1,5
 154 559 154 559 138 542.5 c 128,-1,6
 122 526 122 526 98.5 526 c 128,-1,7
 75 526 75 526 58.5 542.5 c 128,-1,0
 42 559 42 559 42 582 c 128,-1,1
297 582 m 128,-1,9
 297 605 297 605 313.5 621 c 128,-1,10
 330 637 330 637 353.5 637 c 128,-1,11
 377 637 377 637 393 621 c 128,-1,12
 409 605 409 605 409 582 c 128,-1,13
 409 559 409 559 393 542.5 c 128,-1,14
 377 526 377 526 353.5 526 c 128,-1,15
 330 526 330 526 313.5 542.5 c 128,-1,8
 297 559 297 559 297 582 c 128,-1,9
EndSplineSet
Substitution2: "'smcp' Lowercase to Small Capitals lookup 1 subtable" dieresis.smcp
EndChar

StartChar: copyright
Encoding: 169 169 106
Width: 804
GlyphClass: 2
Flags: W
LayerCount: 2
Fore
SplineSet
47 368 m 0,0,1
 47 732 47 732 291 732 c 2,2,-1
 537 732 l 2,3,4
 740 732 740 732 756 438 c 0,5,6
 758 406 758 406 758 368 c 0,7,8
 758 139 758 139 661 48 c 0,9,10
 610 0 610 0 537 0 c 2,11,-1
 291 0 l 2,12,13
 200 0 200 0 144 59 c 0,14,15
 70 138 70 138 52 283 c 0,16,17
 47 325 47 325 47 368 c 0,0,1
131.5 447 m 128,-1,19
 128 411 128 411 128 350.5 c 128,-1,20
 128 290 128 290 144.5 226.5 c 128,-1,21
 161 163 161 163 199 120.5 c 128,-1,22
 237 78 237 78 291 78 c 2,23,-1
 533 78 l 1,24,25
 622 79 622 79 657 203 c 1,26,27
 677 269 677 269 677 368 c 0,28,29
 677 501 677 501 656 557 c 0,30,31
 631 622 631 622 592 642 c 0,32,33
 568 654 568 654 537 654 c 2,34,-1
 291 654 l 2,35,36
 234 654 234 654 200 625 c 0,37,38
 171 600 171 600 159.5 569.5 c 128,-1,39
 148 539 148 539 141.5 511 c 128,-1,18
 135 483 135 483 131.5 447 c 128,-1,19
226 365 m 0,40,41
 226 583 226 583 370 583 c 0,42,43
 403 583 403 583 457 576 c 128,-1,44
 511 569 511 569 552 559 c 1,45,-1
 552 493 l 1,46,47
 468 505 468 505 384 505 c 0,48,49
 344 505 344 505 326 471.5 c 128,-1,50
 308 438 308 438 308 366 c 128,-1,51
 308 294 308 294 325 259.5 c 128,-1,52
 342 225 342 225 387 225 c 0,53,54
 460 225 460 225 558 241 c 1,55,-1
 558 175 l 1,56,57
 480 147 480 147 373 147 c 256,58,59
 266 147 266 147 238 257 c 0,60,61
 226 301 226 301 226 365 c 0,40,41
EndSplineSet
EndChar

StartChar: ordfeminine
Encoding: 170 170 107
Width: 365
GlyphClass: 3
Flags: W
LayerCount: 2
Fore
SplineSet
25 264 m 1,0,-1
 25 330 l 1,1,-1
 340 330 l 1,2,-1
 340 264 l 1,3,-1
 25 264 l 1,0,-1
37 713 m 1,4,5
 134 739 134 739 208 739 c 0,6,7
 339 739 339 739 339 629 c 2,8,-1
 339 378 l 1,9,-1
 272 378 l 1,10,-1
 248 424 l 1,11,12
 246 420 246 420 229.5 408.5 c 128,-1,13
 213 397 213 397 184.5 385.5 c 128,-1,14
 156 374 156 374 143 374 c 0,15,16
 66 374 66 374 38 419 c 0,17,18
 25 440 25 440 25 465 c 2,19,-1
 25 504 l 2,20,21
 25 545 25 545 52 571 c 128,-1,22
 79 597 79 597 134.5 597 c 128,-1,23
 190 597 190 597 219 597 c 128,-1,24
 248 597 248 597 248 597 c 1,25,26
 249 618 249 618 248 619 c 1,27,28
 248 645 248 645 234.5 654 c 128,-1,29
 221 663 221 663 193 663 c 128,-1,30
 165 663 165 663 137.5 662 c 128,-1,31
 110 661 110 661 82 658.5 c 128,-1,32
 54 656 54 656 37 656 c 1,33,-1
 37 713 l 1,4,5
113 482 m 2,34,35
 113 448 113 448 156 448 c 128,-1,36
 199 448 199 448 248 476 c 1,37,-1
 248 544 l 1,38,-1
 148 537 l 1,39,40
 113 533 113 533 113 501 c 2,41,-1
 113 482 l 2,34,35
EndSplineSet
Substitution2: "'smcp' Lowercase to Small Capitals lookup 1 subtable" ordfeminine.smcp
Ligature2: "'ordn' Ordinals lookup 0 subtable" a
EndChar

StartChar: guillemotleft
Encoding: 171 171 108
Width: 569
GlyphClass: 2
Flags: W
LayerCount: 2
Fore
SplineSet
42 354 m 1,0,-1
 248 557 l 1,1,-1
 316 490 l 1,2,-1
 177 354 l 1,3,-1
 320 214 l 1,4,-1
 253 146 l 1,5,-1
 42 354 l 1,0,-1
250 354 m 1,6,-1
 456 557 l 1,7,-1
 523 490 l 1,8,-1
 384 354 l 1,9,-1
 527 214 l 1,10,-1
 461 146 l 1,11,-1
 250 354 l 1,6,-1
EndSplineSet
EndChar

StartChar: logicalnot
Encoding: 172 172 109
Width: 506
GlyphClass: 2
Flags: W
LayerCount: 2
Fore
SplineSet
40 246 m 1,0,-1
 40 344 l 1,1,-1
 466 344 l 1,2,-1
 466 159 l 1,3,-1
 368 159 l 1,4,-1
 368 246 l 1,5,-1
 40 246 l 1,0,-1
EndSplineSet
EndChar

StartChar: uni00AD
Encoding: 173 173 110
Width: 354
GlyphClass: 2
Flags: W
LayerCount: 2
Fore
SplineSet
20 239 m 1,0,-1
 20 341 l 1,1,-1
 334 341 l 1,2,-1
 334 239 l 1,3,-1
 20 239 l 1,0,-1
EndSplineSet
Substitution2: "'case' Case-Sensitive Forms lookup 18 subtable" uni00AD.alt
Substitution2: "'c2sc' Capitals to Small Capitals in Latin lookup 2 subtable" uni00AD.smcp
Substitution2: "'smcp' Lowercase to Small Capitals lookup 1 subtable" uni00AD.smcp
EndChar

StartChar: registered
Encoding: 174 174 111
Width: 804
GlyphClass: 2
Flags: W
LayerCount: 2
Fore
SplineSet
47 368 m 0,0,1
 47 732 47 732 291 732 c 2,2,-1
 537 732 l 2,3,4
 740 732 740 732 756 438 c 0,5,6
 758 406 758 406 758 368 c 0,7,8
 758 139 758 139 661 48 c 0,9,10
 610 0 610 0 537 0 c 2,11,-1
 291 0 l 2,12,13
 200 0 200 0 144 59 c 0,14,15
 70 138 70 138 52 283 c 0,16,17
 47 325 47 325 47 368 c 0,0,1
131.5 447 m 128,-1,19
 128 411 128 411 128 350.5 c 128,-1,20
 128 290 128 290 144.5 226.5 c 128,-1,21
 161 163 161 163 199 120.5 c 128,-1,22
 237 78 237 78 291 78 c 2,23,-1
 533 78 l 1,24,25
 622 79 622 79 657 203 c 1,26,27
 677 269 677 269 677 368 c 0,28,29
 677 501 677 501 656 557 c 0,30,31
 631 622 631 622 592 642 c 0,32,33
 568 654 568 654 537 654 c 2,34,-1
 291 654 l 2,35,36
 234 654 234 654 200 625 c 0,37,38
 171 600 171 600 159.5 569.5 c 128,-1,39
 148 539 148 539 141.5 511 c 128,-1,18
 135 483 135 483 131.5 447 c 128,-1,19
253 153 m 1,40,-1
 253 580 l 1,41,-1
 433 580 l 2,42,43
 567 580 567 580 567 448 c 0,44,45
 567 375 567 375 538 348 c 1,46,47
 516 326 516 326 482 318 c 1,48,-1
 571 153 l 1,49,-1
 482 153 l 1,50,-1
 396 316 l 1,51,-1
 334 328 l 1,52,-1
 334 153 l 1,53,-1
 253 153 l 1,40,-1
334 386 m 1,54,-1
 425 386 l 2,55,56
 464 386 464 386 475 397 c 128,-1,57
 486 408 486 408 486 445.5 c 128,-1,58
 486 483 486 483 471 492.5 c 128,-1,59
 456 502 456 502 425 502 c 2,60,-1
 334 502 l 1,61,-1
 334 386 l 1,54,-1
EndSplineSet
EndChar

StartChar: macron
Encoding: 175 175 112
Width: 376
GlyphClass: 2
Flags: W
LayerCount: 2
Fore
SplineSet
42 531 m 1,0,-1
 42 604 l 1,1,-1
 334 604 l 1,2,-1
 334 531 l 1,3,-1
 42 531 l 1,0,-1
EndSplineSet
Substitution2: "'smcp' Lowercase to Small Capitals lookup 1 subtable" macron.smcp
EndChar

StartChar: degree
Encoding: 176 176 113
Width: 287
GlyphClass: 2
Flags: W
LayerCount: 2
Fore
SplineSet
42 632 m 128,-1,1
 42 660 42 660 56 683.5 c 128,-1,2
 70 707 70 707 93.5 721 c 128,-1,3
 117 735 117 735 144.5 735 c 128,-1,4
 172 735 172 735 195 721 c 128,-1,5
 218 707 218 707 231.5 683.5 c 128,-1,6
 245 660 245 660 245 632 c 128,-1,7
 245 604 245 604 231.5 580.5 c 128,-1,8
 218 557 218 557 195 543.5 c 128,-1,9
 172 530 172 530 144.5 530 c 128,-1,10
 117 530 117 530 93.5 543.5 c 128,-1,11
 70 557 70 557 56 580.5 c 128,-1,0
 42 604 42 604 42 632 c 128,-1,1
96 632 m 128,-1,13
 96 612 96 612 110 598.5 c 128,-1,14
 124 585 124 585 144 585 c 128,-1,15
 164 585 164 585 178 598.5 c 128,-1,16
 192 612 192 612 192 632 c 128,-1,17
 192 652 192 652 178 666 c 128,-1,18
 164 680 164 680 144 680 c 128,-1,19
 124 680 124 680 110 666 c 128,-1,12
 96 652 96 652 96 632 c 128,-1,13
EndSplineSet
Substitution2: "'smcp' Lowercase to Small Capitals lookup 1 subtable" degree.smcp
EndChar

StartChar: plusminus
Encoding: 177 177 114
Width: 510
GlyphClass: 2
Flags: W
LayerCount: 2
Fore
SplineSet
48 76 m 1,0,-1
 48 178 l 1,1,-1
 464 178 l 1,2,-1
 464 76 l 1,3,-1
 48 76 l 1,0,-1
48 384 m 1,4,-1
 48 486 l 1,5,-1
 204 486 l 1,6,-1
 204 642 l 1,7,-1
 306 642 l 1,8,-1
 306 486 l 1,9,-1
 464 486 l 1,10,-1
 464 384 l 1,11,-1
 306 384 l 1,12,-1
 306 226 l 1,13,-1
 204 226 l 1,14,-1
 204 384 l 1,15,-1
 48 384 l 1,4,-1
EndSplineSet
EndChar

StartChar: twosuperior
Encoding: 178 178 115
Width: 395
GlyphClass: 2
Flags: W
LayerCount: 2
Fore
SplineSet
27 788 m 2,0,1
 26 788 26 788 26 808 c 128,-1,2
 26 828 26 828 26 840 c 2,3,-1
 27 857 l 1,4,5
 139 874 139 874 216 874 c 128,-1,6
 293 874 293 874 326.5 836 c 128,-1,7
 360 798 360 798 360 732 c 0,8,9
 360 622 360 622 179 474 c 1,10,-1
 359 474 l 1,11,-1
 359 388 l 1,12,-1
 30 388 l 1,13,-1
 30 470 l 1,14,15
 34 473 34 473 54.5 488 c 128,-1,16
 75 503 75 503 85.5 511 c 128,-1,17
 96 519 96 519 118.5 536.5 c 128,-1,18
 141 554 141 554 155 566.5 c 128,-1,19
 169 579 169 579 188.5 596.5 c 128,-1,20
 208 614 208 614 220 629 c 128,-1,21
 232 644 232 644 244 661 c 0,22,23
 267 694 267 694 267 727 c 128,-1,24
 267 760 267 760 250 774 c 128,-1,25
 233 788 233 788 190 788 c 2,26,-1
 27 788 l 2,0,1
EndSplineSet
EndChar

StartChar: threesuperior
Encoding: 179 179 116
Width: 407
GlyphClass: 2
Flags: W
LayerCount: 2
Fore
SplineSet
25 850 m 1,0,1
 80 870 80 870 184 870 c 0,2,3
 205 870 205 870 232 869 c 1,4,5
 293 869 293 869 325 835.5 c 128,-1,6
 357 802 357 802 357 750 c 2,7,-1
 357 718 l 2,8,9
 357 646 357 646 303 627 c 1,10,11
 357 602 357 602 357 530 c 2,12,-1
 357 505 l 2,13,14
 357 384 357 384 227 384 c 2,15,-1
 189 384 l 2,16,17
 82 384 82 384 29 403 c 1,18,-1
 30 469 l 1,19,-1
 196 470 l 2,20,21
 236 470 236 470 251 480 c 128,-1,22
 266 490 266 490 266 517 c 2,23,-1
 266 534 l 2,24,25
 266 585 266 585 200 587 c 2,26,-1
 70 592 l 1,27,-1
 70 664 l 1,28,-1
 200 671 l 2,29,30
 235 672 235 672 245.5 680 c 128,-1,31
 256 688 256 688 260 693 c 0,32,33
 267 704 267 704 267 721 c 2,34,-1
 267 736 l 2,35,36
 267 784 267 784 200 784 c 2,37,-1
 25 784 l 1,38,-1
 25 850 l 1,0,1
EndSplineSet
EndChar

StartChar: acute
Encoding: 180 180 117
Width: 242
GlyphClass: 2
Flags: W
LayerCount: 2
Fore
SplineSet
17 531 m 1,0,-1
 113 668 l 1,1,-1
 226 668 l 1,2,-1
 100 531 l 1,3,-1
 17 531 l 1,0,-1
EndSplineSet
Substitution2: "'smcp' Lowercase to Small Capitals lookup 1 subtable" acute.smcp
EndChar

StartChar: uni00B5
Encoding: 181 181 118
Width: 590
GlyphClass: 2
Flags: W
LayerCount: 2
Fore
SplineSet
192 531 m 1,0,-1
 192 170 l 2,1,2
 192 129 192 129 211 109.5 c 128,-1,3
 230 90 230 90 262 90 c 128,-1,4
 294 90 294 90 320 96 c 0,5,6
 359 105 359 105 415 140 c 1,7,-1
 415 531 l 1,8,-1
 531 531 l 1,9,-1
 531 0 l 1,10,-1
 441 0 l 1,11,-1
 415 58 l 1,12,13
 410 56 410 56 395 46.5 c 128,-1,14
 380 37 380 37 374 34 c 128,-1,15
 368 31 368 31 355 23.5 c 128,-1,16
 342 16 342 16 333.5 13 c 128,-1,17
 325 10 325 10 312 6 c 0,18,19
 284 -4 284 -4 252 -4 c 128,-1,20
 220 -4 220 -4 192 8 c 1,21,-1
 192 -270 l 1,22,-1
 76 -270 l 1,23,-1
 76 172 l 1,24,-1
 76 531 l 1,25,-1
 192 531 l 1,0,-1
EndSplineSet
EndChar

StartChar: paragraph
Encoding: 182 182 119
Width: 578
GlyphClass: 2
Flags: W
LayerCount: 2
Fore
SplineSet
34 499 m 2,0,-1
 34 592 l 2,1,2
 34 660 34 660 78.5 696 c 128,-1,3
 123 732 123 732 190 732 c 2,4,-1
 562 732 l 1,5,-1
 562 638 l 1,6,-1
 503 638 l 1,7,-1
 503 0 l 1,8,-1
 412 0 l 1,9,-1
 412 640 l 1,10,-1
 335 640 l 1,11,-1
 335 -270 l 1,12,-1
 244 -270 l 1,13,-1
 244 372 l 1,14,15
 243 372 243 372 235 367 c 0,16,17
 215 354 215 354 190 355 c 1,18,19
 113 355 113 355 73.5 396 c 128,-1,20
 34 437 34 437 34 499 c 2,0,-1
125 507 m 2,21,22
 125 446 125 446 193 446 c 2,23,-1
 244 446 l 1,24,-1
 244 640 l 1,25,-1
 193 640 l 2,26,27
 167 640 167 640 151 631 c 128,-1,28
 135 622 135 622 130 609.5 c 128,-1,29
 125 597 125 597 125 579 c 2,30,-1
 125 507 l 2,21,22
EndSplineSet
EndChar

StartChar: periodcentered
Encoding: 183 183 120
Width: 266
GlyphClass: 2
Flags: W
LayerCount: 2
Fore
SplineSet
72 345 m 2,0,-1
 72 423 l 2,1,2
 72 448 72 448 96 448 c 2,3,-1
 170 448 l 2,4,5
 195 448 195 448 195 423 c 2,6,-1
 195 345 l 2,7,8
 195 322 195 322 170 322 c 2,9,-1
 96 322 l 2,10,11
 81 322 81 322 76.5 330 c 128,-1,12
 72 338 72 338 72 345 c 2,0,-1
EndSplineSet
Substitution2: "'smcp' Lowercase to Small Capitals lookup 1 subtable" periodcentered.smcp
EndChar

StartChar: cedilla
Encoding: 184 184 121
Width: 247
GlyphClass: 2
Flags: W
LayerCount: 2
Fore
SplineSet
120 -37 m 1,0,-1
 205 -37 l 1,1,2
 205 -115 205 -115 182 -145.5 c 128,-1,3
 159 -176 159 -176 97 -176 c 2,4,-1
 42 -176 l 1,5,-1
 42 -125 l 1,6,-1
 90 -110 l 1,7,8
 115 -99 115 -99 119 -71 c 0,9,10
 120 -59 120 -59 120 -37 c 1,0,-1
EndSplineSet
EndChar

StartChar: onesuperior
Encoding: 185 185 122
Width: 270
GlyphClass: 2
Flags: W
LayerCount: 2
Fore
SplineSet
216 868 m 1,0,-1
 216 388 l 1,1,-1
 124 388 l 1,2,-1
 124 780 l 1,3,-1
 14 753 l 1,4,-1
 14 813 l 1,5,-1
 125 868 l 1,6,-1
 216 868 l 1,0,-1
EndSplineSet
EndChar

StartChar: ordmasculine
Encoding: 186 186 123
Width: 392
GlyphClass: 3
Flags: W
LayerCount: 2
Fore
SplineSet
62.5 413.5 m 128,-1,1
 25 453 25 453 25 555 c 128,-1,2
 25 657 25 657 62 696.5 c 128,-1,3
 99 736 99 736 197 736 c 128,-1,4
 295 736 295 736 331.5 696 c 128,-1,5
 368 656 368 656 368 550 c 0,6,7
 368 484 368 484 352.5 446.5 c 128,-1,8
 337 409 337 409 300 391.5 c 128,-1,9
 263 374 263 374 197 374 c 0,10,0
 100 374 100 374 62.5 413.5 c 128,-1,1
38 266 m 1,11,-1
 38 331 l 1,12,-1
 355 331 l 1,13,-1
 355 266 l 1,14,-1
 38 266 l 1,11,-1
120.5 610.5 m 128,-1,16
 117 589 117 589 117 552.5 c 128,-1,17
 117 516 117 516 121.5 495.5 c 128,-1,18
 126 475 126 475 138 465.5 c 128,-1,19
 150 456 150 456 162 454 c 128,-1,20
 174 452 174 452 198 452 c 128,-1,21
 222 452 222 452 233.5 454 c 128,-1,22
 245 456 245 456 256.5 465 c 128,-1,23
 268 474 268 474 272 494 c 0,24,25
 276 517 276 517 276 554 c 128,-1,26
 276 591 276 591 272.5 611.5 c 128,-1,27
 269 632 269 632 257.5 642.5 c 128,-1,28
 246 653 246 653 234 655.5 c 128,-1,29
 222 658 222 658 197 658 c 128,-1,30
 172 658 172 658 159.5 655.5 c 128,-1,31
 147 653 147 653 135.5 642.5 c 128,-1,15
 124 632 124 632 120.5 610.5 c 128,-1,16
EndSplineSet
Substitution2: "'smcp' Lowercase to Small Capitals lookup 1 subtable" ordmasculine.smcp
Ligature2: "'ordn' Ordinals lookup 0 subtable" o
EndChar

StartChar: guillemotright
Encoding: 187 187 124
Width: 569
GlyphClass: 2
Flags: W
LayerCount: 2
Fore
SplineSet
42 214 m 1,0,-1
 185 354 l 1,1,-1
 46 490 l 1,2,-1
 114 557 l 1,3,-1
 320 354 l 1,4,-1
 109 146 l 1,5,-1
 42 214 l 1,0,-1
250 214 m 1,6,-1
 392 354 l 1,7,-1
 253 490 l 1,8,-1
 321 557 l 1,9,-1
 527 354 l 1,10,-1
 316 146 l 1,11,-1
 250 214 l 1,6,-1
EndSplineSet
EndChar

StartChar: onequarter
Encoding: 188 188 125
Width: 920
GlyphClass: 3
Flags: W
LayerCount: 2
Fore
SplineSet
216 736 m 1,0,-1
 216 256 l 1,1,-1
 124 256 l 1,2,-1
 124 648 l 1,3,-1
 14 621 l 1,4,-1
 14 680 l 1,5,-1
 125 736 l 1,6,-1
 216 736 l 1,0,-1
192 0 m 1,7,-1
 581 745 l 1,8,-1
 669 745 l 1,9,-1
 280 0 l 1,10,-1
 192 0 l 1,7,-1
760 195 m 1,11,-1
 760 304 l 1,12,-1
 785 353 l 1,13,-1
 851 353 l 1,14,-1
 851 194 l 1,15,-1
 903 194 l 1,16,-1
 903 122 l 1,17,-1
 851 105 l 1,18,-1
 851 0 l 1,19,-1
 760 0 l 1,20,-1
 760 105 l 1,21,-1
 524 105 l 1,22,-1
 502 144 l 1,23,-1
 687 479 l 1,24,-1
 785 479 l 1,25,-1
 631 195 l 1,26,-1
 760 195 l 1,11,-1
EndSplineSet
Ligature2: "'frac' Diagonal Fractions lookup 7 subtable" one slash four
Ligature2: "'frac' Diagonal Fractions lookup 7 subtable" one fraction four
EndChar

StartChar: onehalf
Encoding: 189 189 126
Width: 984
GlyphClass: 3
Flags: W
LayerCount: 2
Fore
SplineSet
216 736 m 1,0,-1
 216 256 l 1,1,-1
 124 256 l 1,2,-1
 124 648 l 1,3,-1
 14 621 l 1,4,-1
 14 680 l 1,5,-1
 125 736 l 1,6,-1
 216 736 l 1,0,-1
185 0 m 1,7,-1
 574 745 l 1,8,-1
 662 745 l 1,9,-1
 273 0 l 1,10,-1
 185 0 l 1,7,-1
615 400 m 2,11,12
 614 400 614 400 614 420 c 128,-1,13
 614 440 614 440 615 452 c 1,14,-1
 615 469 l 1,15,16
 728 486 728 486 805.5 486 c 128,-1,17
 883 486 883 486 916.5 448 c 128,-1,18
 950 410 950 410 950 344 c 0,19,20
 950 289 950 289 912 235 c 0,21,22
 871 177 871 177 839 148 c 0,23,24
 797 110 797 110 768 86 c 1,25,-1
 950 86 l 1,26,-1
 950 0 l 1,27,-1
 618 0 l 1,28,-1
 618 82 l 1,29,30
 623 86 623 86 640 98.5 c 128,-1,31
 657 111 657 111 667.5 119 c 128,-1,32
 678 127 678 127 697.5 141.5 c 128,-1,33
 717 156 717 156 730 167.5 c 128,-1,34
 743 179 743 179 761 195 c 128,-1,35
 779 211 779 211 791.5 224 c 128,-1,36
 804 237 804 237 817.5 253.5 c 128,-1,37
 831 270 831 270 839 284 c 0,38,39
 857 315 857 315 857 338.5 c 128,-1,40
 857 362 857 362 850 375 c 0,41,42
 835 400 835 400 780 400 c 2,43,-1
 615 400 l 2,11,12
EndSplineSet
Ligature2: "'frac' Diagonal Fractions lookup 7 subtable" one slash two
Ligature2: "'frac' Diagonal Fractions lookup 7 subtable" one fraction two
EndChar

StartChar: threequarters
Encoding: 190 190 127
Width: 1035
GlyphClass: 3
Flags: W
LayerCount: 2
Fore
SplineSet
25 718 m 1,0,1
 79 737 79 737 179 737 c 0,2,3
 205 737 205 737 239.5 737 c 128,-1,4
 274 737 274 737 303 721 c 0,5,6
 359 689 359 689 359 617 c 2,7,-1
 359 586 l 2,8,9
 359 514 359 514 305 494 c 1,10,11
 359 470 359 470 359 397 c 2,12,-1
 359 372 l 2,13,14
 359 251 359 251 229 251 c 0,15,16
 225 251 225 251 204 251 c 128,-1,17
 183 251 183 251 179 251 c 128,-1,18
 175 251 175 251 157 251.5 c 128,-1,19
 139 252 139 252 133 252.5 c 128,-1,20
 127 253 127 253 112.5 254 c 128,-1,21
 98 255 98 255 90 256.5 c 128,-1,22
 82 258 82 258 70 259 c 1,23,24
 51 263 51 263 29 270 c 1,25,-1
 30 337 l 1,26,-1
 198 337 l 2,27,28
 238 337 238 337 253 347.5 c 128,-1,29
 268 358 268 358 268 385 c 2,30,-1
 268 401 l 2,31,32
 268 453 268 453 202 454 c 1,33,-1
 70 459 l 1,34,-1
 70 531 l 1,35,-1
 202 539 l 1,36,37
 237 540 237 540 253 551.5 c 128,-1,38
 269 563 269 563 269 588 c 2,39,-1
 269 604 l 2,40,41
 269 652 269 652 202 652 c 2,42,-1
 25 652 l 1,43,-1
 25 718 l 1,0,1
293 0 m 1,44,-1
 682 745 l 1,45,-1
 770 745 l 1,46,-1
 381 0 l 1,47,-1
 293 0 l 1,44,-1
851 193 m 1,48,-1
 851 304 l 1,49,-1
 874 353 l 1,50,-1
 939 353 l 1,51,-1
 939 193 l 1,52,-1
 992 193 l 1,53,-1
 992 122 l 1,54,-1
 939 106 l 1,55,-1
 939 1 l 1,56,-1
 851 1 l 1,57,-1
 851 106 l 1,58,-1
 612 106 l 1,59,-1
 590 145 l 1,60,-1
 775 479 l 1,61,-1
 870 479 l 1,62,-1
 716 193 l 1,63,-1
 851 193 l 1,48,-1
EndSplineSet
Ligature2: "'frac' Diagonal Fractions lookup 7 subtable" three slash four
Ligature2: "'frac' Diagonal Fractions lookup 7 subtable" three fraction four
EndChar

StartChar: questiondown
Encoding: 191 191 128
Width: 543
GlyphClass: 2
Flags: W
LayerCount: 2
Fore
SplineSet
526 -158 m 2,0,1
 525 -158 525 -158 526 -192 c 1,2,3
 526 -233 526 -233 525 -244 c 1,4,5
 382 -269 382 -269 290 -269 c 0,6,7
 267 -269 267 -269 254.5 -268.5 c 128,-1,8
 242 -268 242 -268 242 -268 c 1,9,10
 184 -268 184 -268 141.5 -250.5 c 128,-1,11
 99 -233 99 -233 77 -204 c 0,12,13
 34 -147 34 -147 34 -74 c 2,14,-1
 34 10 l 1,15,16
 33 103 33 103 94 149 c 0,17,18
 143 185 143 185 222 185 c 0,19,20
 242 185 242 185 265 182 c 1,21,-1
 265 276 l 1,22,-1
 366 276 l 1,23,-1
 366 93 l 1,24,25
 325 94 325 94 293.5 94 c 128,-1,26
 262 94 262 94 233.5 93 c 128,-1,27
 205 92 205 92 182.5 68 c 128,-1,28
 160 44 160 44 158 4 c 1,29,30
 157 -53 157 -53 157 -66 c 0,31,32
 157 -106 157 -106 184 -132 c 128,-1,33
 211 -158 211 -158 263 -158 c 0,34,35
 265 -158 265 -158 268 -158 c 2,36,-1
 526 -158 l 2,0,1
351 471 m 1,37,38
 375 470 375 470 375 448 c 2,39,-1
 375 372 l 1,40,41
 374 348 374 348 353 347 c 1,42,-1
 277 347 l 1,43,44
 256 351 256 351 255 372 c 1,45,-1
 255 446 l 2,46,47
 255 457 255 457 262 464 c 128,-1,48
 269 471 269 471 279 471 c 2,49,-1
 351 471 l 1,37,38
EndSplineSet
Substitution2: "'case' Case-Sensitive Forms lookup 18 subtable" questiondown.alt
Substitution2: "'smcp' Lowercase to Small Capitals lookup 1 subtable" questiondown.smcp
EndChar

StartChar: Agrave
Encoding: 192 192 129
Width: 684
GlyphClass: 2
Flags: W
LayerCount: 2
Fore
SplineSet
38 0 m 1,0,-1
 293 732 l 1,1,-1
 421 732 l 1,2,-1
 666 0 l 1,3,-1
 539 0 l 1,4,-1
 483 177 l 1,5,-1
 224 177 l 1,6,-1
 167 0 l 1,7,-1
 38 0 l 1,0,-1
257 283 m 1,8,-1
 453 283 l 1,9,-1
 357 574 l 1,10,-1
 257 283 l 1,8,-1
190 934 m 1,11,-1
 302 934 l 1,12,-1
 399 797 l 1,13,-1
 316 797 l 1,14,-1
 190 934 l 1,11,-1
EndSplineSet
Substitution2: "'c2sc' Capitals to Small Capitals in Latin lookup 2 subtable" agrave.smcp
EndChar

StartChar: Aacute
Encoding: 193 193 130
Width: 684
GlyphClass: 2
Flags: W
LayerCount: 2
Fore
SplineSet
38 0 m 1,0,-1
 293 732 l 1,1,-1
 421 732 l 1,2,-1
 666 0 l 1,3,-1
 539 0 l 1,4,-1
 483 177 l 1,5,-1
 224 177 l 1,6,-1
 167 0 l 1,7,-1
 38 0 l 1,0,-1
257 283 m 1,8,-1
 453 283 l 1,9,-1
 357 574 l 1,10,-1
 257 283 l 1,8,-1
316 797 m 1,11,-1
 412 934 l 1,12,-1
 525 934 l 1,13,-1
 399 797 l 1,14,-1
 316 797 l 1,11,-1
EndSplineSet
Substitution2: "'c2sc' Capitals to Small Capitals in Latin lookup 2 subtable" aacute.smcp
EndChar

StartChar: Acircumflex
Encoding: 194 194 131
Width: 684
GlyphClass: 2
Flags: W
LayerCount: 2
Fore
SplineSet
38 0 m 1,0,-1
 293 732 l 1,1,-1
 421 732 l 1,2,-1
 666 0 l 1,3,-1
 539 0 l 1,4,-1
 483 177 l 1,5,-1
 224 177 l 1,6,-1
 167 0 l 1,7,-1
 38 0 l 1,0,-1
257 283 m 1,8,-1
 453 283 l 1,9,-1
 357 574 l 1,10,-1
 257 283 l 1,8,-1
206 797 m 1,11,-1
 317 930 l 1,12,-1
 409 930 l 1,13,-1
 508 797 l 1,14,-1
 423 797 l 1,15,-1
 360 861 l 1,16,-1
 292 797 l 1,17,-1
 206 797 l 1,11,-1
EndSplineSet
Substitution2: "'c2sc' Capitals to Small Capitals in Latin lookup 2 subtable" acircumflex.smcp
EndChar

StartChar: Atilde
Encoding: 195 195 132
Width: 684
GlyphClass: 2
Flags: W
LayerCount: 2
Fore
SplineSet
38 0 m 1,0,-1
 293 732 l 1,1,-1
 421 732 l 1,2,-1
 666 0 l 1,3,-1
 539 0 l 1,4,-1
 483 177 l 1,5,-1
 224 177 l 1,6,-1
 167 0 l 1,7,-1
 38 0 l 1,0,-1
257 283 m 1,8,-1
 453 283 l 1,9,-1
 357 574 l 1,10,-1
 257 283 l 1,8,-1
415 880 m 0,11,12
 449 880 449 880 504 917 c 1,13,-1
 528 864 l 1,14,15
 506 842 506 842 494 832 c 128,-1,16
 482 822 482 822 459 810 c 128,-1,17
 436 798 436 798 425 798 c 0,18,19
 389 798 389 798 355.5 815 c 128,-1,20
 322 832 322 832 304 832 c 0,21,22
 277 832 277 832 262 825 c 128,-1,23
 247 818 247 818 232.5 809.5 c 128,-1,24
 218 801 218 801 209 797 c 1,25,-1
 186 847 l 1,26,27
 255 915 255 915 306 915 c 1,28,29
 332 914 332 914 366 897 c 128,-1,30
 400 880 400 880 407 880 c 128,-1,31
 414 880 414 880 415 880 c 0,11,12
EndSplineSet
Substitution2: "'c2sc' Capitals to Small Capitals in Latin lookup 2 subtable" atilde.smcp
EndChar

StartChar: Adieresis
Encoding: 196 196 133
Width: 684
GlyphClass: 2
Flags: W
LayerCount: 2
Fore
SplineSet
38 0 m 1,0,-1
 293 732 l 1,1,-1
 421 732 l 1,2,-1
 666 0 l 1,3,-1
 539 0 l 1,4,-1
 483 177 l 1,5,-1
 224 177 l 1,6,-1
 167 0 l 1,7,-1
 38 0 l 1,0,-1
257 283 m 1,8,-1
 453 283 l 1,9,-1
 357 574 l 1,10,-1
 257 283 l 1,8,-1
174 853 m 128,-1,12
 174 876 174 876 190.5 892 c 128,-1,13
 207 908 207 908 230 908 c 128,-1,14
 253 908 253 908 269 892 c 128,-1,15
 285 876 285 876 285 853 c 128,-1,16
 285 830 285 830 269 813.5 c 128,-1,17
 253 797 253 797 230 797 c 128,-1,18
 207 797 207 797 190.5 813.5 c 128,-1,11
 174 830 174 830 174 853 c 128,-1,12
429 853 m 128,-1,20
 429 876 429 876 445.5 892 c 128,-1,21
 462 908 462 908 485 908 c 128,-1,22
 508 908 508 908 524 892 c 128,-1,23
 540 876 540 876 540 853 c 128,-1,24
 540 830 540 830 524 813.5 c 128,-1,25
 508 797 508 797 485 797 c 128,-1,26
 462 797 462 797 445.5 813.5 c 128,-1,19
 429 830 429 830 429 853 c 128,-1,20
EndSplineSet
Substitution2: "'c2sc' Capitals to Small Capitals in Latin lookup 2 subtable" adieresis.smcp
EndChar

StartChar: Aring
Encoding: 197 197 134
Width: 684
GlyphClass: 2
Flags: W
LayerCount: 2
Fore
SplineSet
38 0 m 1,0,-1
 293 732 l 1,1,-1
 421 732 l 1,2,-1
 666 0 l 1,3,-1
 539 0 l 1,4,-1
 483 177 l 1,5,-1
 224 177 l 1,6,-1
 167 0 l 1,7,-1
 38 0 l 1,0,-1
257 283 m 1,8,-1
 453 283 l 1,9,-1
 357 574 l 1,10,-1
 257 283 l 1,8,-1
269.5 780.5 m 128,-1,12
 283 757 283 757 306.5 743.5 c 128,-1,13
 330 730 330 730 357.5 730 c 128,-1,14
 385 730 385 730 408.5 743.5 c 128,-1,15
 432 757 432 757 445.5 780.5 c 128,-1,16
 459 804 459 804 459 839.5 c 128,-1,17
 459 875 459 875 429.5 905 c 128,-1,18
 400 935 400 935 358 935 c 128,-1,19
 316 935 316 935 286 905 c 128,-1,20
 256 875 256 875 256 839.5 c 128,-1,11
 256 804 256 804 269.5 780.5 c 128,-1,12
310 832.5 m 128,-1,22
 310 852 310 852 324 866 c 128,-1,23
 338 880 338 880 357.5 880 c 128,-1,24
 377 880 377 880 391 866 c 0,25,26
 397 859 397 859 400.5 850.5 c 128,-1,27
 404 842 404 842 404 827.5 c 128,-1,28
 404 813 404 813 390.5 799.5 c 128,-1,29
 377 786 377 786 357.5 786 c 128,-1,30
 338 786 338 786 324 799.5 c 128,-1,21
 310 813 310 813 310 832.5 c 128,-1,22
EndSplineSet
Substitution2: "'c2sc' Capitals to Small Capitals in Latin lookup 2 subtable" aring.smcp
EndChar

StartChar: AE
Encoding: 198 198 135
Width: 942
GlyphClass: 2
Flags: W
LayerCount: 2
Fore
SplineSet
524 732 m 2,0,-1
 568 732 l 2,1,2
 578 732 578 732 720.5 727 c 128,-1,3
 863 722 863 722 904 716 c 1,4,-1
 904 621 l 1,5,-1
 610 621 l 2,6,7
 574 621 574 621 566 603 c 0,8,9
 560 590 560 590 559 567 c 1,10,-1
 559 417 l 1,11,-1
 861 406 l 1,12,-1
 861 312 l 1,13,-1
 559 302 l 1,14,-1
 559 158 l 2,15,16
 559 133 559 133 565 127 c 128,-1,17
 571 121 571 121 572.5 118.5 c 128,-1,18
 574 116 574 116 579.5 114 c 128,-1,19
 585 112 585 112 586.5 111.5 c 128,-1,20
 588 111 588 111 595 110.5 c 128,-1,21
 602 110 602 110 603 110 c 128,-1,22
 604 110 604 110 612 110 c 128,-1,23
 620 110 620 110 621 110 c 2,24,-1
 903 109 l 1,25,-1
 903 13 l 1,26,27
 869 8 869 8 628 -3 c 1,28,-1
 600 -4 l 2,29,30
 590 -5 590 -5 579.5 -5 c 128,-1,31
 569 -5 569 -5 553 -3.5 c 128,-1,32
 537 -2 537 -2 515.5 5.5 c 128,-1,33
 494 13 494 13 478 27 c 0,34,35
 443 58 443 58 443 121 c 2,36,-1
 443 206 l 1,37,-1
 255 206 l 1,38,-1
 153 0 l 1,39,-1
 25 0 l 1,40,-1
 314 586 l 2,41,42
 357 673 357 673 414 703 c 0,43,44
 467 732 467 732 524 732 c 2,0,-1
443 312 m 1,45,-1
 443 593 l 1,46,-1
 306 312 l 1,47,-1
 443 312 l 1,45,-1
EndSplineSet
EndChar

StartChar: Ccedilla
Encoding: 199 199 136
Width: 574
GlyphClass: 2
Flags: W
LayerCount: 2
Fore
SplineSet
59.5 214 m 128,-1,1
 47 280 47 280 47 354.5 c 128,-1,2
 47 429 47 429 51.5 477 c 128,-1,3
 56 525 56 525 66.5 568 c 128,-1,4
 77 611 77 611 95.5 642 c 128,-1,5
 114 673 114 673 141 695 c 0,6,7
 195 740 195 740 294 740 c 0,8,9
 428 740 428 740 545 710 c 1,10,-1
 545 619 l 1,11,12
 545 619 545 619 537 619.5 c 128,-1,13
 529 620 529 620 515.5 621 c 128,-1,14
 502 622 502 622 484 623.5 c 128,-1,15
 466 625 466 625 445 626 c 128,-1,16
 424 627 424 627 402 629 c 1,17,18
 354 631 354 631 316.5 631 c 128,-1,19
 279 631 279 631 256 625.5 c 128,-1,20
 233 620 233 620 213.5 604 c 128,-1,21
 194 588 194 588 184 558 c 0,22,23
 163 496 163 496 163 364.5 c 128,-1,24
 163 233 163 233 196 168 c 128,-1,25
 229 103 229 103 315 103 c 0,26,27
 408 103 408 103 511 109 c 2,28,-1
 545 111 l 1,29,-1
 545 20 l 1,30,31
 447 -6 447 -6 312 -6 c 0,32,33
 227 -6 227 -6 178 20.5 c 128,-1,34
 129 47 129 47 100.5 97.5 c 128,-1,0
 72 148 72 148 59.5 214 c 128,-1,1
230 -36 m 1,35,-1
 314 -36 l 1,36,37
 314 -114 314 -114 291 -145 c 128,-1,38
 268 -176 268 -176 206 -176 c 2,39,-1
 152 -176 l 1,40,-1
 152 -124 l 1,41,-1
 199 -109 l 1,42,43
 224 -98 224 -98 228 -70 c 0,44,45
 230 -58 230 -58 230 -36 c 1,35,-1
EndSplineSet
Substitution2: "'c2sc' Capitals to Small Capitals in Latin lookup 2 subtable" ccedilla.smcp
EndChar

StartChar: Egrave
Encoding: 200 200 137
Width: 567
GlyphClass: 2
Flags: W
LayerCount: 2
Fore
SplineSet
66 136 m 2,0,-1
 66 588 l 2,1,2
 66 643 66 643 89.5 677 c 128,-1,3
 113 711 113 711 142.5 721.5 c 128,-1,4
 172 732 172 732 191 732 c 128,-1,5
 210 732 210 732 351 727 c 128,-1,6
 492 722 492 722 533 716 c 1,7,-1
 533 621 l 1,8,-1
 234 621 l 2,9,10
 197 621 197 621 188 603 c 0,11,12
 182 589 182 589 182 565 c 2,13,-1
 182 420 l 1,14,-1
 489 410 l 1,15,-1
 489 315 l 1,16,-1
 182 305 l 1,17,-1
 182 160 l 1,18,19
 183 118 183 118 210 111 c 0,20,21
 223 108 223 108 244 108 c 2,22,-1
 533 108 l 1,23,-1
 533 14 l 1,24,25
 501 10 501 10 292 0 c 2,26,-1
 223 -3 l 2,27,28
 215 -3 215 -3 204.5 -3 c 128,-1,29
 194 -3 194 -3 178 -1.5 c 128,-1,30
 162 0 162 0 140 8.5 c 128,-1,31
 118 17 118 17 102 31 c 0,32,33
 66 65 66 65 66 136 c 2,0,-1
169 931 m 1,34,-1
 281 931 l 1,35,-1
 378 794 l 1,36,-1
 295 794 l 1,37,-1
 169 931 l 1,34,-1
EndSplineSet
Substitution2: "'c2sc' Capitals to Small Capitals in Latin lookup 2 subtable" egrave.smcp
EndChar

StartChar: Eacute
Encoding: 201 201 138
Width: 567
GlyphClass: 2
Flags: W
LayerCount: 2
Fore
SplineSet
66 136 m 2,0,-1
 66 588 l 2,1,2
 66 643 66 643 89.5 677 c 128,-1,3
 113 711 113 711 142.5 721.5 c 128,-1,4
 172 732 172 732 191 732 c 128,-1,5
 210 732 210 732 351 727 c 128,-1,6
 492 722 492 722 533 716 c 1,7,-1
 533 621 l 1,8,-1
 234 621 l 2,9,10
 197 621 197 621 188 603 c 0,11,12
 182 589 182 589 182 565 c 2,13,-1
 182 420 l 1,14,-1
 489 410 l 1,15,-1
 489 315 l 1,16,-1
 182 305 l 1,17,-1
 182 160 l 1,18,19
 183 118 183 118 210 111 c 0,20,21
 223 108 223 108 244 108 c 2,22,-1
 533 108 l 1,23,-1
 533 14 l 1,24,25
 501 10 501 10 292 0 c 2,26,-1
 223 -3 l 2,27,28
 215 -3 215 -3 204.5 -3 c 128,-1,29
 194 -3 194 -3 178 -1.5 c 128,-1,30
 162 0 162 0 140 8.5 c 128,-1,31
 118 17 118 17 102 31 c 0,32,33
 66 65 66 65 66 136 c 2,0,-1
280 794 m 1,34,-1
 376 930 l 1,35,-1
 489 930 l 1,36,-1
 363 794 l 1,37,-1
 280 794 l 1,34,-1
EndSplineSet
Substitution2: "'c2sc' Capitals to Small Capitals in Latin lookup 2 subtable" eacute.smcp
EndChar

StartChar: Ecircumflex
Encoding: 202 202 139
Width: 567
GlyphClass: 2
Flags: W
LayerCount: 2
Fore
SplineSet
66 136 m 2,0,-1
 66 588 l 2,1,2
 66 643 66 643 89.5 677 c 128,-1,3
 113 711 113 711 142.5 721.5 c 128,-1,4
 172 732 172 732 191 732 c 128,-1,5
 210 732 210 732 351 727 c 128,-1,6
 492 722 492 722 533 716 c 1,7,-1
 533 621 l 1,8,-1
 234 621 l 2,9,10
 197 621 197 621 188 603 c 0,11,12
 182 589 182 589 182 565 c 2,13,-1
 182 420 l 1,14,-1
 489 410 l 1,15,-1
 489 315 l 1,16,-1
 182 305 l 1,17,-1
 182 160 l 1,18,19
 183 118 183 118 210 111 c 0,20,21
 223 108 223 108 244 108 c 2,22,-1
 533 108 l 1,23,-1
 533 14 l 1,24,25
 501 10 501 10 292 0 c 2,26,-1
 223 -3 l 2,27,28
 215 -3 215 -3 204.5 -3 c 128,-1,29
 194 -3 194 -3 178 -1.5 c 128,-1,30
 162 0 162 0 140 8.5 c 128,-1,31
 118 17 118 17 102 31 c 0,32,33
 66 65 66 65 66 136 c 2,0,-1
166 797 m 1,34,-1
 277 930 l 1,35,-1
 369 930 l 1,36,-1
 468 797 l 1,37,-1
 383 797 l 1,38,-1
 320 861 l 1,39,-1
 252 797 l 1,40,-1
 166 797 l 1,34,-1
EndSplineSet
Substitution2: "'c2sc' Capitals to Small Capitals in Latin lookup 2 subtable" ecircumflex.smcp
EndChar

StartChar: Edieresis
Encoding: 203 203 140
Width: 567
GlyphClass: 2
Flags: W
LayerCount: 2
Fore
SplineSet
66 136 m 2,0,-1
 66 588 l 2,1,2
 66 643 66 643 89.5 677 c 128,-1,3
 113 711 113 711 142.5 721.5 c 128,-1,4
 172 732 172 732 191 732 c 128,-1,5
 210 732 210 732 351 727 c 128,-1,6
 492 722 492 722 533 716 c 1,7,-1
 533 621 l 1,8,-1
 234 621 l 2,9,10
 197 621 197 621 188 603 c 0,11,12
 182 589 182 589 182 565 c 2,13,-1
 182 420 l 1,14,-1
 489 410 l 1,15,-1
 489 315 l 1,16,-1
 182 305 l 1,17,-1
 182 160 l 1,18,19
 183 118 183 118 210 111 c 0,20,21
 223 108 223 108 244 108 c 2,22,-1
 533 108 l 1,23,-1
 533 14 l 1,24,25
 501 10 501 10 292 0 c 2,26,-1
 223 -3 l 2,27,28
 215 -3 215 -3 204.5 -3 c 128,-1,29
 194 -3 194 -3 178 -1.5 c 128,-1,30
 162 0 162 0 140 8.5 c 128,-1,31
 118 17 118 17 102 31 c 0,32,33
 66 65 66 65 66 136 c 2,0,-1
131 850 m 128,-1,35
 131 873 131 873 147.5 889 c 128,-1,36
 164 905 164 905 187 905 c 128,-1,37
 210 905 210 905 226 889 c 128,-1,38
 242 873 242 873 242 850 c 128,-1,39
 242 827 242 827 226 810.5 c 128,-1,40
 210 794 210 794 187 794 c 128,-1,41
 164 794 164 794 147.5 810.5 c 128,-1,34
 131 827 131 827 131 850 c 128,-1,35
386 850 m 128,-1,43
 386 873 386 873 402.5 889 c 128,-1,44
 419 905 419 905 442 905 c 128,-1,45
 465 905 465 905 481 889 c 128,-1,46
 497 873 497 873 497 850 c 128,-1,47
 497 827 497 827 481 810.5 c 128,-1,48
 465 794 465 794 442 794 c 128,-1,49
 419 794 419 794 402.5 810.5 c 128,-1,42
 386 827 386 827 386 850 c 128,-1,43
EndSplineSet
Substitution2: "'c2sc' Capitals to Small Capitals in Latin lookup 2 subtable" edieresis.smcp
EndChar

StartChar: Igrave
Encoding: 204 204 141
Width: 234
GlyphClass: 2
Flags: W
LayerCount: 2
Fore
SplineSet
68 0 m 1,0,-1
 68 732 l 1,1,-1
 184 732 l 1,2,-1
 184 0 l 1,3,-1
 68 0 l 1,0,-1
-42 934 m 1,4,-1
 71 934 l 1,5,-1
 167 797 l 1,6,-1
 84 797 l 1,7,-1
 -42 934 l 1,4,-1
EndSplineSet
Substitution2: "'c2sc' Capitals to Small Capitals in Latin lookup 2 subtable" igrave.smcp
EndChar

StartChar: Iacute
Encoding: 205 205 142
Width: 234
GlyphClass: 2
Flags: W
LayerCount: 2
Fore
SplineSet
68 0 m 1,0,-1
 68 732 l 1,1,-1
 184 732 l 1,2,-1
 184 0 l 1,3,-1
 68 0 l 1,0,-1
84 797 m 1,4,-1
 181 934 l 1,5,-1
 293 934 l 1,6,-1
 167 797 l 1,7,-1
 84 797 l 1,4,-1
EndSplineSet
Substitution2: "'c2sc' Capitals to Small Capitals in Latin lookup 2 subtable" iacute.smcp
EndChar

StartChar: Icircumflex
Encoding: 206 206 143
Width: 234
GlyphClass: 2
Flags: W
LayerCount: 2
Fore
SplineSet
68 0 m 1,0,-1
 68 732 l 1,1,-1
 184 732 l 1,2,-1
 184 0 l 1,3,-1
 68 0 l 1,0,-1
-26 797 m 1,4,-1
 86 930 l 1,5,-1
 178 930 l 1,6,-1
 277 797 l 1,7,-1
 192 797 l 1,8,-1
 129 861 l 1,9,-1
 60 797 l 1,10,-1
 -26 797 l 1,4,-1
EndSplineSet
Substitution2: "'c2sc' Capitals to Small Capitals in Latin lookup 2 subtable" icircumflex.smcp
EndChar

StartChar: Idieresis
Encoding: 207 207 144
Width: 234
GlyphClass: 2
Flags: W
LayerCount: 2
Fore
SplineSet
68 0 m 1,0,-1
 68 732 l 1,1,-1
 184 732 l 1,2,-1
 184 0 l 1,3,-1
 68 0 l 1,0,-1
-58 853 m 128,-1,5
 -58 876 -58 876 -41 892 c 128,-1,6
 -24 908 -24 908 -1 908 c 128,-1,7
 22 908 22 908 38 892 c 128,-1,8
 54 876 54 876 54 853 c 128,-1,9
 54 830 54 830 38 813.5 c 128,-1,10
 22 797 22 797 -1 797 c 128,-1,11
 -24 797 -24 797 -41 813.5 c 128,-1,4
 -58 830 -58 830 -58 853 c 128,-1,5
198 853 m 128,-1,13
 198 876 198 876 214.5 892 c 128,-1,14
 231 908 231 908 254 908 c 128,-1,15
 277 908 277 908 293 892 c 128,-1,16
 309 876 309 876 309 853 c 128,-1,17
 309 830 309 830 293 813.5 c 128,-1,18
 277 797 277 797 254 797 c 128,-1,19
 231 797 231 797 214.5 813.5 c 128,-1,12
 198 830 198 830 198 853 c 128,-1,13
EndSplineSet
Substitution2: "'c2sc' Capitals to Small Capitals in Latin lookup 2 subtable" idieresis.smcp
EndChar

StartChar: Eth
Encoding: 208 208 145
Width: 660
GlyphClass: 2
Flags: W
LayerCount: 2
Fore
SplineSet
3 342 m 1,0,-1
 3 404 l 1,1,-1
 68 404 l 1,2,-1
 68 731 l 2,3,4
 68 732 68 732 365 732 c 0,5,6
 621 732 621 732 621 363 c 0,7,8
 621 208 621 208 562 108 c 0,9,10
 533 57 533 57 482.5 28.5 c 128,-1,11
 432 0 432 0 365 0 c 2,12,-1
 68 0 l 1,13,-1
 68 342 l 1,14,-1
 3 342 l 1,0,-1
184 107 m 1,15,-1
 358 107 l 2,16,17
 503 107 503 107 503 364 c 0,18,19
 503 510 503 510 463 569 c 0,20,21
 426 623 426 623 358 623 c 2,22,-1
 184 623 l 1,23,-1
 184 404 l 1,24,-1
 305 404 l 1,25,-1
 305 342 l 1,26,-1
 184 342 l 1,27,-1
 184 107 l 1,15,-1
EndSplineSet
Substitution2: "'c2sc' Capitals to Small Capitals in Latin lookup 2 subtable" eth.smcp
EndChar

StartChar: Ntilde
Encoding: 209 209 146
Width: 678
GlyphClass: 2
Flags: W
LayerCount: 2
Fore
SplineSet
68 0 m 1,0,-1
 68 732 l 1,1,-1
 186 732 l 1,2,-1
 512 215 l 1,3,-1
 512 732 l 1,4,-1
 628 732 l 1,5,-1
 628 0 l 1,6,-1
 512 0 l 1,7,-1
 185 514 l 1,8,-1
 185 0 l 1,9,-1
 68 0 l 1,0,-1
406 880 m 0,10,11
 440 880 440 880 495 917 c 1,12,-1
 519 864 l 1,13,14
 496 842 496 842 484.5 832 c 128,-1,15
 473 822 473 822 450 810 c 128,-1,16
 427 798 427 798 416 798 c 0,17,18
 380 798 380 798 346.5 815 c 128,-1,19
 313 832 313 832 295 832 c 0,20,21
 268 832 268 832 253 825 c 128,-1,22
 238 818 238 818 223.5 809.5 c 128,-1,23
 209 801 209 801 200 797 c 1,24,-1
 177 847 l 1,25,26
 210 879 210 879 238 897 c 128,-1,27
 266 915 266 915 294.5 914.5 c 128,-1,28
 323 914 323 914 356 897 c 128,-1,29
 389 880 389 880 397 880 c 128,-1,30
 405 880 405 880 406 880 c 0,10,11
EndSplineSet
AlternateSubs2: "'salt' Stylistic Alternatives in Latin lookup 16 subtable" Ntilde.salt
Substitution2: "'c2sc' Capitals to Small Capitals in Latin lookup 2 subtable" ntilde.smcp
EndChar

StartChar: Ograve
Encoding: 210 210 147
Width: 672
GlyphClass: 2
Flags: W
LayerCount: 2
Fore
SplineSet
58 269.5 m 128,-1,1
 55 311 55 311 55 372 c 128,-1,2
 55 433 55 433 62.5 489.5 c 128,-1,3
 70 546 70 546 83 585.5 c 128,-1,4
 96 625 96 625 117 653 c 128,-1,5
 138 681 138 681 160.5 697 c 128,-1,6
 183 713 183 713 215 722 c 0,7,8
 267 737 267 737 327 737 c 128,-1,9
 387 737 387 737 416.5 734 c 128,-1,10
 446 731 446 731 478.5 722 c 128,-1,11
 511 713 511 713 533 697 c 128,-1,12
 555 681 555 681 575.5 653 c 128,-1,13
 596 625 596 625 608 586 c 0,14,15
 635 499 635 499 635 361 c 0,16,17
 635 160 635 160 578 82 c 0,18,19
 539 29 539 29 482 12 c 0,20,21
 411 -9 411 -9 294 -3 c 0,22,23
 236 0 236 0 210.5 9 c 128,-1,24
 185 18 185 18 166 28.5 c 128,-1,25
 147 39 147 39 133 54 c 128,-1,26
 119 69 119 69 106 89 c 128,-1,27
 93 109 93 109 84 135.5 c 128,-1,28
 75 162 75 162 68 195 c 128,-1,0
 61 228 61 228 58 269.5 c 128,-1,1
173.5 446.5 m 128,-1,30
 171 409 171 409 171 357 c 128,-1,31
 171 305 171 305 174.5 265.5 c 128,-1,32
 178 226 178 226 186.5 196.5 c 128,-1,33
 195 167 195 167 207 150 c 128,-1,34
 219 133 219 133 240 122 c 0,35,36
 275 105 275 105 336.5 105 c 128,-1,37
 398 105 398 105 429 114.5 c 128,-1,38
 460 124 460 124 481.5 152 c 128,-1,39
 503 180 503 180 511 229.5 c 128,-1,40
 519 279 519 279 519 339 c 128,-1,41
 519 399 519 399 517.5 430 c 128,-1,42
 516 461 516 461 512.5 486 c 128,-1,43
 509 511 509 511 504.5 530.5 c 128,-1,44
 500 550 500 550 492.5 564.5 c 128,-1,45
 485 579 485 579 478 589.5 c 128,-1,46
 471 600 471 600 459 607 c 128,-1,47
 447 614 447 614 436.5 618 c 128,-1,48
 426 622 426 622 410 625 c 1,49,50
 384 628 384 628 352 628 c 128,-1,51
 320 628 320 628 304.5 627 c 128,-1,52
 289 626 289 626 269.5 622.5 c 128,-1,53
 250 619 250 619 239 611.5 c 128,-1,54
 228 604 228 604 215 591 c 128,-1,55
 202 578 202 578 195.5 558.5 c 128,-1,56
 189 539 189 539 182.5 511.5 c 128,-1,29
 176 484 176 484 173.5 446.5 c 128,-1,30
178 934 m 1,57,-1
 291 934 l 1,58,-1
 387 797 l 1,59,-1
 304 797 l 1,60,-1
 178 934 l 1,57,-1
EndSplineSet
Substitution2: "'c2sc' Capitals to Small Capitals in Latin lookup 2 subtable" ograve.smcp
EndChar

StartChar: Oacute
Encoding: 211 211 148
Width: 672
GlyphClass: 2
Flags: W
LayerCount: 2
Fore
SplineSet
58 269.5 m 128,-1,1
 55 311 55 311 55 372 c 128,-1,2
 55 433 55 433 62.5 489.5 c 128,-1,3
 70 546 70 546 83 585.5 c 128,-1,4
 96 625 96 625 117 653 c 128,-1,5
 138 681 138 681 160.5 697 c 128,-1,6
 183 713 183 713 215 722 c 0,7,8
 267 737 267 737 327 737 c 128,-1,9
 387 737 387 737 416.5 734 c 128,-1,10
 446 731 446 731 478.5 722 c 128,-1,11
 511 713 511 713 533 697 c 128,-1,12
 555 681 555 681 575.5 653 c 128,-1,13
 596 625 596 625 608 586 c 0,14,15
 635 499 635 499 635 361 c 0,16,17
 635 160 635 160 578 82 c 0,18,19
 539 29 539 29 482 12 c 0,20,21
 411 -9 411 -9 294 -3 c 0,22,23
 236 0 236 0 210.5 9 c 128,-1,24
 185 18 185 18 166 28.5 c 128,-1,25
 147 39 147 39 133 54 c 128,-1,26
 119 69 119 69 106 89 c 128,-1,27
 93 109 93 109 84 135.5 c 128,-1,28
 75 162 75 162 68 195 c 128,-1,0
 61 228 61 228 58 269.5 c 128,-1,1
173.5 446.5 m 128,-1,30
 171 409 171 409 171 357 c 128,-1,31
 171 305 171 305 174.5 265.5 c 128,-1,32
 178 226 178 226 186.5 196.5 c 128,-1,33
 195 167 195 167 207 150 c 128,-1,34
 219 133 219 133 240 122 c 0,35,36
 275 105 275 105 336.5 105 c 128,-1,37
 398 105 398 105 429 114.5 c 128,-1,38
 460 124 460 124 481.5 152 c 128,-1,39
 503 180 503 180 511 229.5 c 128,-1,40
 519 279 519 279 519 339 c 128,-1,41
 519 399 519 399 517.5 430 c 128,-1,42
 516 461 516 461 512.5 486 c 128,-1,43
 509 511 509 511 504.5 530.5 c 128,-1,44
 500 550 500 550 492.5 564.5 c 128,-1,45
 485 579 485 579 478 589.5 c 128,-1,46
 471 600 471 600 459 607 c 128,-1,47
 447 614 447 614 436.5 618 c 128,-1,48
 426 622 426 622 410 625 c 1,49,50
 384 628 384 628 352 628 c 128,-1,51
 320 628 320 628 304.5 627 c 128,-1,52
 289 626 289 626 269.5 622.5 c 128,-1,53
 250 619 250 619 239 611.5 c 128,-1,54
 228 604 228 604 215 591 c 128,-1,55
 202 578 202 578 195.5 558.5 c 128,-1,56
 189 539 189 539 182.5 511.5 c 128,-1,29
 176 484 176 484 173.5 446.5 c 128,-1,30
304 797 m 1,57,-1
 401 934 l 1,58,-1
 513 934 l 1,59,-1
 387 797 l 1,60,-1
 304 797 l 1,57,-1
EndSplineSet
Substitution2: "'c2sc' Capitals to Small Capitals in Latin lookup 2 subtable" oacute.smcp
EndChar

StartChar: Ocircumflex
Encoding: 212 212 149
Width: 672
GlyphClass: 2
Flags: W
LayerCount: 2
Fore
SplineSet
58 269.5 m 128,-1,1
 55 311 55 311 55 372 c 128,-1,2
 55 433 55 433 62.5 489.5 c 128,-1,3
 70 546 70 546 83 585.5 c 128,-1,4
 96 625 96 625 117 653 c 128,-1,5
 138 681 138 681 160.5 697 c 128,-1,6
 183 713 183 713 215 722 c 0,7,8
 267 737 267 737 327 737 c 128,-1,9
 387 737 387 737 416.5 734 c 128,-1,10
 446 731 446 731 478.5 722 c 128,-1,11
 511 713 511 713 533 697 c 128,-1,12
 555 681 555 681 575.5 653 c 128,-1,13
 596 625 596 625 608 586 c 0,14,15
 635 499 635 499 635 361 c 0,16,17
 635 160 635 160 578 82 c 0,18,19
 539 29 539 29 482 12 c 0,20,21
 411 -9 411 -9 294 -3 c 0,22,23
 236 0 236 0 210.5 9 c 128,-1,24
 185 18 185 18 166 28.5 c 128,-1,25
 147 39 147 39 133 54 c 128,-1,26
 119 69 119 69 106 89 c 128,-1,27
 93 109 93 109 84 135.5 c 128,-1,28
 75 162 75 162 68 195 c 128,-1,0
 61 228 61 228 58 269.5 c 128,-1,1
173.5 446.5 m 128,-1,30
 171 409 171 409 171 357 c 128,-1,31
 171 305 171 305 174.5 265.5 c 128,-1,32
 178 226 178 226 186.5 196.5 c 128,-1,33
 195 167 195 167 207 150 c 128,-1,34
 219 133 219 133 240 122 c 0,35,36
 275 105 275 105 336.5 105 c 128,-1,37
 398 105 398 105 429 114.5 c 128,-1,38
 460 124 460 124 481.5 152 c 128,-1,39
 503 180 503 180 511 229.5 c 128,-1,40
 519 279 519 279 519 339 c 128,-1,41
 519 399 519 399 517.5 430 c 128,-1,42
 516 461 516 461 512.5 486 c 128,-1,43
 509 511 509 511 504.5 530.5 c 128,-1,44
 500 550 500 550 492.5 564.5 c 128,-1,45
 485 579 485 579 478 589.5 c 128,-1,46
 471 600 471 600 459 607 c 128,-1,47
 447 614 447 614 436.5 618 c 128,-1,48
 426 622 426 622 410 625 c 1,49,50
 384 628 384 628 352 628 c 128,-1,51
 320 628 320 628 304.5 627 c 128,-1,52
 289 626 289 626 269.5 622.5 c 128,-1,53
 250 619 250 619 239 611.5 c 128,-1,54
 228 604 228 604 215 591 c 128,-1,55
 202 578 202 578 195.5 558.5 c 128,-1,56
 189 539 189 539 182.5 511.5 c 128,-1,29
 176 484 176 484 173.5 446.5 c 128,-1,30
195 797 m 1,57,-1
 306 930 l 1,58,-1
 398 930 l 1,59,-1
 497 797 l 1,60,-1
 412 797 l 1,61,-1
 349 861 l 1,62,-1
 281 797 l 1,63,-1
 195 797 l 1,57,-1
EndSplineSet
Substitution2: "'c2sc' Capitals to Small Capitals in Latin lookup 2 subtable" ocircumflex.smcp
EndChar

StartChar: Otilde
Encoding: 213 213 150
Width: 672
GlyphClass: 2
Flags: W
LayerCount: 2
Fore
SplineSet
58 269.5 m 128,-1,1
 55 311 55 311 55 372 c 128,-1,2
 55 433 55 433 62.5 489.5 c 128,-1,3
 70 546 70 546 83 585.5 c 128,-1,4
 96 625 96 625 117 653 c 128,-1,5
 138 681 138 681 160.5 697 c 128,-1,6
 183 713 183 713 215 722 c 0,7,8
 267 737 267 737 327 737 c 128,-1,9
 387 737 387 737 416.5 734 c 128,-1,10
 446 731 446 731 478.5 722 c 128,-1,11
 511 713 511 713 533 697 c 128,-1,12
 555 681 555 681 575.5 653 c 128,-1,13
 596 625 596 625 608 586 c 0,14,15
 635 499 635 499 635 361 c 0,16,17
 635 160 635 160 578 82 c 0,18,19
 539 29 539 29 482 12 c 0,20,21
 411 -9 411 -9 294 -3 c 0,22,23
 236 0 236 0 210.5 9 c 128,-1,24
 185 18 185 18 166 28.5 c 128,-1,25
 147 39 147 39 133 54 c 128,-1,26
 119 69 119 69 106 89 c 128,-1,27
 93 109 93 109 84 135.5 c 128,-1,28
 75 162 75 162 68 195 c 128,-1,0
 61 228 61 228 58 269.5 c 128,-1,1
173.5 446.5 m 128,-1,30
 171 409 171 409 171 357 c 128,-1,31
 171 305 171 305 174.5 265.5 c 128,-1,32
 178 226 178 226 186.5 196.5 c 128,-1,33
 195 167 195 167 207 150 c 128,-1,34
 219 133 219 133 240 122 c 0,35,36
 275 105 275 105 336.5 105 c 128,-1,37
 398 105 398 105 429 114.5 c 128,-1,38
 460 124 460 124 481.5 152 c 128,-1,39
 503 180 503 180 511 229.5 c 128,-1,40
 519 279 519 279 519 339 c 128,-1,41
 519 399 519 399 517.5 430 c 128,-1,42
 516 461 516 461 512.5 486 c 128,-1,43
 509 511 509 511 504.5 530.5 c 128,-1,44
 500 550 500 550 492.5 564.5 c 128,-1,45
 485 579 485 579 478 589.5 c 128,-1,46
 471 600 471 600 459 607 c 128,-1,47
 447 614 447 614 436.5 618 c 128,-1,48
 426 622 426 622 410 625 c 1,49,50
 384 628 384 628 352 628 c 128,-1,51
 320 628 320 628 304.5 627 c 128,-1,52
 289 626 289 626 269.5 622.5 c 128,-1,53
 250 619 250 619 239 611.5 c 128,-1,54
 228 604 228 604 215 591 c 128,-1,55
 202 578 202 578 195.5 558.5 c 128,-1,56
 189 539 189 539 182.5 511.5 c 128,-1,29
 176 484 176 484 173.5 446.5 c 128,-1,30
404 880 m 0,57,58
 437 880 437 880 493 917 c 1,59,-1
 517 864 l 1,60,61
 494 842 494 842 482.5 832 c 128,-1,62
 471 822 471 822 448 810 c 128,-1,63
 425 798 425 798 414 798 c 0,64,65
 378 798 378 798 344 815 c 128,-1,66
 310 832 310 832 293 832 c 0,67,68
 266 832 266 832 251 825 c 128,-1,69
 236 818 236 818 221 809.5 c 128,-1,70
 206 801 206 801 198 797 c 1,71,-1
 175 847 l 1,72,73
 208 879 208 879 236 897 c 128,-1,74
 264 915 264 915 292.5 914.5 c 128,-1,75
 321 914 321 914 354 897 c 128,-1,76
 387 880 387 880 395 880 c 128,-1,77
 403 880 403 880 404 880 c 0,57,58
EndSplineSet
Substitution2: "'c2sc' Capitals to Small Capitals in Latin lookup 2 subtable" otilde.smcp
EndChar

StartChar: Odieresis
Encoding: 214 214 151
Width: 672
GlyphClass: 2
Flags: W
LayerCount: 2
Fore
SplineSet
58 269.5 m 128,-1,1
 55 311 55 311 55 372 c 128,-1,2
 55 433 55 433 62.5 489.5 c 128,-1,3
 70 546 70 546 83 585.5 c 128,-1,4
 96 625 96 625 117 653 c 128,-1,5
 138 681 138 681 160.5 697 c 128,-1,6
 183 713 183 713 215 722 c 0,7,8
 267 737 267 737 327 737 c 128,-1,9
 387 737 387 737 416.5 734 c 128,-1,10
 446 731 446 731 478.5 722 c 128,-1,11
 511 713 511 713 533 697 c 128,-1,12
 555 681 555 681 575.5 653 c 128,-1,13
 596 625 596 625 608 586 c 0,14,15
 635 499 635 499 635 361 c 0,16,17
 635 160 635 160 578 82 c 0,18,19
 539 29 539 29 482 12 c 0,20,21
 411 -9 411 -9 294 -3 c 0,22,23
 236 0 236 0 210.5 9 c 128,-1,24
 185 18 185 18 166 28.5 c 128,-1,25
 147 39 147 39 133 54 c 128,-1,26
 119 69 119 69 106 89 c 128,-1,27
 93 109 93 109 84 135.5 c 128,-1,28
 75 162 75 162 68 195 c 128,-1,0
 61 228 61 228 58 269.5 c 128,-1,1
173.5 446.5 m 128,-1,30
 171 409 171 409 171 357 c 128,-1,31
 171 305 171 305 174.5 265.5 c 128,-1,32
 178 226 178 226 186.5 196.5 c 128,-1,33
 195 167 195 167 207 150 c 128,-1,34
 219 133 219 133 240 122 c 0,35,36
 275 105 275 105 336.5 105 c 128,-1,37
 398 105 398 105 429 114.5 c 128,-1,38
 460 124 460 124 481.5 152 c 128,-1,39
 503 180 503 180 511 229.5 c 128,-1,40
 519 279 519 279 519 339 c 128,-1,41
 519 399 519 399 517.5 430 c 128,-1,42
 516 461 516 461 512.5 486 c 128,-1,43
 509 511 509 511 504.5 530.5 c 128,-1,44
 500 550 500 550 492.5 564.5 c 128,-1,45
 485 579 485 579 478 589.5 c 128,-1,46
 471 600 471 600 459 607 c 128,-1,47
 447 614 447 614 436.5 618 c 128,-1,48
 426 622 426 622 410 625 c 1,49,50
 384 628 384 628 352 628 c 128,-1,51
 320 628 320 628 304.5 627 c 128,-1,52
 289 626 289 626 269.5 622.5 c 128,-1,53
 250 619 250 619 239 611.5 c 128,-1,54
 228 604 228 604 215 591 c 128,-1,55
 202 578 202 578 195.5 558.5 c 128,-1,56
 189 539 189 539 182.5 511.5 c 128,-1,29
 176 484 176 484 173.5 446.5 c 128,-1,30
163 853 m 128,-1,58
 163 876 163 876 179.5 892 c 128,-1,59
 196 908 196 908 219 908 c 128,-1,60
 242 908 242 908 258 892 c 128,-1,61
 274 876 274 876 274 853 c 128,-1,62
 274 830 274 830 258 813.5 c 128,-1,63
 242 797 242 797 219 797 c 128,-1,64
 196 797 196 797 179.5 813.5 c 128,-1,57
 163 830 163 830 163 853 c 128,-1,58
418 853 m 128,-1,66
 418 876 418 876 434.5 892 c 128,-1,67
 451 908 451 908 474 908 c 128,-1,68
 497 908 497 908 513 892 c 128,-1,69
 529 876 529 876 529 853 c 128,-1,70
 529 830 529 830 513 813.5 c 128,-1,71
 497 797 497 797 474 797 c 128,-1,72
 451 797 451 797 434.5 813.5 c 128,-1,65
 418 830 418 830 418 853 c 128,-1,66
EndSplineSet
Substitution2: "'c2sc' Capitals to Small Capitals in Latin lookup 2 subtable" odieresis.smcp
EndChar

StartChar: multiply
Encoding: 215 215 152
Width: 460
GlyphClass: 2
Flags: W
LayerCount: 2
Fore
SplineSet
48 245 m 1,0,-1
 158 355 l 1,1,-1
 48 466 l 1,2,-1
 119 539 l 1,3,-1
 230 428 l 1,4,-1
 342 539 l 1,5,-1
 414 467 l 1,6,-1
 302 355 l 1,7,-1
 414 245 l 1,8,-1
 342 172 l 1,9,-1
 230 283 l 1,10,-1
 120 173 l 1,11,-1
 48 245 l 1,0,-1
EndSplineSet
EndChar

StartChar: Oslash
Encoding: 216 216 153
Width: 678
GlyphClass: 2
Flags: W
LayerCount: 2
Fore
SplineSet
119 653 m 0,0,1
 140 681 140 681 162 697 c 128,-1,2
 184 713 184 713 217 722 c 0,3,4
 269 737 269 737 339.5 737 c 128,-1,5
 410 737 410 737 453.5 729.5 c 128,-1,6
 497 722 497 722 530 700 c 1,7,-1
 551 732 l 1,8,-1
 621 732 l 1,9,-1
 573 660 l 1,10,11
 638 575 638 575 638 361 c 0,12,13
 638 160 638 160 581 82 c 0,14,15
 542 29 542 29 484 12 c 0,16,17
 431 -4 431 -4 356.5 -4 c 128,-1,18
 282 -4 282 -4 236 4 c 128,-1,19
 190 12 190 12 156 36 c 1,20,-1
 132 0 l 1,21,-1
 62 0 l 1,22,-1
 115 79 l 1,23,24
 58 160 58 160 58 366 c 128,-1,25
 58 572 58 572 119 653 c 0,0,1
195 195 m 1,26,-1
 465 605 l 1,27,28
 446 620 446 620 419.5 624 c 128,-1,29
 393 628 393 628 360.5 628 c 128,-1,30
 328 628 328 628 315 627.5 c 128,-1,31
 302 627 302 627 285.5 625 c 128,-1,32
 269 623 269 623 259 619 c 128,-1,33
 249 615 249 615 236.5 608 c 128,-1,34
 224 601 224 601 217 591 c 128,-1,35
 210 581 210 581 202 566 c 128,-1,36
 194 551 194 551 189.5 532 c 128,-1,37
 185 513 185 513 181 487 c 0,38,39
 174 442 174 442 174 343 c 128,-1,40
 174 244 174 244 195 195 c 1,26,-1
348 105 m 0,41,42
 401 105 401 105 431.5 114.5 c 128,-1,43
 462 124 462 124 484 152 c 128,-1,44
 506 180 506 180 514 229.5 c 128,-1,45
 522 279 522 279 522 387.5 c 128,-1,46
 522 496 522 496 499 552 c 1,47,-1
 224 136 l 1,48,49
 259 105 259 105 348 105 c 0,41,42
EndSplineSet
Substitution2: "'c2sc' Capitals to Small Capitals in Latin lookup 2 subtable" oslash.smcp
EndChar

StartChar: Ugrave
Encoding: 217 217 154
Width: 669
GlyphClass: 2
Flags: W
LayerCount: 2
Fore
SplineSet
346 -5 m 2,0,-1
 332 -5 l 2,1,2
 213 -5 213 -5 174 20 c 0,3,4
 156 32 156 32 132.5 55.5 c 128,-1,5
 109 79 109 79 97 113 c 0,6,7
 68 197 68 197 68 320 c 2,8,-1
 68 732 l 1,9,-1
 184 732 l 1,10,-1
 184 320 l 2,11,12
 184 218 184 218 202 175 c 0,13,14
 212 151 212 151 223.5 137 c 128,-1,15
 235 123 235 123 256 116 c 0,16,17
 288 104 288 104 333 104 c 128,-1,18
 378 104 378 104 399 108 c 128,-1,19
 420 112 420 112 441.5 124.5 c 128,-1,20
 463 137 463 137 475 160 c 0,21,22
 502 212 502 212 502 320 c 2,23,-1
 502 732 l 1,24,-1
 619 732 l 1,25,-1
 619 320 l 2,26,27
 619 196 619 196 593 133 c 0,28,29
 579 100 579 100 565 75.5 c 128,-1,30
 551 51 551 51 527.5 36.5 c 128,-1,31
 504 22 504 22 486 13 c 128,-1,32
 468 4 468 4 439 0 c 0,33,34
 396 -5 396 -5 346 -5 c 2,0,-1
176 934 m 1,35,-1
 288 934 l 1,36,-1
 385 797 l 1,37,-1
 302 797 l 1,38,-1
 176 934 l 1,35,-1
EndSplineSet
Substitution2: "'c2sc' Capitals to Small Capitals in Latin lookup 2 subtable" ugrave.smcp
EndChar

StartChar: Uacute
Encoding: 218 218 155
Width: 669
GlyphClass: 2
Flags: W
LayerCount: 2
Fore
SplineSet
346 -5 m 2,0,-1
 332 -5 l 2,1,2
 213 -5 213 -5 174 20 c 0,3,4
 156 32 156 32 132.5 55.5 c 128,-1,5
 109 79 109 79 97 113 c 0,6,7
 68 197 68 197 68 320 c 2,8,-1
 68 732 l 1,9,-1
 184 732 l 1,10,-1
 184 320 l 2,11,12
 184 218 184 218 202 175 c 0,13,14
 212 151 212 151 223.5 137 c 128,-1,15
 235 123 235 123 256 116 c 0,16,17
 288 104 288 104 333 104 c 128,-1,18
 378 104 378 104 399 108 c 128,-1,19
 420 112 420 112 441.5 124.5 c 128,-1,20
 463 137 463 137 475 160 c 0,21,22
 502 212 502 212 502 320 c 2,23,-1
 502 732 l 1,24,-1
 619 732 l 1,25,-1
 619 320 l 2,26,27
 619 196 619 196 593 133 c 0,28,29
 579 100 579 100 565 75.5 c 128,-1,30
 551 51 551 51 527.5 36.5 c 128,-1,31
 504 22 504 22 486 13 c 128,-1,32
 468 4 468 4 439 0 c 0,33,34
 396 -5 396 -5 346 -5 c 2,0,-1
302 797 m 1,35,-1
 398 934 l 1,36,-1
 511 934 l 1,37,-1
 385 797 l 1,38,-1
 302 797 l 1,35,-1
EndSplineSet
Substitution2: "'c2sc' Capitals to Small Capitals in Latin lookup 2 subtable" uacute.smcp
EndChar

StartChar: Ucircumflex
Encoding: 219 219 156
Width: 669
GlyphClass: 2
Flags: W
LayerCount: 2
Fore
SplineSet
346 -5 m 2,0,-1
 332 -5 l 2,1,2
 213 -5 213 -5 174 20 c 0,3,4
 156 32 156 32 132.5 55.5 c 128,-1,5
 109 79 109 79 97 113 c 0,6,7
 68 197 68 197 68 320 c 2,8,-1
 68 732 l 1,9,-1
 184 732 l 1,10,-1
 184 320 l 2,11,12
 184 218 184 218 202 175 c 0,13,14
 212 151 212 151 223.5 137 c 128,-1,15
 235 123 235 123 256 116 c 0,16,17
 288 104 288 104 333 104 c 128,-1,18
 378 104 378 104 399 108 c 128,-1,19
 420 112 420 112 441.5 124.5 c 128,-1,20
 463 137 463 137 475 160 c 0,21,22
 502 212 502 212 502 320 c 2,23,-1
 502 732 l 1,24,-1
 619 732 l 1,25,-1
 619 320 l 2,26,27
 619 196 619 196 593 133 c 0,28,29
 579 100 579 100 565 75.5 c 128,-1,30
 551 51 551 51 527.5 36.5 c 128,-1,31
 504 22 504 22 486 13 c 128,-1,32
 468 4 468 4 439 0 c 0,33,34
 396 -5 396 -5 346 -5 c 2,0,-1
192 797 m 1,35,-1
 303 930 l 1,36,-1
 395 930 l 1,37,-1
 494 797 l 1,38,-1
 410 797 l 1,39,-1
 346 861 l 1,40,-1
 278 797 l 1,41,-1
 192 797 l 1,35,-1
EndSplineSet
Substitution2: "'c2sc' Capitals to Small Capitals in Latin lookup 2 subtable" ucircumflex.smcp
EndChar

StartChar: Udieresis
Encoding: 220 220 157
Width: 669
GlyphClass: 2
Flags: W
LayerCount: 2
Fore
SplineSet
346 -5 m 2,0,-1
 332 -5 l 2,1,2
 213 -5 213 -5 174 20 c 0,3,4
 156 32 156 32 132.5 55.5 c 128,-1,5
 109 79 109 79 97 113 c 0,6,7
 68 197 68 197 68 320 c 2,8,-1
 68 732 l 1,9,-1
 184 732 l 1,10,-1
 184 320 l 2,11,12
 184 218 184 218 202 175 c 0,13,14
 212 151 212 151 223.5 137 c 128,-1,15
 235 123 235 123 256 116 c 0,16,17
 288 104 288 104 333 104 c 128,-1,18
 378 104 378 104 399 108 c 128,-1,19
 420 112 420 112 441.5 124.5 c 128,-1,20
 463 137 463 137 475 160 c 0,21,22
 502 212 502 212 502 320 c 2,23,-1
 502 732 l 1,24,-1
 619 732 l 1,25,-1
 619 320 l 2,26,27
 619 196 619 196 593 133 c 0,28,29
 579 100 579 100 565 75.5 c 128,-1,30
 551 51 551 51 527.5 36.5 c 128,-1,31
 504 22 504 22 486 13 c 128,-1,32
 468 4 468 4 439 0 c 0,33,34
 396 -5 396 -5 346 -5 c 2,0,-1
160 853 m 128,-1,36
 160 876 160 876 176.5 892 c 128,-1,37
 193 908 193 908 216 908 c 128,-1,38
 239 908 239 908 255.5 892 c 128,-1,39
 272 876 272 876 272 853 c 128,-1,40
 272 830 272 830 255.5 813.5 c 128,-1,41
 239 797 239 797 216 797 c 128,-1,42
 193 797 193 797 176.5 813.5 c 128,-1,35
 160 830 160 830 160 853 c 128,-1,36
415 853 m 128,-1,44
 415 876 415 876 431.5 892 c 128,-1,45
 448 908 448 908 471 908 c 128,-1,46
 494 908 494 908 510 892 c 128,-1,47
 526 876 526 876 526 853 c 128,-1,48
 526 830 526 830 510 813.5 c 128,-1,49
 494 797 494 797 471 797 c 128,-1,50
 448 797 448 797 431.5 813.5 c 128,-1,43
 415 830 415 830 415 853 c 128,-1,44
EndSplineSet
Substitution2: "'c2sc' Capitals to Small Capitals in Latin lookup 2 subtable" udieresis.smcp
EndChar

StartChar: Yacute
Encoding: 221 221 158
Width: 647
GlyphClass: 2
Flags: W
LayerCount: 2
Fore
SplineSet
381 0 m 1,0,-1
 265 0 l 1,1,-1
 265 239 l 1,2,-1
 38 732 l 1,3,-1
 164 732 l 1,4,-1
 324 369 l 1,5,-1
 500 732 l 1,6,-1
 626 732 l 1,7,-1
 381 239 l 1,8,-1
 381 0 l 1,0,-1
290 797 m 1,9,-1
 387 934 l 1,10,-1
 500 934 l 1,11,-1
 374 797 l 1,12,-1
 290 797 l 1,9,-1
EndSplineSet
Substitution2: "'c2sc' Capitals to Small Capitals in Latin lookup 2 subtable" yacute.smcp
EndChar

StartChar: Thorn
Encoding: 222 222 159
Width: 550
GlyphClass: 2
Flags: W
LayerCount: 2
Fore
SplineSet
51 0 m 1,0,-1
 51 729 l 1,1,-1
 167 729 l 1,2,-1
 167 588 l 1,3,-1
 332 588 l 1,4,5
 508 587 508 587 508 375 c 0,6,7
 508 215 508 215 426 170 c 1,8,9
 387 150 387 150 332 149 c 0,10,11
 328 149 328 149 315.5 148.5 c 128,-1,12
 303 148 303 148 299 148 c 128,-1,13
 295 148 295 148 284 148.5 c 128,-1,14
 273 149 273 149 267 149.5 c 128,-1,15
 261 150 261 150 249.5 151.5 c 128,-1,16
 238 153 238 153 227 155 c 0,17,18
 193 162 193 162 167 168 c 1,19,-1
 167 0 l 1,20,-1
 51 0 l 1,0,-1
167 254 m 1,21,-1
 304 254 l 2,22,23
 306 254 306 254 316.5 254 c 128,-1,24
 327 254 327 254 341 258.5 c 128,-1,25
 355 263 355 263 367 275 c 0,26,27
 391 299 391 299 391 375 c 1,28,29
 390 449 390 449 360 468 c 0,30,31
 338 482 338 482 304 482 c 2,32,-1
 167 482 l 1,33,-1
 167 254 l 1,21,-1
EndSplineSet
Substitution2: "'c2sc' Capitals to Small Capitals in Latin lookup 2 subtable" thorn.smcp
EndChar

StartChar: germandbls
Encoding: 223 223 160
Width: 571
GlyphClass: 2
Flags: W
LayerCount: 2
Fore
SplineSet
233 96 m 1,0,-1
 369 90 l 1,1,2
 397 90 397 90 417.5 106 c 128,-1,3
 438 122 438 122 439 150 c 1,4,-1
 439 183 l 2,5,6
 439 215 439 215 377 235 c 0,7,8
 352 243 352 243 326.5 254 c 128,-1,9
 301 265 301 265 283 289 c 128,-1,10
 265 313 265 313 265 343 c 128,-1,11
 265 373 265 373 269.5 390.5 c 128,-1,12
 274 408 274 408 287 426 c 0,13,14
 307 454 307 454 365 499 c 1,15,16
 410 536 410 536 410 589 c 0,17,18
 410 672 410 672 288.5 672 c 128,-1,19
 167 672 167 672 167 534 c 2,20,-1
 167 0 l 1,21,-1
 51 0 l 1,22,-1
 51 566 l 2,23,24
 51 657 51 657 112.5 718 c 128,-1,25
 174 779 174 779 284 779 c 0,26,27
 354 779 354 779 405 761.5 c 128,-1,28
 456 744 456 744 482 715 c 0,29,30
 525 666 525 666 525 603 c 0,31,32
 525 556 525 556 504 514 c 128,-1,33
 483 472 483 472 464.5 454.5 c 128,-1,34
 446 437 446 437 426 419 c 128,-1,35
 406 401 406 401 399 394 c 0,36,37
 377 372 377 372 377 352 c 128,-1,38
 377 332 377 332 395.5 321 c 128,-1,39
 414 310 414 310 440 300.5 c 128,-1,40
 466 291 466 291 492 278.5 c 128,-1,41
 518 266 518 266 536.5 239.5 c 128,-1,42
 555 213 555 213 555 176 c 2,43,-1
 555 139 l 1,44,45
 556 27 556 27 448 -1 c 0,46,47
 420 -8 420 -8 395.5 -8 c 128,-1,48
 371 -8 371 -8 352 -7 c 128,-1,49
 333 -6 333 -6 314.5 -3 c 128,-1,50
 296 0 296 0 285 1.5 c 128,-1,51
 274 3 274 3 255.5 6.5 c 128,-1,52
 237 10 237 10 233 11 c 1,53,-1
 233 96 l 1,0,-1
EndSplineSet
Substitution2: "'smcp' Lowercase to Small Capitals lookup 1 subtable" germandbls.smcp
EndChar

StartChar: agrave
Encoding: 224 224 161
Width: 519
GlyphClass: 2
Flags: W
LayerCount: 2
Fore
SplineSet
51 508 m 1,0,1
 147 541 147 541 302 541 c 0,2,3
 477 541 477 541 477 376 c 2,4,-1
 477 0 l 1,5,-1
 387 0 l 1,6,-1
 361 60 l 1,7,8
 358 55 358 55 331.5 40 c 128,-1,9
 305 25 305 25 261 9.5 c 128,-1,10
 217 -6 217 -6 180 -6 c 0,11,12
 112 -6 112 -6 73 34 c 128,-1,13
 34 74 34 74 34 132 c 2,14,-1
 34 186 l 2,15,16
 34 248 34 248 71 287.5 c 128,-1,17
 108 327 108 327 189.5 327 c 128,-1,18
 271 327 271 327 316 327 c 128,-1,19
 361 327 361 327 361 327 c 1,20,21
 362 350 362 350 362 361.5 c 128,-1,22
 362 373 362 373 361 373 c 1,23,24
 361 414 361 414 342.5 429 c 128,-1,25
 324 444 324 444 286 444 c 0,26,27
 212 444 212 444 51 433 c 1,28,-1
 51 508 l 1,0,1
150 146 m 2,29,30
 150 115 150 115 164 103.5 c 128,-1,31
 178 92 178 92 205 92 c 128,-1,32
 232 92 232 92 271.5 103.5 c 128,-1,33
 311 115 311 115 336 126 c 2,34,-1
 361 137 l 1,35,-1
 361 251 l 1,36,-1
 199 239 l 1,37,38
 150 234 150 234 150 181 c 2,39,-1
 150 146 l 2,29,30
100 738 m 1,40,-1
 212 738 l 1,41,-1
 309 601 l 1,42,-1
 226 601 l 1,43,-1
 100 738 l 1,40,-1
EndSplineSet
AlternateSubs2: "'salt' Stylistic Alternatives in Latin lookup 16 subtable" agrave.salt
Substitution2: "'smcp' Lowercase to Small Capitals lookup 1 subtable" agrave.smcp
EndChar

StartChar: aacute
Encoding: 225 225 162
Width: 519
GlyphClass: 2
Flags: W
LayerCount: 2
Fore
SplineSet
51 508 m 1,0,1
 147 541 147 541 302 541 c 0,2,3
 477 541 477 541 477 376 c 2,4,-1
 477 0 l 1,5,-1
 387 0 l 1,6,-1
 361 60 l 1,7,8
 358 55 358 55 331.5 40 c 128,-1,9
 305 25 305 25 261 9.5 c 128,-1,10
 217 -6 217 -6 180 -6 c 0,11,12
 112 -6 112 -6 73 34 c 128,-1,13
 34 74 34 74 34 132 c 2,14,-1
 34 186 l 2,15,16
 34 248 34 248 71 287.5 c 128,-1,17
 108 327 108 327 189.5 327 c 128,-1,18
 271 327 271 327 316 327 c 128,-1,19
 361 327 361 327 361 327 c 1,20,21
 362 350 362 350 362 361.5 c 128,-1,22
 362 373 362 373 361 373 c 1,23,24
 361 414 361 414 342.5 429 c 128,-1,25
 324 444 324 444 286 444 c 0,26,27
 212 444 212 444 51 433 c 1,28,-1
 51 508 l 1,0,1
150 146 m 2,29,30
 150 115 150 115 164 103.5 c 128,-1,31
 178 92 178 92 205 92 c 128,-1,32
 232 92 232 92 271.5 103.5 c 128,-1,33
 311 115 311 115 336 126 c 2,34,-1
 361 137 l 1,35,-1
 361 251 l 1,36,-1
 199 239 l 1,37,38
 150 234 150 234 150 181 c 2,39,-1
 150 146 l 2,29,30
222 601 m 1,40,-1
 319 738 l 1,41,-1
 431 738 l 1,42,-1
 305 601 l 1,43,-1
 222 601 l 1,40,-1
EndSplineSet
AlternateSubs2: "'salt' Stylistic Alternatives in Latin lookup 16 subtable" aacute.salt
Substitution2: "'smcp' Lowercase to Small Capitals lookup 1 subtable" aacute.smcp
EndChar

StartChar: acircumflex
Encoding: 226 226 163
Width: 519
GlyphClass: 2
Flags: W
LayerCount: 2
Fore
SplineSet
51 508 m 1,0,1
 147 541 147 541 302 541 c 0,2,3
 477 541 477 541 477 376 c 2,4,-1
 477 0 l 1,5,-1
 387 0 l 1,6,-1
 361 60 l 1,7,8
 358 55 358 55 331.5 40 c 128,-1,9
 305 25 305 25 261 9.5 c 128,-1,10
 217 -6 217 -6 180 -6 c 0,11,12
 112 -6 112 -6 73 34 c 128,-1,13
 34 74 34 74 34 132 c 2,14,-1
 34 186 l 2,15,16
 34 248 34 248 71 287.5 c 128,-1,17
 108 327 108 327 189.5 327 c 128,-1,18
 271 327 271 327 316 327 c 128,-1,19
 361 327 361 327 361 327 c 1,20,21
 362 350 362 350 362 361.5 c 128,-1,22
 362 373 362 373 361 373 c 1,23,24
 361 414 361 414 342.5 429 c 128,-1,25
 324 444 324 444 286 444 c 0,26,27
 212 444 212 444 51 433 c 1,28,-1
 51 508 l 1,0,1
150 146 m 2,29,30
 150 115 150 115 164 103.5 c 128,-1,31
 178 92 178 92 205 92 c 128,-1,32
 232 92 232 92 271.5 103.5 c 128,-1,33
 311 115 311 115 336 126 c 2,34,-1
 361 137 l 1,35,-1
 361 251 l 1,36,-1
 199 239 l 1,37,38
 150 234 150 234 150 181 c 2,39,-1
 150 146 l 2,29,30
114 601 m 1,40,-1
 225 734 l 1,41,-1
 317 734 l 1,42,-1
 416 601 l 1,43,-1
 331 601 l 1,44,-1
 268 665 l 1,45,-1
 200 601 l 1,46,-1
 114 601 l 1,40,-1
EndSplineSet
AlternateSubs2: "'salt' Stylistic Alternatives in Latin lookup 16 subtable" acircumflex.salt
Substitution2: "'smcp' Lowercase to Small Capitals lookup 1 subtable" acircumflex.smcp
EndChar

StartChar: atilde
Encoding: 227 227 164
Width: 519
GlyphClass: 2
Flags: W
LayerCount: 2
Fore
SplineSet
51 508 m 1,0,1
 147 541 147 541 302 541 c 0,2,3
 477 541 477 541 477 376 c 2,4,-1
 477 0 l 1,5,-1
 387 0 l 1,6,-1
 361 60 l 1,7,8
 358 55 358 55 331.5 40 c 128,-1,9
 305 25 305 25 261 9.5 c 128,-1,10
 217 -6 217 -6 180 -6 c 0,11,12
 112 -6 112 -6 73 34 c 128,-1,13
 34 74 34 74 34 132 c 2,14,-1
 34 186 l 2,15,16
 34 248 34 248 71 287.5 c 128,-1,17
 108 327 108 327 189.5 327 c 128,-1,18
 271 327 271 327 316 327 c 128,-1,19
 361 327 361 327 361 327 c 1,20,21
 362 350 362 350 362 361.5 c 128,-1,22
 362 373 362 373 361 373 c 1,23,24
 361 414 361 414 342.5 429 c 128,-1,25
 324 444 324 444 286 444 c 0,26,27
 212 444 212 444 51 433 c 1,28,-1
 51 508 l 1,0,1
150 146 m 2,29,30
 150 115 150 115 164 103.5 c 128,-1,31
 178 92 178 92 205 92 c 128,-1,32
 232 92 232 92 271.5 103.5 c 128,-1,33
 311 115 311 115 336 126 c 2,34,-1
 361 137 l 1,35,-1
 361 251 l 1,36,-1
 199 239 l 1,37,38
 150 234 150 234 150 181 c 2,39,-1
 150 146 l 2,29,30
320 684 m 0,40,41
 353 684 353 684 409 721 c 1,42,-1
 432 668 l 1,43,44
 410 646 410 646 398.5 636 c 128,-1,45
 387 626 387 626 363.5 614 c 128,-1,46
 340 602 340 602 330 602 c 0,47,48
 293 602 293 602 259.5 619 c 128,-1,49
 226 636 226 636 209 636 c 0,50,51
 181 636 181 636 166 629 c 128,-1,52
 151 622 151 622 136.5 613.5 c 128,-1,53
 122 605 122 605 114 601 c 1,54,-1
 91 651 l 1,55,56
 123 683 123 683 151 701 c 128,-1,57
 179 719 179 719 207.5 718.5 c 128,-1,58
 236 718 236 718 269.5 701 c 128,-1,59
 303 684 303 684 310.5 684 c 128,-1,60
 318 684 318 684 320 684 c 0,40,41
EndSplineSet
AlternateSubs2: "'salt' Stylistic Alternatives in Latin lookup 16 subtable" atilde.salt
Substitution2: "'smcp' Lowercase to Small Capitals lookup 1 subtable" atilde.smcp
EndChar

StartChar: adieresis
Encoding: 228 228 165
Width: 519
GlyphClass: 2
Flags: W
LayerCount: 2
Fore
SplineSet
51 508 m 1,0,1
 147 541 147 541 302 541 c 0,2,3
 477 541 477 541 477 376 c 2,4,-1
 477 0 l 1,5,-1
 387 0 l 1,6,-1
 361 60 l 1,7,8
 358 55 358 55 331.5 40 c 128,-1,9
 305 25 305 25 261 9.5 c 128,-1,10
 217 -6 217 -6 180 -6 c 0,11,12
 112 -6 112 -6 73 34 c 128,-1,13
 34 74 34 74 34 132 c 2,14,-1
 34 186 l 2,15,16
 34 248 34 248 71 287.5 c 128,-1,17
 108 327 108 327 189.5 327 c 128,-1,18
 271 327 271 327 316 327 c 128,-1,19
 361 327 361 327 361 327 c 1,20,21
 362 350 362 350 362 361.5 c 128,-1,22
 362 373 362 373 361 373 c 1,23,24
 361 414 361 414 342.5 429 c 128,-1,25
 324 444 324 444 286 444 c 0,26,27
 212 444 212 444 51 433 c 1,28,-1
 51 508 l 1,0,1
150 146 m 2,29,30
 150 115 150 115 164 103.5 c 128,-1,31
 178 92 178 92 205 92 c 128,-1,32
 232 92 232 92 271.5 103.5 c 128,-1,33
 311 115 311 115 336 126 c 2,34,-1
 361 137 l 1,35,-1
 361 251 l 1,36,-1
 199 239 l 1,37,38
 150 234 150 234 150 181 c 2,39,-1
 150 146 l 2,29,30
80 657 m 128,-1,41
 80 680 80 680 96.5 696.5 c 128,-1,42
 113 713 113 713 136.5 713 c 128,-1,43
 160 713 160 713 176 696.5 c 128,-1,44
 192 680 192 680 192 657 c 128,-1,45
 192 634 192 634 176 617.5 c 128,-1,46
 160 601 160 601 137 601 c 128,-1,47
 114 601 114 601 97 617.5 c 128,-1,40
 80 634 80 634 80 657 c 128,-1,41
335 657 m 128,-1,49
 335 680 335 680 351.5 696.5 c 128,-1,50
 368 713 368 713 391.5 713 c 128,-1,51
 415 713 415 713 431 696.5 c 128,-1,52
 447 680 447 680 447 661 c 128,-1,53
 447 642 447 642 440 629 c 0,54,55
 424 601 424 601 396.5 601 c 128,-1,56
 369 601 369 601 352 617.5 c 128,-1,48
 335 634 335 634 335 657 c 128,-1,49
EndSplineSet
AlternateSubs2: "'salt' Stylistic Alternatives in Latin lookup 16 subtable" adieresis.salt
Substitution2: "'smcp' Lowercase to Small Capitals lookup 1 subtable" adieresis.smcp
EndChar

StartChar: aring
Encoding: 229 229 166
Width: 519
GlyphClass: 2
Flags: W
LayerCount: 2
Fore
SplineSet
51 508 m 1,0,1
 147 541 147 541 302 541 c 0,2,3
 477 541 477 541 477 376 c 2,4,-1
 477 0 l 1,5,-1
 387 0 l 1,6,-1
 361 60 l 1,7,8
 358 55 358 55 331.5 40 c 128,-1,9
 305 25 305 25 261 9.5 c 128,-1,10
 217 -6 217 -6 180 -6 c 0,11,12
 112 -6 112 -6 73 34 c 128,-1,13
 34 74 34 74 34 132 c 2,14,-1
 34 186 l 2,15,16
 34 248 34 248 71 287.5 c 128,-1,17
 108 327 108 327 189.5 327 c 128,-1,18
 271 327 271 327 316 327 c 128,-1,19
 361 327 361 327 361 327 c 1,20,21
 362 350 362 350 362 361.5 c 128,-1,22
 362 373 362 373 361 373 c 1,23,24
 361 414 361 414 342.5 429 c 128,-1,25
 324 444 324 444 286 444 c 0,26,27
 212 444 212 444 51 433 c 1,28,-1
 51 508 l 1,0,1
150 146 m 2,29,30
 150 115 150 115 164 103.5 c 128,-1,31
 178 92 178 92 205 92 c 128,-1,32
 232 92 232 92 271.5 103.5 c 128,-1,33
 311 115 311 115 336 126 c 2,34,-1
 361 137 l 1,35,-1
 361 251 l 1,36,-1
 199 239 l 1,37,38
 150 234 150 234 150 181 c 2,39,-1
 150 146 l 2,29,30
164 687 m 0,40,41
 164 712 164 712 177.5 735.5 c 128,-1,42
 191 759 191 759 214.5 772.5 c 128,-1,43
 238 786 238 786 265.5 786 c 128,-1,44
 293 786 293 786 316.5 772.5 c 128,-1,45
 340 759 340 759 353.5 735.5 c 128,-1,46
 367 712 367 712 367 676.5 c 128,-1,47
 367 641 367 641 337.5 611.5 c 128,-1,48
 308 582 308 582 265.5 582 c 128,-1,49
 223 582 223 582 193.5 611.5 c 128,-1,50
 164 641 164 641 164 687 c 0,40,41
218 683.5 m 128,-1,52
 218 664 218 664 232 650.5 c 128,-1,53
 246 637 246 637 265.5 637 c 128,-1,54
 285 637 285 637 298.5 650.5 c 128,-1,55
 312 664 312 664 312 683.5 c 128,-1,56
 312 703 312 703 298.5 717 c 128,-1,57
 285 731 285 731 265.5 731 c 128,-1,58
 246 731 246 731 232 717 c 128,-1,51
 218 703 218 703 218 683.5 c 128,-1,52
EndSplineSet
AlternateSubs2: "'salt' Stylistic Alternatives in Latin lookup 16 subtable" aring.salt
Substitution2: "'smcp' Lowercase to Small Capitals lookup 1 subtable" aring.smcp
EndChar

StartChar: ae
Encoding: 230 230 167
Width: 853
GlyphClass: 2
Flags: W
LayerCount: 2
Fore
SplineSet
316 313 m 128,-1,1
 361 313 361 313 361 314 c 0,2,3
 362 345 362 345 362 360.5 c 128,-1,4
 362 376 362 376 361 377 c 1,5,6
 361 418 361 418 342.5 433 c 128,-1,7
 324 448 324 448 273 448 c 128,-1,8
 222 448 222 448 51 436 c 1,9,-1
 51 511 l 1,10,11
 135 544 135 544 299 545 c 0,12,13
 393 545 393 545 434 497 c 1,14,15
 462 522 462 522 501 530.5 c 128,-1,16
 540 539 540 539 588 539 c 128,-1,17
 636 539 636 539 659.5 537.5 c 128,-1,18
 683 536 683 536 707.5 531.5 c 128,-1,19
 732 527 732 527 748 518.5 c 128,-1,20
 764 510 764 510 778.5 496.5 c 128,-1,21
 793 483 793 483 802 463 c 1,22,23
 819 420 819 420 819 353 c 128,-1,24
 819 286 819 286 783.5 256 c 128,-1,25
 748 226 748 226 675 226 c 2,26,-1
 486 226 l 1,27,28
 486 127 486 127 532 107 c 0,29,30
 554 97 554 97 594 97 c 0,31,32
 739 97 739 97 809 107 c 1,33,-1
 809 27 l 1,34,35
 727 -1 727 -1 545 -1 c 0,36,37
 489 -1 489 -1 456.5 16 c 128,-1,38
 424 33 424 33 397 68 c 1,39,40
 390 55 390 55 312 26.5 c 128,-1,41
 234 -2 234 -2 179 -2 c 0,42,43
 112 -2 112 -2 73 38 c 128,-1,44
 34 78 34 78 34 136 c 2,45,-1
 34 173 l 2,46,47
 34 235 34 235 71 274.5 c 128,-1,48
 108 314 108 314 189.5 313.5 c 128,-1,0
 271 313 271 313 316 313 c 128,-1,1
150 149 m 2,49,50
 150 117 150 117 163.5 106.5 c 128,-1,51
 177 96 177 96 204.5 96 c 128,-1,52
 232 96 232 96 271.5 107.5 c 128,-1,53
 311 119 311 119 336 130 c 2,54,-1
 361 141 l 1,55,-1
 361 242 l 1,56,-1
 199 230 l 1,57,58
 150 225 150 225 150 172 c 2,59,-1
 150 149 l 2,49,50
703 356 m 0,60,61
 703 416 703 416 687 430 c 128,-1,62
 671 444 671 444 608 444 c 2,63,-1
 605 444 l 2,64,65
 542 444 542 444 532.5 439 c 128,-1,66
 523 434 523 434 513.5 427.5 c 128,-1,67
 504 421 504 421 500.5 412 c 128,-1,68
 497 403 497 403 493 389 c 0,69,70
 486 367 486 367 486 313 c 1,71,-1
 652 313 l 2,72,73
 703 313 703 313 703 356 c 0,60,61
EndSplineSet
Substitution2: "'smcp' Lowercase to Small Capitals lookup 1 subtable" ae.smcp
EndChar

StartChar: ccedilla
Encoding: 231 231 168
Width: 496
GlyphClass: 2
Flags: W
LayerCount: 2
Fore
SplineSet
51 151.5 m 128,-1,1
 42 200 42 200 42 273.5 c 128,-1,2
 42 347 42 347 54.5 402 c 128,-1,3
 67 457 67 457 92 486 c 128,-1,4
 117 515 117 515 146.5 526 c 128,-1,5
 176 537 176 537 211 537 c 128,-1,6
 246 537 246 537 284 535 c 1,7,8
 381 527 381 527 456 506 c 1,9,-1
 456 432 l 1,10,11
 344 439 344 439 288.5 439 c 128,-1,12
 233 439 233 439 220.5 437 c 128,-1,13
 208 435 208 435 194.5 425.5 c 128,-1,14
 181 416 181 416 174 397 c 0,15,16
 158 354 158 354 158 281.5 c 128,-1,17
 158 209 158 209 163 176 c 128,-1,18
 168 143 168 143 180 124 c 128,-1,19
 192 105 192 105 209.5 98.5 c 128,-1,20
 227 92 227 92 262 92 c 0,21,22
 337 92 337 92 431 100 c 1,23,-1
 463 102 l 1,24,-1
 463 26 l 1,25,26
 411 4 411 4 355 -1 c 0,27,28
 337 -3 337 -3 328 -3.5 c 128,-1,29
 319 -4 319 -4 299.5 -5 c 128,-1,30
 280 -6 280 -6 273 -6 c 128,-1,31
 266 -6 266 -6 244.5 -6 c 128,-1,32
 223 -6 223 -6 204.5 -6 c 128,-1,33
 186 -6 186 -6 161 0.5 c 128,-1,34
 136 7 136 7 113 25 c 128,-1,35
 90 43 90 43 75 73 c 128,-1,0
 60 103 60 103 51 151.5 c 128,-1,1
242 -37 m 1,36,-1
 327 -37 l 1,37,38
 327 -115 327 -115 304 -146 c 128,-1,39
 281 -177 281 -177 219 -177 c 2,40,-1
 164 -177 l 1,41,-1
 164 -125 l 1,42,-1
 212 -110 l 1,43,44
 231 -102 231 -102 236.5 -86 c 128,-1,45
 242 -70 242 -70 242 -37 c 1,36,-1
EndSplineSet
Substitution2: "'smcp' Lowercase to Small Capitals lookup 1 subtable" ccedilla.smcp
EndChar

StartChar: egrave
Encoding: 232 232 169
Width: 525
GlyphClass: 2
Flags: W
LayerCount: 2
Fore
SplineSet
66 440 m 0,0,1
 78 470 78 470 95 488.5 c 128,-1,2
 112 507 112 507 140 517 c 0,3,4
 188 535 188 535 251 535 c 128,-1,5
 314 535 314 535 340.5 533 c 128,-1,6
 367 531 367 531 394 524.5 c 128,-1,7
 421 518 421 518 437 505 c 128,-1,8
 453 492 453 492 466 471 c 0,9,10
 491 433 491 433 491 344 c 0,11,12
 491 214 491 214 347 214 c 2,13,-1
 158 214 l 1,14,15
 158 137 158 137 184 114 c 0,16,17
 198 101 198 101 216.5 97 c 128,-1,18
 235 93 235 93 323 93 c 128,-1,19
 411 93 411 93 481 104 c 1,20,-1
 481 23 l 1,21,22
 399 -5 399 -5 217 -5 c 0,23,24
 117 -5 117 -5 79.5 55.5 c 128,-1,25
 42 116 42 116 42 250.5 c 128,-1,26
 42 385 42 385 66 440 c 0,0,1
324 305 m 2,27,28
 375 305 375 305 375 348 c 0,29,30
 375 408 375 408 358.5 424 c 128,-1,31
 342 440 342 440 280 440 c 0,32,33
 201 440 201 440 185 422 c 0,34,35
 164 399 164 399 161 368.5 c 128,-1,36
 158 338 158 338 158 305 c 1,37,-1
 324 305 l 2,27,28
109 732 m 1,38,-1
 222 732 l 1,39,-1
 318 596 l 1,40,-1
 235 596 l 1,41,-1
 109 732 l 1,38,-1
EndSplineSet
Substitution2: "'smcp' Lowercase to Small Capitals lookup 1 subtable" egrave.smcp
EndChar

StartChar: eacute
Encoding: 233 233 170
Width: 525
GlyphClass: 2
Flags: W
LayerCount: 2
Fore
SplineSet
66 440 m 0,0,1
 78 470 78 470 95 488.5 c 128,-1,2
 112 507 112 507 140 517 c 0,3,4
 188 535 188 535 251 535 c 128,-1,5
 314 535 314 535 340.5 533 c 128,-1,6
 367 531 367 531 394 524.5 c 128,-1,7
 421 518 421 518 437 505 c 128,-1,8
 453 492 453 492 466 471 c 0,9,10
 491 433 491 433 491 344 c 0,11,12
 491 214 491 214 347 214 c 2,13,-1
 158 214 l 1,14,15
 158 137 158 137 184 114 c 0,16,17
 198 101 198 101 216.5 97 c 128,-1,18
 235 93 235 93 323 93 c 128,-1,19
 411 93 411 93 481 104 c 1,20,-1
 481 23 l 1,21,22
 399 -5 399 -5 217 -5 c 0,23,24
 117 -5 117 -5 79.5 55.5 c 128,-1,25
 42 116 42 116 42 250.5 c 128,-1,26
 42 385 42 385 66 440 c 0,0,1
324 305 m 2,27,28
 375 305 375 305 375 348 c 0,29,30
 375 408 375 408 358.5 424 c 128,-1,31
 342 440 342 440 280 440 c 0,32,33
 201 440 201 440 185 422 c 0,34,35
 164 399 164 399 161 368.5 c 128,-1,36
 158 338 158 338 158 305 c 1,37,-1
 324 305 l 2,27,28
229 596 m 1,38,-1
 325 732 l 1,39,-1
 438 732 l 1,40,-1
 312 596 l 1,41,-1
 229 596 l 1,38,-1
EndSplineSet
Substitution2: "'smcp' Lowercase to Small Capitals lookup 1 subtable" eacute.smcp
EndChar

StartChar: ecircumflex
Encoding: 234 234 171
Width: 525
GlyphClass: 2
Flags: W
LayerCount: 2
Fore
SplineSet
66 440 m 0,0,1
 78 470 78 470 95 488.5 c 128,-1,2
 112 507 112 507 140 517 c 0,3,4
 188 535 188 535 251 535 c 128,-1,5
 314 535 314 535 340.5 533 c 128,-1,6
 367 531 367 531 394 524.5 c 128,-1,7
 421 518 421 518 437 505 c 128,-1,8
 453 492 453 492 466 471 c 0,9,10
 491 433 491 433 491 344 c 0,11,12
 491 214 491 214 347 214 c 2,13,-1
 158 214 l 1,14,15
 158 137 158 137 184 114 c 0,16,17
 198 101 198 101 216.5 97 c 128,-1,18
 235 93 235 93 323 93 c 128,-1,19
 411 93 411 93 481 104 c 1,20,-1
 481 23 l 1,21,22
 399 -5 399 -5 217 -5 c 0,23,24
 117 -5 117 -5 79.5 55.5 c 128,-1,25
 42 116 42 116 42 250.5 c 128,-1,26
 42 385 42 385 66 440 c 0,0,1
324 305 m 2,27,28
 375 305 375 305 375 348 c 0,29,30
 375 408 375 408 358.5 424 c 128,-1,31
 342 440 342 440 280 440 c 0,32,33
 201 440 201 440 185 422 c 0,34,35
 164 399 164 399 161 368.5 c 128,-1,36
 158 338 158 338 158 305 c 1,37,-1
 324 305 l 2,27,28
118 596 m 1,38,-1
 229 730 l 1,39,-1
 321 730 l 1,40,-1
 420 596 l 1,41,-1
 335 596 l 1,42,-1
 272 660 l 1,43,-1
 204 596 l 1,44,-1
 118 596 l 1,38,-1
EndSplineSet
Substitution2: "'smcp' Lowercase to Small Capitals lookup 1 subtable" ecircumflex.smcp
EndChar

StartChar: edieresis
Encoding: 235 235 172
Width: 525
GlyphClass: 2
Flags: W
LayerCount: 2
Fore
SplineSet
66 440 m 0,0,1
 78 470 78 470 95 488.5 c 128,-1,2
 112 507 112 507 140 517 c 0,3,4
 188 535 188 535 251 535 c 128,-1,5
 314 535 314 535 340.5 533 c 128,-1,6
 367 531 367 531 394 524.5 c 128,-1,7
 421 518 421 518 437 505 c 128,-1,8
 453 492 453 492 466 471 c 0,9,10
 491 433 491 433 491 344 c 0,11,12
 491 214 491 214 347 214 c 2,13,-1
 158 214 l 1,14,15
 158 137 158 137 184 114 c 0,16,17
 198 101 198 101 216.5 97 c 128,-1,18
 235 93 235 93 323 93 c 128,-1,19
 411 93 411 93 481 104 c 1,20,-1
 481 23 l 1,21,22
 399 -5 399 -5 217 -5 c 0,23,24
 117 -5 117 -5 79.5 55.5 c 128,-1,25
 42 116 42 116 42 250.5 c 128,-1,26
 42 385 42 385 66 440 c 0,0,1
324 305 m 2,27,28
 375 305 375 305 375 348 c 0,29,30
 375 408 375 408 358.5 424 c 128,-1,31
 342 440 342 440 280 440 c 0,32,33
 201 440 201 440 185 422 c 0,34,35
 164 399 164 399 161 368.5 c 128,-1,36
 158 338 158 338 158 305 c 1,37,-1
 324 305 l 2,27,28
84 652 m 128,-1,39
 84 675 84 675 100.5 691.5 c 128,-1,40
 117 708 117 708 140 708 c 128,-1,41
 163 708 163 708 179 691.5 c 128,-1,42
 195 675 195 675 195 652 c 128,-1,43
 195 629 195 629 179 612.5 c 128,-1,44
 163 596 163 596 140 596 c 128,-1,45
 117 596 117 596 100.5 612.5 c 128,-1,38
 84 629 84 629 84 652 c 128,-1,39
339 652 m 128,-1,47
 339 675 339 675 355.5 691.5 c 128,-1,48
 372 708 372 708 395 708 c 128,-1,49
 418 708 418 708 434 691.5 c 128,-1,50
 450 675 450 675 450 652 c 128,-1,51
 450 629 450 629 434 612.5 c 128,-1,52
 418 596 418 596 395 596 c 128,-1,53
 372 596 372 596 355.5 612.5 c 128,-1,46
 339 629 339 629 339 652 c 128,-1,47
EndSplineSet
Substitution2: "'smcp' Lowercase to Small Capitals lookup 1 subtable" edieresis.smcp
EndChar

StartChar: igrave
Encoding: 236 236 173
Width: 217
GlyphClass: 2
Flags: W
LayerCount: 2
Fore
SplineSet
51 0 m 1,0,-1
 51 531 l 1,1,-1
 167 531 l 1,2,-1
 167 0 l 1,3,-1
 51 0 l 1,0,-1
-59 732 m 1,4,-1
 54 732 l 1,5,-1
 150 596 l 1,6,-1
 67 596 l 1,7,-1
 -59 732 l 1,4,-1
EndSplineSet
Substitution2: "'smcp' Lowercase to Small Capitals lookup 1 subtable" igrave.smcp
EndChar

StartChar: iacute
Encoding: 237 237 174
Width: 217
GlyphClass: 2
Flags: W
LayerCount: 2
Fore
SplineSet
51 0 m 1,0,-1
 51 531 l 1,1,-1
 167 531 l 1,2,-1
 167 0 l 1,3,-1
 51 0 l 1,0,-1
67 596 m 1,4,-1
 164 732 l 1,5,-1
 276 732 l 1,6,-1
 150 596 l 1,7,-1
 67 596 l 1,4,-1
EndSplineSet
Substitution2: "'smcp' Lowercase to Small Capitals lookup 1 subtable" iacute.smcp
EndChar

StartChar: icircumflex
Encoding: 238 238 175
Width: 217
GlyphClass: 2
Flags: W
LayerCount: 2
Fore
SplineSet
51 0 m 1,0,-1
 51 531 l 1,1,-1
 167 531 l 1,2,-1
 167 0 l 1,3,-1
 51 0 l 1,0,-1
-42 596 m 1,4,-1
 69 730 l 1,5,-1
 161 730 l 1,6,-1
 260 596 l 1,7,-1
 175 596 l 1,8,-1
 112 660 l 1,9,-1
 44 596 l 1,10,-1
 -42 596 l 1,4,-1
EndSplineSet
Substitution2: "'smcp' Lowercase to Small Capitals lookup 1 subtable" icircumflex.smcp
EndChar

StartChar: idieresis
Encoding: 239 239 176
Width: 217
GlyphClass: 2
Flags: W
LayerCount: 2
Fore
SplineSet
51 0 m 1,0,-1
 51 531 l 1,1,-1
 167 531 l 1,2,-1
 167 0 l 1,3,-1
 51 0 l 1,0,-1
-74 652 m 128,-1,5
 -74 675 -74 675 -57.5 691.5 c 128,-1,6
 -41 708 -41 708 -18 708 c 128,-1,7
 5 708 5 708 21 691.5 c 128,-1,8
 37 675 37 675 37 652 c 128,-1,9
 37 629 37 629 21 612.5 c 128,-1,10
 5 596 5 596 -18 596 c 128,-1,11
 -41 596 -41 596 -57.5 612.5 c 128,-1,4
 -74 629 -74 629 -74 652 c 128,-1,5
181 652 m 128,-1,13
 181 675 181 675 197.5 691.5 c 128,-1,14
 214 708 214 708 237 708 c 128,-1,15
 260 708 260 708 276 691.5 c 128,-1,16
 292 675 292 675 292 652 c 128,-1,17
 292 629 292 629 276 612.5 c 128,-1,18
 260 596 260 596 237 596 c 128,-1,19
 214 596 214 596 197.5 612.5 c 128,-1,12
 181 629 181 629 181 652 c 128,-1,13
EndSplineSet
Substitution2: "'smcp' Lowercase to Small Capitals lookup 1 subtable" idieresis.smcp
EndChar

StartChar: eth
Encoding: 240 240 177
Width: 539
GlyphClass: 2
Flags: W
LayerCount: 2
Fore
SplineSet
75.5 63 m 128,-1,1
 34 126 34 126 34 261.5 c 128,-1,2
 34 397 34 397 76.5 464 c 128,-1,3
 119 531 119 531 217 531 c 2,4,-1
 289 531 l 2,5,6
 347 531 347 531 363 520 c 1,7,8
 342 588 342 588 299 629 c 1,9,-1
 174 574 l 1,10,-1
 147 632 l 1,11,-1
 233 670 l 1,12,13
 192 687 192 687 127 687 c 0,14,15
 117 687 117 687 106 686 c 1,16,-1
 106 783 l 1,17,18
 259 783 259 783 345 723 c 1,19,-1
 446 768 l 1,20,-1
 474 709 l 1,21,-1
 398 676 l 1,22,23
 506 550 506 550 506 264 c 0,24,25
 506 0 506 0 321 0 c 2,26,-1
 217 0 l 2,27,0
 117 0 117 0 75.5 63 c 128,-1,1
159.5 364.5 m 128,-1,29
 150 329 150 329 150 270.5 c 128,-1,30
 150 212 150 212 155 180.5 c 128,-1,31
 160 149 160 149 172 134 c 128,-1,32
 184 119 184 119 196.5 115 c 128,-1,33
 209 111 209 111 232 111 c 2,34,-1
 307 111 l 2,35,36
 356 111 356 111 373 146 c 128,-1,37
 390 181 390 181 390 271 c 128,-1,38
 390 361 390 361 374 391.5 c 128,-1,39
 358 422 358 422 307 422 c 2,40,-1
 232 422 l 2,41,42
 202 422 202 422 185.5 411 c 128,-1,28
 169 400 169 400 159.5 364.5 c 128,-1,29
EndSplineSet
Substitution2: "'smcp' Lowercase to Small Capitals lookup 1 subtable" eth.smcp
EndChar

StartChar: ntilde
Encoding: 241 241 178
Width: 547
GlyphClass: 2
Flags: W
LayerCount: 2
Fore
SplineSet
390 361 m 2,0,1
 390 442 390 442 320 442 c 0,2,3
 274 442 274 442 243 430.5 c 128,-1,4
 212 419 212 419 167 392 c 1,5,-1
 167 0 l 1,6,-1
 51 0 l 1,7,-1
 51 531 l 1,8,-1
 141 531 l 1,9,-1
 167 472 l 1,10,11
 170 474 170 474 188.5 486.5 c 128,-1,12
 207 499 207 499 225.5 509.5 c 128,-1,13
 244 520 244 520 277 530 c 128,-1,14
 310 540 310 540 345 540 c 0,15,16
 428 540 428 540 467 489.5 c 128,-1,17
 506 439 506 439 506 360 c 2,18,-1
 506 0 l 1,19,-1
 390 0 l 1,20,-1
 390 361 l 2,0,1
337 683 m 0,21,22
 370 683 370 683 426 720 c 1,23,-1
 449 667 l 1,24,25
 395 615 395 615 367 606 c 0,26,27
 352 601 352 601 344 601 c 0,28,29
 310 601 310 601 276.5 618 c 128,-1,30
 243 635 243 635 226 635 c 0,31,32
 198 635 198 635 183 628 c 128,-1,33
 168 621 168 621 153.5 612.5 c 128,-1,34
 139 604 139 604 131 600 c 1,35,-1
 108 650 l 1,36,37
 140 682 140 682 168 700 c 128,-1,38
 196 718 196 718 224.5 717.5 c 128,-1,39
 253 717 253 717 286.5 700 c 128,-1,40
 320 683 320 683 327.5 683 c 128,-1,41
 335 683 335 683 337 683 c 0,21,22
EndSplineSet
AlternateSubs2: "'salt' Stylistic Alternatives in Latin lookup 16 subtable" ntilde.salt
Substitution2: "'smcp' Lowercase to Small Capitals lookup 1 subtable" ntilde.smcp
EndChar

StartChar: ograve
Encoding: 242 242 179
Width: 563
GlyphClass: 2
Flags: W
LayerCount: 2
Fore
SplineSet
54 136.5 m 128,-1,1
 42 185 42 185 42 276 c 128,-1,2
 42 367 42 367 65.5 427 c 128,-1,3
 89 487 89 487 139.5 511.5 c 128,-1,4
 190 536 190 536 282 536 c 0,5,6
 418 536 418 536 469.5 476 c 128,-1,7
 521 416 521 416 521 262.5 c 128,-1,8
 521 109 521 109 469.5 52 c 128,-1,9
 418 -5 418 -5 282 -5 c 0,10,11
 213 -5 213 -5 167.5 9 c 128,-1,12
 122 23 122 23 94 55.5 c 128,-1,0
 66 88 66 88 54 136.5 c 128,-1,1
160.5 328.5 m 128,-1,14
 158 300 158 300 158 260 c 128,-1,15
 158 220 158 220 161 193 c 128,-1,16
 164 166 164 166 171.5 148 c 128,-1,17
 179 130 179 130 188 119 c 128,-1,18
 197 108 197 108 212 102 c 1,19,20
 237 94 237 94 274.5 94 c 128,-1,21
 312 94 312 94 329 96.5 c 128,-1,22
 346 99 346 99 363 107.5 c 128,-1,23
 380 116 380 116 388 134 c 0,24,25
 405 174 405 174 405 237 c 128,-1,26
 405 300 405 300 402.5 328.5 c 128,-1,27
 400 357 400 357 393.5 377.5 c 128,-1,28
 387 398 387 398 379 409.5 c 128,-1,29
 371 421 371 421 356 427 c 0,30,31
 332 437 332 437 294 437.5 c 128,-1,32
 256 438 256 438 240 436 c 128,-1,33
 224 434 224 434 208.5 427.5 c 128,-1,34
 193 421 193 421 184.5 409.5 c 128,-1,35
 176 398 176 398 169.5 377.5 c 128,-1,13
 163 357 163 357 160.5 328.5 c 128,-1,14
121 732 m 1,36,-1
 233 732 l 1,37,-1
 330 596 l 1,38,-1
 247 596 l 1,39,-1
 121 732 l 1,36,-1
EndSplineSet
Substitution2: "'smcp' Lowercase to Small Capitals lookup 1 subtable" ograve.smcp
EndChar

StartChar: oacute
Encoding: 243 243 180
Width: 563
GlyphClass: 2
Flags: W
LayerCount: 2
Fore
SplineSet
54 136.5 m 128,-1,1
 42 185 42 185 42 276 c 128,-1,2
 42 367 42 367 65.5 427 c 128,-1,3
 89 487 89 487 139.5 511.5 c 128,-1,4
 190 536 190 536 282 536 c 0,5,6
 418 536 418 536 469.5 476 c 128,-1,7
 521 416 521 416 521 262.5 c 128,-1,8
 521 109 521 109 469.5 52 c 128,-1,9
 418 -5 418 -5 282 -5 c 0,10,11
 213 -5 213 -5 167.5 9 c 128,-1,12
 122 23 122 23 94 55.5 c 128,-1,0
 66 88 66 88 54 136.5 c 128,-1,1
160.5 328.5 m 128,-1,14
 158 300 158 300 158 260 c 128,-1,15
 158 220 158 220 161 193 c 128,-1,16
 164 166 164 166 171.5 148 c 128,-1,17
 179 130 179 130 188 119 c 128,-1,18
 197 108 197 108 212 102 c 1,19,20
 237 94 237 94 274.5 94 c 128,-1,21
 312 94 312 94 329 96.5 c 128,-1,22
 346 99 346 99 363 107.5 c 128,-1,23
 380 116 380 116 388 134 c 0,24,25
 405 174 405 174 405 237 c 128,-1,26
 405 300 405 300 402.5 328.5 c 128,-1,27
 400 357 400 357 393.5 377.5 c 128,-1,28
 387 398 387 398 379 409.5 c 128,-1,29
 371 421 371 421 356 427 c 0,30,31
 332 437 332 437 294 437.5 c 128,-1,32
 256 438 256 438 240 436 c 128,-1,33
 224 434 224 434 208.5 427.5 c 128,-1,34
 193 421 193 421 184.5 409.5 c 128,-1,35
 176 398 176 398 169.5 377.5 c 128,-1,13
 163 357 163 357 160.5 328.5 c 128,-1,14
240 596 m 1,36,-1
 337 732 l 1,37,-1
 449 732 l 1,38,-1
 323 596 l 1,39,-1
 240 596 l 1,36,-1
EndSplineSet
Substitution2: "'smcp' Lowercase to Small Capitals lookup 1 subtable" oacute.smcp
EndChar

StartChar: ocircumflex
Encoding: 244 244 181
Width: 563
GlyphClass: 2
Flags: W
LayerCount: 2
Fore
SplineSet
54 136.5 m 128,-1,1
 42 185 42 185 42 276 c 128,-1,2
 42 367 42 367 65.5 427 c 128,-1,3
 89 487 89 487 139.5 511.5 c 128,-1,4
 190 536 190 536 282 536 c 0,5,6
 418 536 418 536 469.5 476 c 128,-1,7
 521 416 521 416 521 262.5 c 128,-1,8
 521 109 521 109 469.5 52 c 128,-1,9
 418 -5 418 -5 282 -5 c 0,10,11
 213 -5 213 -5 167.5 9 c 128,-1,12
 122 23 122 23 94 55.5 c 128,-1,0
 66 88 66 88 54 136.5 c 128,-1,1
160.5 328.5 m 128,-1,14
 158 300 158 300 158 260 c 128,-1,15
 158 220 158 220 161 193 c 128,-1,16
 164 166 164 166 171.5 148 c 128,-1,17
 179 130 179 130 188 119 c 128,-1,18
 197 108 197 108 212 102 c 1,19,20
 237 94 237 94 274.5 94 c 128,-1,21
 312 94 312 94 329 96.5 c 128,-1,22
 346 99 346 99 363 107.5 c 128,-1,23
 380 116 380 116 388 134 c 0,24,25
 405 174 405 174 405 237 c 128,-1,26
 405 300 405 300 402.5 328.5 c 128,-1,27
 400 357 400 357 393.5 377.5 c 128,-1,28
 387 398 387 398 379 409.5 c 128,-1,29
 371 421 371 421 356 427 c 0,30,31
 332 437 332 437 294 437.5 c 128,-1,32
 256 438 256 438 240 436 c 128,-1,33
 224 434 224 434 208.5 427.5 c 128,-1,34
 193 421 193 421 184.5 409.5 c 128,-1,35
 176 398 176 398 169.5 377.5 c 128,-1,13
 163 357 163 357 160.5 328.5 c 128,-1,14
134 596 m 1,36,-1
 245 730 l 1,37,-1
 337 730 l 1,38,-1
 436 596 l 1,39,-1
 351 596 l 1,40,-1
 288 660 l 1,41,-1
 220 596 l 1,42,-1
 134 596 l 1,36,-1
EndSplineSet
Substitution2: "'smcp' Lowercase to Small Capitals lookup 1 subtable" ocircumflex.smcp
EndChar

StartChar: otilde
Encoding: 245 245 182
Width: 563
GlyphClass: 2
Flags: W
LayerCount: 2
Fore
SplineSet
54 136.5 m 128,-1,1
 42 185 42 185 42 276 c 128,-1,2
 42 367 42 367 65.5 427 c 128,-1,3
 89 487 89 487 139.5 511.5 c 128,-1,4
 190 536 190 536 282 536 c 0,5,6
 418 536 418 536 469.5 476 c 128,-1,7
 521 416 521 416 521 262.5 c 128,-1,8
 521 109 521 109 469.5 52 c 128,-1,9
 418 -5 418 -5 282 -5 c 0,10,11
 213 -5 213 -5 167.5 9 c 128,-1,12
 122 23 122 23 94 55.5 c 128,-1,0
 66 88 66 88 54 136.5 c 128,-1,1
160.5 328.5 m 128,-1,14
 158 300 158 300 158 260 c 128,-1,15
 158 220 158 220 161 193 c 128,-1,16
 164 166 164 166 171.5 148 c 128,-1,17
 179 130 179 130 188 119 c 128,-1,18
 197 108 197 108 212 102 c 1,19,20
 237 94 237 94 274.5 94 c 128,-1,21
 312 94 312 94 329 96.5 c 128,-1,22
 346 99 346 99 363 107.5 c 128,-1,23
 380 116 380 116 388 134 c 0,24,25
 405 174 405 174 405 237 c 128,-1,26
 405 300 405 300 402.5 328.5 c 128,-1,27
 400 357 400 357 393.5 377.5 c 128,-1,28
 387 398 387 398 379 409.5 c 128,-1,29
 371 421 371 421 356 427 c 0,30,31
 332 437 332 437 294 437.5 c 128,-1,32
 256 438 256 438 240 436 c 128,-1,33
 224 434 224 434 208.5 427.5 c 128,-1,34
 193 421 193 421 184.5 409.5 c 128,-1,35
 176 398 176 398 169.5 377.5 c 128,-1,13
 163 357 163 357 160.5 328.5 c 128,-1,14
346 679 m 0,36,37
 379 679 379 679 435 716 c 1,38,-1
 458 663 l 1,39,40
 404 611 404 611 376 602 c 0,41,42
 361 597 361 597 353 597 c 0,43,44
 319 597 319 597 285.5 614 c 128,-1,45
 252 631 252 631 235 631 c 0,46,47
 207 631 207 631 192 624 c 128,-1,48
 177 617 177 617 162.5 608.5 c 128,-1,49
 148 600 148 600 140 596 c 1,50,-1
 117 646 l 1,51,52
 149 678 149 678 177 696 c 128,-1,53
 205 714 205 714 233.5 713.5 c 128,-1,54
 262 713 262 713 295.5 696 c 128,-1,55
 329 679 329 679 336.5 679 c 128,-1,56
 344 679 344 679 346 679 c 0,36,37
EndSplineSet
Substitution2: "'smcp' Lowercase to Small Capitals lookup 1 subtable" otilde.smcp
EndChar

StartChar: odieresis
Encoding: 246 246 183
Width: 563
GlyphClass: 2
Flags: W
LayerCount: 2
Fore
SplineSet
54 136.5 m 128,-1,1
 42 185 42 185 42 276 c 128,-1,2
 42 367 42 367 65.5 427 c 128,-1,3
 89 487 89 487 139.5 511.5 c 128,-1,4
 190 536 190 536 282 536 c 0,5,6
 418 536 418 536 469.5 476 c 128,-1,7
 521 416 521 416 521 262.5 c 128,-1,8
 521 109 521 109 469.5 52 c 128,-1,9
 418 -5 418 -5 282 -5 c 0,10,11
 213 -5 213 -5 167.5 9 c 128,-1,12
 122 23 122 23 94 55.5 c 128,-1,0
 66 88 66 88 54 136.5 c 128,-1,1
160.5 328.5 m 128,-1,14
 158 300 158 300 158 260 c 128,-1,15
 158 220 158 220 161 193 c 128,-1,16
 164 166 164 166 171.5 148 c 128,-1,17
 179 130 179 130 188 119 c 128,-1,18
 197 108 197 108 212 102 c 1,19,20
 237 94 237 94 274.5 94 c 128,-1,21
 312 94 312 94 329 96.5 c 128,-1,22
 346 99 346 99 363 107.5 c 128,-1,23
 380 116 380 116 388 134 c 0,24,25
 405 174 405 174 405 237 c 128,-1,26
 405 300 405 300 402.5 328.5 c 128,-1,27
 400 357 400 357 393.5 377.5 c 128,-1,28
 387 398 387 398 379 409.5 c 128,-1,29
 371 421 371 421 356 427 c 0,30,31
 332 437 332 437 294 437.5 c 128,-1,32
 256 438 256 438 240 436 c 128,-1,33
 224 434 224 434 208.5 427.5 c 128,-1,34
 193 421 193 421 184.5 409.5 c 128,-1,35
 176 398 176 398 169.5 377.5 c 128,-1,13
 163 357 163 357 160.5 328.5 c 128,-1,14
99 652 m 128,-1,37
 99 675 99 675 115.5 691.5 c 128,-1,38
 132 708 132 708 155 708 c 128,-1,39
 178 708 178 708 194 691.5 c 128,-1,40
 210 675 210 675 210 652 c 128,-1,41
 210 629 210 629 194 612.5 c 128,-1,42
 178 596 178 596 155 596 c 128,-1,43
 132 596 132 596 115.5 612.5 c 128,-1,36
 99 629 99 629 99 652 c 128,-1,37
354 652 m 128,-1,45
 354 675 354 675 370.5 691.5 c 128,-1,46
 387 708 387 708 410 708 c 128,-1,47
 433 708 433 708 449 691.5 c 128,-1,48
 465 675 465 675 465 652 c 128,-1,49
 465 629 465 629 449 612.5 c 128,-1,50
 433 596 433 596 410 596 c 128,-1,51
 387 596 387 596 370.5 612.5 c 128,-1,44
 354 629 354 629 354 652 c 128,-1,45
EndSplineSet
Substitution2: "'smcp' Lowercase to Small Capitals lookup 1 subtable" odieresis.smcp
EndChar

StartChar: divide
Encoding: 247 247 184
Width: 504
GlyphClass: 2
Flags: W
LayerCount: 2
Fore
SplineSet
42 302 m 1,0,-1
 42 404 l 1,1,-1
 462 404 l 1,2,-1
 462 302 l 1,3,-1
 42 302 l 1,0,-1
196 161 m 2,4,-1
 196 224 l 2,5,6
 196 248 196 248 220 248 c 2,7,-1
 285 248 l 2,8,9
 308 248 308 248 308 224 c 2,10,-1
 308 161 l 2,11,12
 308 138 308 138 285 138 c 2,13,-1
 220 138 l 2,14,15
 209 138 209 138 202.5 144.5 c 128,-1,16
 196 151 196 151 196 161 c 2,4,-1
196 476 m 2,17,-1
 196 538 l 2,18,19
 196 563 196 563 220 563 c 2,20,-1
 285 563 l 2,21,22
 308 563 308 563 308 538 c 2,23,-1
 308 476 l 2,24,25
 308 453 308 453 285 453 c 2,26,-1
 220 453 l 2,27,28
 202 453 202 453 197 468 c 0,29,30
 196 472 196 472 196 476 c 2,17,-1
EndSplineSet
EndChar

StartChar: oslash
Encoding: 248 248 185
Width: 576
GlyphClass: 2
Flags: W
LayerCount: 2
Fore
SplineSet
93 65 m 1,0,1
 49 123 49 123 49 245 c 128,-1,2
 49 367 49 367 72.5 427 c 128,-1,3
 96 487 96 487 146.5 511.5 c 128,-1,4
 197 536 197 536 291 536 c 128,-1,5
 385 536 385 536 436 509 c 1,6,-1
 453 531 l 1,7,-1
 526 531 l 1,8,-1
 480 472 l 1,9,10
 528 412 528 412 528 260.5 c 128,-1,11
 528 109 528 109 476.5 52 c 128,-1,12
 425 -5 425 -5 289 -5 c 0,13,14
 187 -5 187 -5 134 27 c 1,15,-1
 113 0 l 1,16,-1
 43 0 l 1,17,-1
 93 65 l 1,0,1
167.5 328.5 m 128,-1,19
 165 300 165 300 165 250 c 128,-1,20
 165 200 165 200 178 171 c 1,21,-1
 368 423 l 1,22,23
 346 438 346 438 304.5 438 c 128,-1,24
 263 438 263 438 247 436 c 128,-1,25
 231 434 231 434 215.5 427.5 c 128,-1,26
 200 421 200 421 191.5 409.5 c 128,-1,27
 183 398 183 398 176.5 377.5 c 128,-1,18
 170 357 170 357 167.5 328.5 c 128,-1,19
365.5 105 m 128,-1,29
 387 116 387 116 395 134 c 0,30,31
 412 174 412 174 412 255.5 c 128,-1,32
 412 337 412 337 396 368 c 1,33,-1
 203 113 l 1,34,35
 225 94 225 94 284.5 94 c 128,-1,28
 344 94 344 94 365.5 105 c 128,-1,29
EndSplineSet
Substitution2: "'smcp' Lowercase to Small Capitals lookup 1 subtable" oslash.smcp
EndChar

StartChar: ugrave
Encoding: 249 249 186
Width: 547
GlyphClass: 2
Flags: W
LayerCount: 2
Fore
SplineSet
42 172 m 2,0,-1
 42 531 l 1,1,-1
 158 531 l 1,2,-1
 158 170 l 2,3,4
 158 129 158 129 177 109.5 c 128,-1,5
 196 90 196 90 235 90 c 128,-1,6
 274 90 274 90 305 101 c 128,-1,7
 336 112 336 112 381 140 c 1,8,-1
 381 531 l 1,9,-1
 497 531 l 1,10,-1
 497 0 l 1,11,-1
 407 0 l 1,12,-1
 381 58 l 1,13,14
 373 54 373 54 355 42.5 c 128,-1,15
 337 31 337 31 328 26 c 128,-1,16
 319 21 319 21 302 13 c 128,-1,17
 285 5 285 5 272 1 c 0,18,19
 238 -9 238 -9 203 -9 c 0,20,21
 120 -9 120 -9 81 41.5 c 128,-1,22
 42 92 42 92 42 172 c 2,0,-1
109 732 m 1,23,-1
 221 732 l 1,24,-1
 318 596 l 1,25,-1
 235 596 l 1,26,-1
 109 732 l 1,23,-1
EndSplineSet
AlternateSubs2: "'salt' Stylistic Alternatives in Latin lookup 16 subtable" ugrave.salt
Substitution2: "'smcp' Lowercase to Small Capitals lookup 1 subtable" ugrave.smcp
EndChar

StartChar: uacute
Encoding: 250 250 187
Width: 547
GlyphClass: 2
Flags: W
LayerCount: 2
Fore
SplineSet
42 172 m 2,0,-1
 42 531 l 1,1,-1
 158 531 l 1,2,-1
 158 170 l 2,3,4
 158 129 158 129 177 109.5 c 128,-1,5
 196 90 196 90 235 90 c 128,-1,6
 274 90 274 90 305 101 c 128,-1,7
 336 112 336 112 381 140 c 1,8,-1
 381 531 l 1,9,-1
 497 531 l 1,10,-1
 497 0 l 1,11,-1
 407 0 l 1,12,-1
 381 58 l 1,13,14
 373 54 373 54 355 42.5 c 128,-1,15
 337 31 337 31 328 26 c 128,-1,16
 319 21 319 21 302 13 c 128,-1,17
 285 5 285 5 272 1 c 0,18,19
 238 -9 238 -9 203 -9 c 0,20,21
 120 -9 120 -9 81 41.5 c 128,-1,22
 42 92 42 92 42 172 c 2,0,-1
228 596 m 1,23,-1
 325 732 l 1,24,-1
 437 732 l 1,25,-1
 311 596 l 1,26,-1
 228 596 l 1,23,-1
EndSplineSet
AlternateSubs2: "'salt' Stylistic Alternatives in Latin lookup 16 subtable" uacute.salt
Substitution2: "'smcp' Lowercase to Small Capitals lookup 1 subtable" uacute.smcp
EndChar

StartChar: ucircumflex
Encoding: 251 251 188
Width: 547
GlyphClass: 2
Flags: W
LayerCount: 2
Fore
SplineSet
42 172 m 2,0,-1
 42 531 l 1,1,-1
 158 531 l 1,2,-1
 158 170 l 2,3,4
 158 129 158 129 177 109.5 c 128,-1,5
 196 90 196 90 235 90 c 128,-1,6
 274 90 274 90 305 101 c 128,-1,7
 336 112 336 112 381 140 c 1,8,-1
 381 531 l 1,9,-1
 497 531 l 1,10,-1
 497 0 l 1,11,-1
 407 0 l 1,12,-1
 381 58 l 1,13,14
 373 54 373 54 355 42.5 c 128,-1,15
 337 31 337 31 328 26 c 128,-1,16
 319 21 319 21 302 13 c 128,-1,17
 285 5 285 5 272 1 c 0,18,19
 238 -9 238 -9 203 -9 c 0,20,21
 120 -9 120 -9 81 41.5 c 128,-1,22
 42 92 42 92 42 172 c 2,0,-1
119 596 m 1,23,-1
 230 730 l 1,24,-1
 322 730 l 1,25,-1
 421 596 l 1,26,-1
 336 596 l 1,27,-1
 273 660 l 1,28,-1
 205 596 l 1,29,-1
 119 596 l 1,23,-1
EndSplineSet
AlternateSubs2: "'salt' Stylistic Alternatives in Latin lookup 16 subtable" ucircumflex.salt
Substitution2: "'smcp' Lowercase to Small Capitals lookup 1 subtable" ucircumflex.smcp
EndChar

StartChar: udieresis
Encoding: 252 252 189
Width: 547
GlyphClass: 2
Flags: W
LayerCount: 2
Fore
SplineSet
42 172 m 2,0,-1
 42 531 l 1,1,-1
 158 531 l 1,2,-1
 158 170 l 2,3,4
 158 129 158 129 177 109.5 c 128,-1,5
 196 90 196 90 235 90 c 128,-1,6
 274 90 274 90 305 101 c 128,-1,7
 336 112 336 112 381 140 c 1,8,-1
 381 531 l 1,9,-1
 497 531 l 1,10,-1
 497 0 l 1,11,-1
 407 0 l 1,12,-1
 381 58 l 1,13,14
 373 54 373 54 355 42.5 c 128,-1,15
 337 31 337 31 328 26 c 128,-1,16
 319 21 319 21 302 13 c 128,-1,17
 285 5 285 5 272 1 c 0,18,19
 238 -9 238 -9 203 -9 c 0,20,21
 120 -9 120 -9 81 41.5 c 128,-1,22
 42 92 42 92 42 172 c 2,0,-1
87 652 m 128,-1,24
 87 675 87 675 103.5 691.5 c 128,-1,25
 120 708 120 708 143 708 c 128,-1,26
 166 708 166 708 182 691.5 c 128,-1,27
 198 675 198 675 198 652 c 128,-1,28
 198 629 198 629 182 612.5 c 128,-1,29
 166 596 166 596 143 596 c 128,-1,30
 120 596 120 596 103.5 612.5 c 128,-1,23
 87 629 87 629 87 652 c 128,-1,24
342 652 m 128,-1,32
 342 675 342 675 358.5 691.5 c 128,-1,33
 375 708 375 708 398 708 c 128,-1,34
 421 708 421 708 437 691.5 c 128,-1,35
 453 675 453 675 453 652 c 128,-1,36
 453 629 453 629 437 612.5 c 128,-1,37
 421 596 421 596 398 596 c 128,-1,38
 375 596 375 596 358.5 612.5 c 128,-1,31
 342 629 342 629 342 652 c 128,-1,32
EndSplineSet
AlternateSubs2: "'salt' Stylistic Alternatives in Latin lookup 16 subtable" udieresis.salt
Substitution2: "'smcp' Lowercase to Small Capitals lookup 1 subtable" udieresis.smcp
EndChar

StartChar: yacute
Encoding: 253 253 190
Width: 569
GlyphClass: 2
Flags: W
LayerCount: 2
Fore
SplineSet
18 531 m 1,0,-1
 141 531 l 1,1,-1
 246 144 l 2,2,3
 252 122 252 122 262 115 c 128,-1,4
 272 108 272 108 278.5 106 c 128,-1,5
 285 104 285 104 289.5 104 c 128,-1,6
 294 104 294 104 299 104.5 c 128,-1,7
 304 105 304 105 304 105 c 1,8,-1
 427 531 l 1,9,-1
 550 531 l 1,10,-1
 348 -168 l 1,11,-1
 274 -270 l 1,12,-1
 194 -270 l 1,13,-1
 276 0 l 1,14,15
 167 0 167 0 131 126 c 2,16,-1
 18 531 l 1,0,-1
242 596 m 1,17,-1
 339 732 l 1,18,-1
 451 732 l 1,19,-1
 325 596 l 1,20,-1
 242 596 l 1,17,-1
EndSplineSet
Substitution2: "'smcp' Lowercase to Small Capitals lookup 1 subtable" yacute.smcp
EndChar

StartChar: thorn
Encoding: 254 254 191
Width: 555
GlyphClass: 2
Flags: W
LayerCount: 2
Fore
SplineSet
59 -270 m 1,0,-1
 59 782 l 1,1,-1
 175 782 l 1,2,-1
 175 472 l 1,3,4
 204 495 204 495 254 516 c 128,-1,5
 304 537 304 537 348 537 c 0,6,7
 522 537 522 537 522 265 c 0,8,9
 522 105 522 105 474 43 c 0,10,11
 432 -12 432 -12 348 -12 c 0,12,13
 311 -12 311 -12 262 -2 c 128,-1,14
 213 8 213 8 175 26 c 1,15,-1
 175 -270 l 1,16,-1
 59 -270 l 1,0,-1
406 263 m 0,17,18
 406 433 406 433 325 433 c 1,19,20
 249 430 249 430 175 393 c 1,21,-1
 175 106 l 1,22,23
 196 100 196 100 209 97 c 128,-1,24
 222 94 222 94 229 93 c 128,-1,25
 236 92 236 92 247 90.5 c 128,-1,26
 258 89 258 89 263 88.5 c 128,-1,27
 268 88 268 88 280 87.5 c 128,-1,28
 292 87 292 87 294.5 86.5 c 128,-1,29
 297 86 297 86 310.5 85.5 c 128,-1,30
 324 85 324 85 334.5 85 c 128,-1,31
 345 85 345 85 358.5 92.5 c 128,-1,32
 372 100 372 100 383 119 c 0,33,34
 406 156 406 156 406 263 c 0,17,18
EndSplineSet
Substitution2: "'smcp' Lowercase to Small Capitals lookup 1 subtable" thorn.smcp
EndChar

StartChar: ydieresis
Encoding: 255 255 192
Width: 569
GlyphClass: 2
Flags: W
LayerCount: 2
Fore
SplineSet
18 531 m 1,0,-1
 141 531 l 1,1,-1
 246 144 l 2,2,3
 252 122 252 122 262 115 c 128,-1,4
 272 108 272 108 278.5 106 c 128,-1,5
 285 104 285 104 289.5 104 c 128,-1,6
 294 104 294 104 299 104.5 c 128,-1,7
 304 105 304 105 304 105 c 1,8,-1
 427 531 l 1,9,-1
 550 531 l 1,10,-1
 348 -168 l 1,11,-1
 274 -270 l 1,12,-1
 194 -270 l 1,13,-1
 276 0 l 1,14,15
 167 0 167 0 131 126 c 2,16,-1
 18 531 l 1,0,-1
101 652 m 128,-1,18
 101 675 101 675 117.5 691.5 c 128,-1,19
 134 708 134 708 157 708 c 128,-1,20
 180 708 180 708 196 691.5 c 128,-1,21
 212 675 212 675 212 652 c 128,-1,22
 212 629 212 629 196 612.5 c 128,-1,23
 180 596 180 596 157 596 c 128,-1,24
 134 596 134 596 117.5 612.5 c 128,-1,17
 101 629 101 629 101 652 c 128,-1,18
356 652 m 128,-1,26
 356 675 356 675 372.5 691.5 c 128,-1,27
 389 708 389 708 412 708 c 128,-1,28
 435 708 435 708 451 691.5 c 128,-1,29
 467 675 467 675 467 652 c 128,-1,30
 467 629 467 629 451 612.5 c 128,-1,31
 435 596 435 596 412 596 c 128,-1,32
 389 596 389 596 372.5 612.5 c 128,-1,25
 356 629 356 629 356 652 c 128,-1,26
EndSplineSet
Substitution2: "'smcp' Lowercase to Small Capitals lookup 1 subtable" ydieresis.smcp
EndChar

StartChar: Amacron
Encoding: 256 256 193
Width: 684
GlyphClass: 2
Flags: W
LayerCount: 2
Fore
SplineSet
38 0 m 1,0,-1
 293 732 l 1,1,-1
 421 732 l 1,2,-1
 666 0 l 1,3,-1
 539 0 l 1,4,-1
 483 177 l 1,5,-1
 224 177 l 1,6,-1
 167 0 l 1,7,-1
 38 0 l 1,0,-1
257 283 m 1,8,-1
 453 283 l 1,9,-1
 357 574 l 1,10,-1
 257 283 l 1,8,-1
211 797 m 1,11,-1
 211 870 l 1,12,-1
 503 870 l 1,13,-1
 503 797 l 1,14,-1
 211 797 l 1,11,-1
EndSplineSet
Substitution2: "'c2sc' Capitals to Small Capitals in Latin lookup 2 subtable" amacron.smcp
EndChar

StartChar: amacron
Encoding: 257 257 194
Width: 519
GlyphClass: 2
Flags: W
LayerCount: 2
Fore
SplineSet
51 508 m 1,0,1
 147 541 147 541 302 541 c 0,2,3
 477 541 477 541 477 376 c 2,4,-1
 477 0 l 1,5,-1
 387 0 l 1,6,-1
 361 60 l 1,7,8
 358 55 358 55 331.5 40 c 128,-1,9
 305 25 305 25 261 9.5 c 128,-1,10
 217 -6 217 -6 180 -6 c 0,11,12
 112 -6 112 -6 73 34 c 128,-1,13
 34 74 34 74 34 132 c 2,14,-1
 34 186 l 2,15,16
 34 248 34 248 71 287.5 c 128,-1,17
 108 327 108 327 189.5 327 c 128,-1,18
 271 327 271 327 316 327 c 128,-1,19
 361 327 361 327 361 327 c 1,20,21
 362 350 362 350 362 361.5 c 128,-1,22
 362 373 362 373 361 373 c 1,23,24
 361 414 361 414 342.5 429 c 128,-1,25
 324 444 324 444 286 444 c 0,26,27
 212 444 212 444 51 433 c 1,28,-1
 51 508 l 1,0,1
150 146 m 2,29,30
 150 115 150 115 164 103.5 c 128,-1,31
 178 92 178 92 205 92 c 128,-1,32
 232 92 232 92 271.5 103.5 c 128,-1,33
 311 115 311 115 336 126 c 2,34,-1
 361 137 l 1,35,-1
 361 251 l 1,36,-1
 199 239 l 1,37,38
 150 234 150 234 150 181 c 2,39,-1
 150 146 l 2,29,30
125 601 m 1,40,-1
 125 674 l 1,41,-1
 417 674 l 1,42,-1
 417 601 l 1,43,-1
 125 601 l 1,40,-1
EndSplineSet
AlternateSubs2: "'salt' Stylistic Alternatives in Latin lookup 16 subtable" amacron.salt
Substitution2: "'smcp' Lowercase to Small Capitals lookup 1 subtable" amacron.smcp
EndChar

StartChar: Abreve
Encoding: 258 258 195
Width: 684
GlyphClass: 2
Flags: W
LayerCount: 2
Fore
SplineSet
38 0 m 1,0,-1
 293 732 l 1,1,-1
 421 732 l 1,2,-1
 666 0 l 1,3,-1
 539 0 l 1,4,-1
 483 177 l 1,5,-1
 224 177 l 1,6,-1
 167 0 l 1,7,-1
 38 0 l 1,0,-1
257 283 m 1,8,-1
 453 283 l 1,9,-1
 357 574 l 1,10,-1
 257 283 l 1,8,-1
242 911 m 1,11,-1
 296 911 l 1,12,13
 296 875 296 875 326 858 c 0,14,15
 340 851 340 851 362.5 851 c 128,-1,16
 385 851 385 851 401.5 867 c 128,-1,17
 418 883 418 883 418 911 c 1,18,-1
 472 911 l 1,19,20
 472 876 472 876 456 849 c 0,21,22
 423 797 423 797 356 797 c 0,23,24
 291 797 291 797 258 850 c 0,25,26
 242 876 242 876 242 911 c 1,11,-1
EndSplineSet
Substitution2: "'c2sc' Capitals to Small Capitals in Latin lookup 2 subtable" abreve.smcp
EndChar

StartChar: abreve
Encoding: 259 259 196
Width: 519
GlyphClass: 2
Flags: W
LayerCount: 2
Fore
SplineSet
51 508 m 1,0,1
 147 541 147 541 302 541 c 0,2,3
 477 541 477 541 477 376 c 2,4,-1
 477 0 l 1,5,-1
 387 0 l 1,6,-1
 361 60 l 1,7,8
 358 55 358 55 331.5 40 c 128,-1,9
 305 25 305 25 261 9.5 c 128,-1,10
 217 -6 217 -6 180 -6 c 0,11,12
 112 -6 112 -6 73 34 c 128,-1,13
 34 74 34 74 34 132 c 2,14,-1
 34 186 l 2,15,16
 34 248 34 248 71 287.5 c 128,-1,17
 108 327 108 327 189.5 327 c 128,-1,18
 271 327 271 327 316 327 c 128,-1,19
 361 327 361 327 361 327 c 1,20,21
 362 350 362 350 362 361.5 c 128,-1,22
 362 373 362 373 361 373 c 1,23,24
 361 414 361 414 342.5 429 c 128,-1,25
 324 444 324 444 286 444 c 0,26,27
 212 444 212 444 51 433 c 1,28,-1
 51 508 l 1,0,1
150 146 m 2,29,30
 150 115 150 115 164 103.5 c 128,-1,31
 178 92 178 92 205 92 c 128,-1,32
 232 92 232 92 271.5 103.5 c 128,-1,33
 311 115 311 115 336 126 c 2,34,-1
 361 137 l 1,35,-1
 361 251 l 1,36,-1
 199 239 l 1,37,38
 150 234 150 234 150 181 c 2,39,-1
 150 146 l 2,29,30
156 715 m 1,40,-1
 210 715 l 1,41,42
 210 689 210 689 227.5 672 c 128,-1,43
 245 655 245 655 272 655 c 128,-1,44
 299 655 299 655 315.5 671 c 128,-1,45
 332 687 332 687 332 715 c 1,46,-1
 386 715 l 1,47,48
 386 680 386 680 370 653 c 0,49,50
 337 601 337 601 270 601 c 0,51,52
 223 601 223 601 189.5 632.5 c 128,-1,53
 156 664 156 664 156 715 c 1,40,-1
EndSplineSet
Substitution2: "'smcp' Lowercase to Small Capitals lookup 1 subtable" abreve.smcp
EndChar

StartChar: Aogonek
Encoding: 260 260 197
Width: 684
GlyphClass: 2
Flags: W
LayerCount: 2
Fore
SplineSet
38 0 m 1,0,-1
 293 732 l 1,1,-1
 421 732 l 1,2,-1
 666 0 l 1,3,-1
 539 0 l 1,4,-1
 483 177 l 1,5,-1
 224 177 l 1,6,-1
 167 0 l 1,7,-1
 38 0 l 1,0,-1
257 283 m 1,8,-1
 453 283 l 1,9,-1
 357 574 l 1,10,-1
 257 283 l 1,8,-1
631 1 m 1,11,12
 579 -40 579 -40 579 -75 c 0,13,14
 579 -89 579 -89 591.5 -101 c 128,-1,15
 604 -113 604 -113 635 -113 c 0,16,17
 636 -113 636 -113 637 -113 c 1,18,-1
 637 -184 l 1,19,20
 625 -186 625 -186 609.5 -186 c 128,-1,21
 594 -186 594 -186 569.5 -178 c 128,-1,22
 545 -170 545 -170 528 -148 c 0,23,24
 506 -119 506 -119 506 -94 c 0,25,26
 506 -35 506 -35 581 1 c 1,27,-1
 631 1 l 1,11,12
EndSplineSet
Substitution2: "'c2sc' Capitals to Small Capitals in Latin lookup 2 subtable" aogonek.smcp
EndChar

StartChar: aogonek
Encoding: 261 261 198
Width: 519
GlyphClass: 2
Flags: W
LayerCount: 2
Fore
SplineSet
51 508 m 1,0,1
 147 541 147 541 302 541 c 0,2,3
 477 541 477 541 477 376 c 2,4,-1
 477 0 l 1,5,-1
 387 0 l 1,6,-1
 361 60 l 1,7,8
 358 55 358 55 331.5 40 c 128,-1,9
 305 25 305 25 261 9.5 c 128,-1,10
 217 -6 217 -6 180 -6 c 0,11,12
 112 -6 112 -6 73 34 c 128,-1,13
 34 74 34 74 34 132 c 2,14,-1
 34 186 l 2,15,16
 34 248 34 248 71 287.5 c 128,-1,17
 108 327 108 327 189.5 327 c 128,-1,18
 271 327 271 327 316 327 c 128,-1,19
 361 327 361 327 361 327 c 1,20,21
 362 350 362 350 362 361.5 c 128,-1,22
 362 373 362 373 361 373 c 1,23,24
 361 414 361 414 342.5 429 c 128,-1,25
 324 444 324 444 286 444 c 0,26,27
 212 444 212 444 51 433 c 1,28,-1
 51 508 l 1,0,1
150 146 m 2,29,30
 150 115 150 115 164 103.5 c 128,-1,31
 178 92 178 92 205 92 c 128,-1,32
 232 92 232 92 271.5 103.5 c 128,-1,33
 311 115 311 115 336 126 c 2,34,-1
 361 137 l 1,35,-1
 361 251 l 1,36,-1
 199 239 l 1,37,38
 150 234 150 234 150 181 c 2,39,-1
 150 146 l 2,29,30
459 0 m 1,40,41
 407 -40 407 -40 407 -76 c 0,42,43
 407 -90 407 -90 419.5 -102 c 128,-1,44
 432 -114 432 -114 464 -114 c 2,45,46
 464 -114 464 -114 465 -114 c 1,47,-1
 465 -184 l 1,48,49
 453 -187 453 -187 437.5 -187 c 128,-1,50
 422 -187 422 -187 397.5 -178.5 c 128,-1,51
 373 -170 373 -170 356 -149 c 1,52,53
 334 -119 334 -119 334 -95 c 0,54,55
 334 -36 334 -36 409 0 c 1,56,-1
 459 0 l 1,40,41
EndSplineSet
AlternateSubs2: "'salt' Stylistic Alternatives in Latin lookup 16 subtable" aogonek.salt
Substitution2: "'smcp' Lowercase to Small Capitals lookup 1 subtable" aogonek.smcp
EndChar

StartChar: Cacute
Encoding: 262 262 199
Width: 574
GlyphClass: 2
Flags: W
LayerCount: 2
Fore
SplineSet
59.5 214 m 128,-1,1
 47 280 47 280 47 354.5 c 128,-1,2
 47 429 47 429 51.5 477 c 128,-1,3
 56 525 56 525 66.5 568 c 128,-1,4
 77 611 77 611 95.5 642 c 128,-1,5
 114 673 114 673 141 695 c 0,6,7
 195 740 195 740 294 740 c 0,8,9
 428 740 428 740 545 710 c 1,10,-1
 545 619 l 1,11,12
 545 619 545 619 537 619.5 c 128,-1,13
 529 620 529 620 515.5 621 c 128,-1,14
 502 622 502 622 484 623.5 c 128,-1,15
 466 625 466 625 445 626 c 128,-1,16
 424 627 424 627 402 629 c 1,17,18
 354 631 354 631 316.5 631 c 128,-1,19
 279 631 279 631 256 625.5 c 128,-1,20
 233 620 233 620 213.5 604 c 128,-1,21
 194 588 194 588 184 558 c 0,22,23
 163 496 163 496 163 364.5 c 128,-1,24
 163 233 163 233 196 168 c 128,-1,25
 229 103 229 103 315 103 c 0,26,27
 408 103 408 103 511 109 c 2,28,-1
 545 111 l 1,29,-1
 545 20 l 1,30,31
 447 -6 447 -6 312 -6 c 0,32,33
 227 -6 227 -6 178 20.5 c 128,-1,34
 129 47 129 47 100.5 97.5 c 128,-1,0
 72 148 72 148 59.5 214 c 128,-1,1
289 800 m 1,35,-1
 386 936 l 1,36,-1
 498 936 l 1,37,-1
 372 800 l 1,38,-1
 289 800 l 1,35,-1
EndSplineSet
Substitution2: "'c2sc' Capitals to Small Capitals in Latin lookup 2 subtable" cacute.smcp
EndChar

StartChar: cacute
Encoding: 263 263 200
Width: 496
GlyphClass: 2
Flags: W
LayerCount: 2
Fore
SplineSet
42 266 m 128,-1,1
 42 332 42 332 51 380 c 128,-1,2
 60 428 60 428 74.5 457.5 c 128,-1,3
 89 487 89 487 112 505 c 0,4,5
 152 536 152 536 217 536 c 0,6,7
 351 536 351 536 456 506 c 1,8,-1
 456 432 l 1,9,10
 344 438 344 438 288.5 438 c 128,-1,11
 233 438 233 438 221 436 c 128,-1,12
 209 434 209 434 195 424.5 c 128,-1,13
 181 415 181 415 174 397 c 0,14,15
 158 353 158 353 158 272.5 c 128,-1,16
 158 192 158 192 168 155.5 c 128,-1,17
 178 119 178 119 197.5 106.5 c 128,-1,18
 217 94 217 94 257 94 c 0,19,20
 337 94 337 94 431 101 c 1,21,-1
 463 103 l 1,22,-1
 463 27 l 1,23,24
 411 5 411 5 355 0 c 0,25,26
 337 -1 337 -1 328 -2 c 128,-1,27
 319 -3 319 -3 299.5 -3.5 c 128,-1,28
 280 -4 280 -4 273 -4.5 c 128,-1,29
 266 -5 266 -5 244.5 -5 c 128,-1,30
 223 -5 223 -5 204 -5 c 128,-1,31
 185 -5 185 -5 160.5 1.5 c 128,-1,32
 136 8 136 8 113 26 c 128,-1,33
 90 44 90 44 75 73.5 c 128,-1,34
 60 103 60 103 51 151.5 c 128,-1,0
 42 200 42 200 42 266 c 128,-1,1
231 597 m 1,35,-1
 327 734 l 1,36,-1
 440 734 l 1,37,-1
 314 597 l 1,38,-1
 231 597 l 1,35,-1
EndSplineSet
Substitution2: "'smcp' Lowercase to Small Capitals lookup 1 subtable" cacute.smcp
EndChar

StartChar: Ccircumflex
Encoding: 264 264 201
Width: 574
GlyphClass: 2
Flags: W
LayerCount: 2
Fore
SplineSet
59.5 214 m 128,-1,1
 47 280 47 280 47 354.5 c 128,-1,2
 47 429 47 429 51.5 477 c 128,-1,3
 56 525 56 525 66.5 568 c 128,-1,4
 77 611 77 611 95.5 642 c 128,-1,5
 114 673 114 673 141 695 c 0,6,7
 195 740 195 740 294 740 c 0,8,9
 428 740 428 740 545 710 c 1,10,-1
 545 619 l 1,11,12
 545 619 545 619 537 619.5 c 128,-1,13
 529 620 529 620 515.5 621 c 128,-1,14
 502 622 502 622 484 623.5 c 128,-1,15
 466 625 466 625 445 626 c 128,-1,16
 424 627 424 627 402 629 c 1,17,18
 354 631 354 631 316.5 631 c 128,-1,19
 279 631 279 631 256 625.5 c 128,-1,20
 233 620 233 620 213.5 604 c 128,-1,21
 194 588 194 588 184 558 c 0,22,23
 163 496 163 496 163 364.5 c 128,-1,24
 163 233 163 233 196 168 c 128,-1,25
 229 103 229 103 315 103 c 0,26,27
 408 103 408 103 511 109 c 2,28,-1
 545 111 l 1,29,-1
 545 20 l 1,30,31
 447 -6 447 -6 312 -6 c 0,32,33
 227 -6 227 -6 178 20.5 c 128,-1,34
 129 47 129 47 100.5 97.5 c 128,-1,0
 72 148 72 148 59.5 214 c 128,-1,1
179 800 m 1,35,-1
 290 934 l 1,36,-1
 382 934 l 1,37,-1
 481 800 l 1,38,-1
 396 800 l 1,39,-1
 333 864 l 1,40,-1
 265 800 l 1,41,-1
 179 800 l 1,35,-1
EndSplineSet
Substitution2: "'c2sc' Capitals to Small Capitals in Latin lookup 2 subtable" ccircumflex.smcp
EndChar

StartChar: ccircumflex
Encoding: 265 265 202
Width: 496
GlyphClass: 2
Flags: W
LayerCount: 2
Fore
SplineSet
42 266 m 128,-1,1
 42 332 42 332 51 380 c 128,-1,2
 60 428 60 428 74.5 457.5 c 128,-1,3
 89 487 89 487 112 505 c 0,4,5
 152 536 152 536 217 536 c 0,6,7
 351 536 351 536 456 506 c 1,8,-1
 456 432 l 1,9,10
 344 438 344 438 288.5 438 c 128,-1,11
 233 438 233 438 221 436 c 128,-1,12
 209 434 209 434 195 424.5 c 128,-1,13
 181 415 181 415 174 397 c 0,14,15
 158 353 158 353 158 272.5 c 128,-1,16
 158 192 158 192 168 155.5 c 128,-1,17
 178 119 178 119 197.5 106.5 c 128,-1,18
 217 94 217 94 257 94 c 0,19,20
 337 94 337 94 431 101 c 1,21,-1
 463 103 l 1,22,-1
 463 27 l 1,23,24
 411 5 411 5 355 0 c 0,25,26
 337 -1 337 -1 328 -2 c 128,-1,27
 319 -3 319 -3 299.5 -3.5 c 128,-1,28
 280 -4 280 -4 273 -4.5 c 128,-1,29
 266 -5 266 -5 244.5 -5 c 128,-1,30
 223 -5 223 -5 204 -5 c 128,-1,31
 185 -5 185 -5 160.5 1.5 c 128,-1,32
 136 8 136 8 113 26 c 128,-1,33
 90 44 90 44 75 73.5 c 128,-1,34
 60 103 60 103 51 151.5 c 128,-1,0
 42 200 42 200 42 266 c 128,-1,1
123 597 m 1,35,-1
 234 731 l 1,36,-1
 326 731 l 1,37,-1
 426 597 l 1,38,-1
 341 597 l 1,39,-1
 278 661 l 1,40,-1
 209 597 l 1,41,-1
 123 597 l 1,35,-1
EndSplineSet
Substitution2: "'smcp' Lowercase to Small Capitals lookup 1 subtable" ccircumflex.smcp
EndChar

StartChar: Cdotaccent
Encoding: 266 266 203
Width: 574
GlyphClass: 2
Flags: W
LayerCount: 2
Fore
SplineSet
59.5 214 m 128,-1,1
 47 280 47 280 47 354.5 c 128,-1,2
 47 429 47 429 51.5 477 c 128,-1,3
 56 525 56 525 66.5 568 c 128,-1,4
 77 611 77 611 95.5 642 c 128,-1,5
 114 673 114 673 141 695 c 0,6,7
 195 740 195 740 294 740 c 0,8,9
 428 740 428 740 545 710 c 1,10,-1
 545 619 l 1,11,12
 545 619 545 619 537 619.5 c 128,-1,13
 529 620 529 620 515.5 621 c 128,-1,14
 502 622 502 622 484 623.5 c 128,-1,15
 466 625 466 625 445 626 c 128,-1,16
 424 627 424 627 402 629 c 1,17,18
 354 631 354 631 316.5 631 c 128,-1,19
 279 631 279 631 256 625.5 c 128,-1,20
 233 620 233 620 213.5 604 c 128,-1,21
 194 588 194 588 184 558 c 0,22,23
 163 496 163 496 163 364.5 c 128,-1,24
 163 233 163 233 196 168 c 128,-1,25
 229 103 229 103 315 103 c 0,26,27
 408 103 408 103 511 109 c 2,28,-1
 545 111 l 1,29,-1
 545 20 l 1,30,31
 447 -6 447 -6 312 -6 c 0,32,33
 227 -6 227 -6 178 20.5 c 128,-1,34
 129 47 129 47 100.5 97.5 c 128,-1,0
 72 148 72 148 59.5 214 c 128,-1,1
278 824 m 2,35,-1
 278 892 l 2,36,37
 278 917 278 917 302 917 c 2,38,-1
 366 917 l 2,39,40
 377 917 377 917 383 910 c 128,-1,41
 389 903 389 903 389 892 c 2,42,-1
 389 824 l 2,43,44
 389 801 389 801 366 801 c 2,45,-1
 302 801 l 2,46,47
 291 801 291 801 284.5 807.5 c 128,-1,48
 278 814 278 814 278 824 c 2,35,-1
EndSplineSet
Substitution2: "'c2sc' Capitals to Small Capitals in Latin lookup 2 subtable" cdotaccent.smcp
EndChar

StartChar: cdotaccent
Encoding: 267 267 204
Width: 496
GlyphClass: 2
Flags: W
LayerCount: 2
Fore
SplineSet
42 266 m 128,-1,1
 42 332 42 332 51 380 c 128,-1,2
 60 428 60 428 74.5 457.5 c 128,-1,3
 89 487 89 487 112 505 c 0,4,5
 152 536 152 536 217 536 c 0,6,7
 351 536 351 536 456 506 c 1,8,-1
 456 432 l 1,9,10
 344 438 344 438 288.5 438 c 128,-1,11
 233 438 233 438 221 436 c 128,-1,12
 209 434 209 434 195 424.5 c 128,-1,13
 181 415 181 415 174 397 c 0,14,15
 158 353 158 353 158 272.5 c 128,-1,16
 158 192 158 192 168 155.5 c 128,-1,17
 178 119 178 119 197.5 106.5 c 128,-1,18
 217 94 217 94 257 94 c 0,19,20
 337 94 337 94 431 101 c 1,21,-1
 463 103 l 1,22,-1
 463 27 l 1,23,24
 411 5 411 5 355 0 c 0,25,26
 337 -1 337 -1 328 -2 c 128,-1,27
 319 -3 319 -3 299.5 -3.5 c 128,-1,28
 280 -4 280 -4 273 -4.5 c 128,-1,29
 266 -5 266 -5 244.5 -5 c 128,-1,30
 223 -5 223 -5 204 -5 c 128,-1,31
 185 -5 185 -5 160.5 1.5 c 128,-1,32
 136 8 136 8 113 26 c 128,-1,33
 90 44 90 44 75 73.5 c 128,-1,34
 60 103 60 103 51 151.5 c 128,-1,0
 42 200 42 200 42 266 c 128,-1,1
232 622 m 2,35,-1
 232 690 l 2,36,37
 232 715 232 715 256 715 c 2,38,-1
 320 715 l 2,39,40
 331 715 331 715 337 708 c 128,-1,41
 343 701 343 701 343 690 c 2,42,-1
 343 622 l 2,43,44
 343 599 343 599 320 599 c 2,45,-1
 256 599 l 2,46,47
 245 599 245 599 238.5 605 c 128,-1,48
 232 611 232 611 232 622 c 2,35,-1
EndSplineSet
Substitution2: "'smcp' Lowercase to Small Capitals lookup 1 subtable" cdotaccent.smcp
EndChar

